<svg width="46" height="51" viewBox="0 0 46 51" fill="none" xmlns="http://www.w3.org/2000/svg">
<path d="M22.9977 3.42188C18.806 3.42706 14.7874 5.24365 11.8234 8.47311C8.85949 11.7026 7.19226 16.0812 7.1875 20.6483C7.1875 35.3887 21.5604 46.5213 22.173 46.9872C22.4147 47.1717 22.7026 47.2706 22.9977 47.2706C23.2927 47.2706 23.5807 47.1717 23.8223 46.9872C24.435 46.5213 38.8079 35.3887 38.8079 20.6483C38.8031 16.0812 37.1359 11.7026 34.1719 8.47311C31.208 5.24365 27.1893 3.42706 22.9977 3.42188Z" fill="#1A1A1A"/>
<path d="M18.875 26.4071C19.6344 26.4071 20.25 27.017 20.25 27.7695C20.25 28.5219 19.6344 29.1318 18.875 29.1318C18.1156 29.1318 17.5 28.5219 17.5 27.7695C17.5 27.017 18.1156 26.4071 18.875 26.4071Z" stroke="white" stroke-width="1.375"/>
<path d="M27.125 26.4071C27.8844 26.4071 28.5 27.0171 28.5 27.7695C28.5 28.5219 27.8844 29.1319 27.125 29.1319C26.3656 29.1319 25.75 28.5219 25.75 27.7695C25.75 27.0171 26.3656 26.4071 27.125 26.4071Z" stroke="white" stroke-width="1.375"/>
<path d="M14.0715 12.8379L14.2979 12.1888L14.2979 12.1888L14.0715 12.8379ZM14.0585 12.1053C13.7 11.9802 13.308 12.1694 13.1829 12.5279C13.0578 12.8865 13.2471 13.2785 13.6056 13.4035L14.0585 12.1053ZM16.2024 13.9577L16.7686 13.5678L16.7686 13.5678L16.2024 13.9577ZM17.3958 23.2926L16.8987 23.7675H16.8987L17.3958 23.2926ZM30.935 19.0146L31.6081 19.1544L31.609 19.1502L30.935 19.0146ZM30.4769 21.22L31.15 21.3598V21.3598L30.4769 21.22ZM31.0053 16.1171L30.462 16.5383L31.0053 16.1171ZM29.5378 23.7148L29.1056 23.1802L29.5378 23.7148ZM17.2311 18.9029V16.4275H15.8561V18.9029H17.2311ZM14.2979 12.1888L14.0585 12.1053L13.6056 13.4035L13.845 13.4871L14.2979 12.1888ZM22.0247 24.8113H26.8857V23.4363H22.0247V24.8113ZM17.2311 16.4275C17.2311 15.7845 17.2321 15.2471 17.1844 14.8103C17.135 14.3577 17.0279 13.9443 16.7686 13.5678L15.6362 14.3477C15.718 14.4665 15.7816 14.63 15.8175 14.9594C15.8552 15.3045 15.8561 15.7542 15.8561 16.4275H17.2311ZM13.845 13.4871C14.4569 13.7005 14.8593 13.8421 15.1554 13.9862C15.4339 14.1218 15.556 14.2313 15.6362 14.3477L16.7686 13.5678C16.5075 13.1887 16.1608 12.9464 15.7573 12.75C15.3716 12.5622 14.8791 12.3915 14.2979 12.1888L13.845 13.4871ZM15.8561 18.9029C15.8561 20.2238 15.8686 21.1774 15.9944 21.9063C16.1288 22.6853 16.3974 23.2429 16.8987 23.7675L17.8928 22.8176C17.5999 22.5111 17.4424 22.2116 17.3493 21.6724C17.2476 21.0832 17.2311 20.2575 17.2311 18.9029H15.8561ZM22.0247 23.4363C20.7262 23.4363 19.8246 23.4347 19.1452 23.3391C18.4889 23.2467 18.1424 23.0788 17.8928 22.8176L16.8987 23.7675C17.4434 24.3376 18.1331 24.5852 18.9536 24.7006C19.751 24.8128 20.7668 24.8113 22.0247 24.8113V23.4363ZM16.5436 16.2797H27.6635V14.9047H16.5436V16.2797ZM30.2619 18.8748L29.8037 21.0802L31.15 21.3598L31.6081 19.1544L30.2619 18.8748ZM27.6635 16.2797C28.4484 16.2797 29.1396 16.2806 29.6852 16.3411C29.9563 16.3712 30.1595 16.413 30.3023 16.4628C30.451 16.5146 30.4744 16.5544 30.462 16.5383L31.5487 15.6958C31.3327 15.4173 31.0298 15.2602 30.755 15.1644C30.4745 15.0666 30.1572 15.01 29.8368 14.9745C29.1993 14.9038 28.4231 14.9047 27.6635 14.9047V16.2797ZM31.609 19.1502C31.7641 18.3793 31.896 17.7314 31.9283 17.2122C31.9615 16.6775 31.9001 16.1492 31.5487 15.6958L30.462 16.5383C30.5175 16.6099 30.58 16.7394 30.5559 17.1268C30.5308 17.5297 30.4241 18.0681 30.261 18.879L31.609 19.1502ZM26.8857 24.8113C27.5841 24.8113 28.1696 24.8124 28.6416 24.7551C29.1319 24.6956 29.5792 24.5655 29.9701 24.2494L29.1056 23.1802C28.9907 23.2731 28.8274 23.3475 28.4758 23.3901C28.1059 23.4351 27.6183 23.4363 26.8857 23.4363V24.8113ZM29.8037 21.0802C29.6558 21.7924 29.5564 22.265 29.4377 22.6144C29.3253 22.9455 29.2199 23.0878 29.1056 23.1802L29.9701 24.2494C30.3615 23.9329 30.5813 23.523 30.7397 23.0566C30.8919 22.6085 31.0091 22.0381 31.15 21.3598L29.8037 21.0802Z" fill="white"/>
<path d="M20.707 18.2139L21.1912 21.0464" stroke="white" stroke-width="1.375" stroke-linecap="round"/>
<path d="M26.2344 18.2139L25.7502 21.0464" stroke="white" stroke-width="1.375" stroke-linecap="round"/>
</svg>
