<?xml version="1.0" encoding="UTF-8"?>
<svg id="Warstwa_1" xmlns="http://www.w3.org/2000/svg" version="1.1" viewBox="0 0 14.3 18.2">
  <!-- Generator: Adobe Illustrator 29.6.1, SVG Export Plug-In . SVG Version: 2.1.1 Build 9)  -->
  <defs>
    <style>
      .st0 {
        fill: #c66;
      }
    </style>
  </defs>
  <path class="st0" d="M7.2.6c-1.8,0-3.5.7-4.8,2C1.2,3.8.5,5.6.5,7.3c0,5.7,6.1,10.1,6.3,10.2,0,0,.2,0,.4,0s.3,0,.4,0c.3-.2,6.3-4.5,6.3-10.2s-.7-3.5-2-4.8c-1.3-1.2-3-2-4.8-2ZM7.2,4.9c.5,0,.9.2,1.3.4.4.3.7.7.9,1.1s.2.9,0,1.4c0,.5-.3.9-.7,1.2-.4.4-.7.6-1.2.7s-.9,0-1.4,0c-.5-.2-.8-.5-1.1-.9-.3-.4-.4-.8-.4-1.3s.3-1.3.7-1.7c.5-.5,1-.7,1.7-.7Z"/>
</svg>