<?xml version="1.0" encoding="UTF-8"?>
<svg id="Warstwa_1" xmlns="http://www.w3.org/2000/svg" version="1.1" viewBox="0 0 14.3 18.2">
  <!-- Generator: Adobe Illustrator 29.5.1, SVG Export Plug-In . SVG Version: 2.1.0 Build 141)  -->
  <defs>
    <style>
      .st0 {
        fill: #e89e01;
      }
    </style>
  </defs>
  <path class="st0" d="M7.2,0c-1.9,0-3.7.8-5.1,2.1C.8,3.4,0,5.3,0,7.2c0,6.1,6.5,10.8,6.8,10.9.1,0,.2.1.4.1s.3,0,.4-.1c.3-.2,6.8-4.8,6.8-10.9,0-1.9-.8-3.7-2.1-5.1C10.9.8,9.1,0,7.2,0ZM7.2,4.6c.5,0,1,.2,1.4.4.4.3.8.7,1,1.2.2.5.2,1,.1,1.5-.1.5-.3,1-.7,1.3-.4.4-.8.6-1.3.7s-1,0-1.5-.1c-.5-.2-.9-.5-1.2-1-.3-.4-.4-.9-.4-1.4s.3-1.4.8-1.8c.5-.5,1.1-.8,1.8-.8Z"/>
</svg>