<svg width="178" height="105" viewBox="0 0 178 105" fill="none" xmlns="http://www.w3.org/2000/svg">
<path d="M37.9487 16.747C35.0685 31.7455 23.7582 41.988 17.1476 41.988H10.9375V10.1084H42.8171V41.988H27.6219M40.548 21.5592C39.7752 22.915 37.738 25.0717 35.3846 25.4932M38.8971 29.5677C36.5789 31.1835 34.0077 31.9633 31.3803 31.8228M28.6757 24.7907C28.8232 26.3432 29.5819 29.919 31.4646 31.7525M33.3473 19.6624C33.2139 21.4468 33.7337 24.2287 35.0333 25.5073M38.7145 10.3121C41.0116 13.2064 44.2244 22.167 42.1216 28.7107C40.9407 33.1189 37.7029 37.4358 31.4506 37.4358C25.8868 37.1829 22.7044 33.3121 21.8263 31.0079C18.3208 21.8191 29.6592 16.747 34.7172 13.7965C37.464 12.1948 38.293 10.9584 38.6653 10.3191C38.6793 10.3051 38.7004 10.2981 38.7145 10.3121Z" stroke="url(#paint0_linear_7783_2425)" stroke-width="0.772753" stroke-linecap="round"/>
<path d="M64.5156 13.422V22.6586H63.7061V14.4889L60.0198 20.3505L56.3334 14.4889V22.6544H55.5198V13.422C55.5198 13.2933 55.5655 13.1812 55.6609 13.0857C55.7564 12.9903 55.8726 12.9446 56.0096 12.9446C56.1632 12.9446 56.2919 13.0152 56.3957 13.1522L60.0156 18.8851L63.6355 13.1522C63.7393 13.0152 63.8721 12.9446 64.034 12.9446C64.1627 12.9446 64.2748 12.9903 64.3703 13.0857C64.4658 13.1812 64.5156 13.2892 64.5156 13.422Z" fill="url(#paint1_linear_7783_2425)"/>
<path d="M77.0606 15.3523C76.6206 14.6051 76.0311 14.0156 75.2839 13.588C74.545 13.1563 73.7479 12.9446 72.8637 12.9446C71.9795 12.9446 71.1617 13.1646 70.4145 13.6005C69.6672 14.0281 69.0736 14.6176 68.6377 15.3648C68.206 16.1037 67.9943 16.934 67.9943 17.8265C67.9943 18.719 68.2101 19.5493 68.6377 20.3131C69.0778 21.0686 69.6672 21.6706 70.4145 22.1189C71.17 22.5672 71.9878 22.7873 72.8637 22.7873C73.7479 22.7873 74.5616 22.5672 75.2963 22.1314C76.0436 21.683 76.6331 21.0852 77.0606 20.3256C77.5007 19.5617 77.7165 18.7356 77.7165 17.8265C77.7165 16.9174 77.5007 16.0913 77.0606 15.3523ZM76.3425 19.927C75.9813 20.5622 75.4956 21.0686 74.8854 21.4464C74.2751 21.8159 73.6026 21.9985 72.8637 21.9985C72.1248 21.9985 71.4481 21.8159 70.8296 21.4464C70.211 21.0686 69.7212 20.5622 69.36 19.927C68.9989 19.2919 68.8204 18.582 68.8204 17.8265C68.8204 17.071 68.9989 16.3818 69.36 15.7633C69.7212 15.1448 70.2069 14.6549 70.8171 14.2938C71.4357 13.9243 72.1206 13.7416 72.8679 13.7416C73.6151 13.7416 74.2917 13.9243 74.902 14.2938C75.5205 14.6549 76.0062 15.1448 76.3591 15.7633C76.7202 16.3818 76.8987 17.0585 76.8987 17.8265C76.8987 18.5945 76.7078 19.2919 76.3425 19.927Z" fill="url(#paint2_linear_7783_2425)"/>
<path d="M83.0093 22.6585C82.2953 22.6585 81.6477 22.4634 81.0624 22.0773C80.4771 21.683 80.0495 21.1724 79.7755 20.5455L80.4978 20.1968C80.722 20.6784 81.0582 21.0727 81.5024 21.3799C81.9591 21.6788 82.4614 21.8324 83.0093 21.8324C83.5075 21.8324 83.9683 21.712 84.3875 21.4713C84.8068 21.2222 85.1389 20.8818 85.3797 20.4542C85.6205 20.0266 85.7409 19.5492 85.7409 19.0262V13.1231H86.5504L86.5628 19.022C86.5628 19.6987 86.4051 20.313 86.0854 20.8652C85.7658 21.4131 85.3382 21.8532 84.7985 22.177C84.2589 22.4966 83.6611 22.6544 83.0093 22.6585Z" fill="url(#paint3_linear_7783_2425)"/>
<path d="M96.6382 19.4081L96.2812 18.5654L94.052 13.2642C94.0105 13.1604 93.9441 13.0857 93.8569 13.0318C93.778 12.9695 93.695 12.9404 93.5995 12.9404C93.504 12.9404 93.4127 12.9695 93.3297 13.0318C93.2508 13.0816 93.1927 13.1604 93.1512 13.2642L90.5234 19.4164L89.7762 21.1724L89.1411 22.6585H90.0543L90.4072 21.8324L91.445 19.4164L94.2513 19.4123L93.8943 18.5654H91.8145L93.5995 14.4058L94.1475 15.7052H94.1516L94.9404 17.5815L95.7125 19.4123H95.7167L97.0907 22.6585H98.004L96.6382 19.4081Z" fill="url(#paint4_linear_7783_2425)"/>
<path d="M166.584 35.4244L166.227 34.5817L163.993 29.2805C163.952 29.1767 163.885 29.102 163.802 29.0481C163.723 28.9858 163.64 28.9567 163.545 28.9567C163.449 28.9567 163.362 28.9858 163.275 29.0481C163.196 29.0979 163.138 29.1767 163.097 29.2805L160.473 35.4327L159.726 37.1887L159.091 38.6748H160.004L160.357 37.8487L161.395 35.4327L164.201 35.4286L163.844 34.5817H161.76L163.545 30.4221L164.093 31.7215H164.097L164.886 33.5978L165.658 35.4286H165.662L167.036 38.6748H167.949L166.584 35.4244Z" fill="url(#paint5_linear_7783_2425)"/>
<path d="M120.609 29.1393V38.3136C120.609 38.4506 120.559 38.571 120.455 38.6748C120.36 38.7703 120.239 38.8159 120.094 38.8159C120.015 38.8159 119.944 38.7952 119.874 38.7495C119.807 38.7163 119.745 38.6665 119.695 38.6084L113.423 30.3972V38.6706H112.609V29.4631C112.609 29.3178 112.655 29.1975 112.75 29.102C112.854 29.0065 112.974 28.9608 113.111 28.9608C113.199 28.9608 113.273 28.9774 113.344 29.0106C113.414 29.0356 113.473 29.0854 113.522 29.1518L119.783 37.4128V29.1393H120.609Z" fill="url(#paint6_linear_7783_2425)"/>
<path d="M108.395 35.4244L108.038 34.5817L105.805 29.2805C105.763 29.1767 105.697 29.102 105.614 29.048C105.535 28.9858 105.452 28.9567 105.357 28.9567C105.261 28.9567 105.17 28.9858 105.087 29.048C105.008 29.0979 104.95 29.1767 104.908 29.2805L102.281 35.4327L101.533 37.1887L100.898 38.6748H101.811L102.164 37.8487L103.202 35.4327L106.008 35.4285L105.651 34.5817H103.572L105.357 30.4221L105.905 31.7215H105.909L106.698 33.5978L107.47 35.4285H107.474L108.848 38.6748H109.761L108.395 35.4244Z" fill="url(#paint7_linear_7783_2425)"/>
<path d="M64.2343 31.3686C63.7943 30.6214 63.2048 30.0319 62.4576 29.6043C61.7187 29.1726 60.9216 28.9609 60.0374 28.9609C59.1532 28.9609 58.3354 29.1809 57.5882 29.6168C56.8409 30.0444 56.2473 30.6339 55.8114 31.3811C55.3797 32.12 55.168 32.9503 55.168 33.8428C55.168 34.7353 55.3838 35.5656 55.8114 36.3294C56.2514 37.0849 56.8409 37.6869 57.5882 38.1352C58.3437 38.5835 59.1615 38.8036 60.0374 38.8036C60.9216 38.8036 61.7353 38.5835 62.47 38.1477C63.2173 37.6993 63.8067 37.1015 64.2343 36.3419C64.6744 35.578 64.8902 34.7519 64.8902 33.8428C64.8902 32.9337 64.6744 32.1076 64.2343 31.3686ZM63.5162 35.9433C63.155 36.5785 62.6693 37.0849 62.0591 37.4627C61.4488 37.8322 60.7763 38.0148 60.0374 38.0148C59.2985 38.0148 58.6218 37.8322 58.0033 37.4627C57.3847 37.0849 56.8949 36.5785 56.5337 35.9433C56.1726 35.3082 55.9941 34.5983 55.9941 33.8428C55.9941 33.0873 56.1726 32.3981 56.5337 31.7796C56.8949 31.1611 57.3806 30.6712 57.9908 30.3101C58.6094 29.9406 59.2943 29.7579 60.0416 29.7579C60.7888 29.7579 61.4654 29.9406 62.0757 30.3101C62.6942 30.6712 63.1799 31.1611 63.5328 31.7796C63.8939 32.3981 64.0724 33.0748 64.0724 33.8428C64.0724 34.6108 63.8815 35.3082 63.5162 35.9433Z" fill="url(#paint8_linear_7783_2425)"/>
<path d="M74.8657 37.8612V38.6707H68.3482C68.2113 38.6707 68.095 38.625 67.9995 38.5295C67.9041 38.434 67.8584 38.3178 67.8584 38.1808V29.1393H68.672V37.8612H74.8657Z" fill="url(#paint9_linear_7783_2425)"/>
<path d="M81.6657 38.7869C80.9351 38.762 80.2501 38.6665 79.6025 38.5046C78.9591 38.3427 78.3323 38.0978 77.722 37.7699L78.0956 37.0226C78.6436 37.3215 79.2123 37.5499 79.7977 37.7076C80.3913 37.8612 81.014 37.9442 81.6657 37.9525C82.3798 37.9774 83.0066 37.9193 83.5462 37.7699C84.0859 37.6246 84.5052 37.4087 84.7958 37.1264C85.0864 36.8441 85.2441 36.5162 85.2607 36.1467C85.2773 35.6735 85.1362 35.304 84.8373 35.0383C84.5467 34.7727 84.1731 34.5775 83.7165 34.4572C83.2598 34.3285 82.6703 34.2122 81.9397 34.1085C81.0389 33.9881 80.3332 33.8677 79.8267 33.7473C79.3286 33.6269 78.901 33.3944 78.5398 33.0499C78.1787 32.7053 78.0085 32.2113 78.0251 31.5679C78.0417 31.0282 78.2326 30.5591 78.5896 30.1648C78.9508 29.7621 79.4448 29.459 80.0716 29.2639C80.7068 29.0647 81.4333 28.9775 82.2469 28.9941C82.8654 29.0107 83.4798 29.0937 84.0901 29.239C84.7003 29.376 85.269 29.5711 85.7921 29.8202L85.4683 30.555C84.472 30.09 83.3927 29.841 82.2345 29.8077C81.5578 29.7911 80.9683 29.8451 80.4702 29.9738C79.972 30.1025 79.5818 30.3059 79.2995 30.5799C79.0255 30.8539 78.8802 31.1943 78.8595 31.5969C78.8429 32.0245 78.9757 32.3566 79.258 32.5891C79.5403 32.8133 79.8724 32.9669 80.2501 33.054C80.6279 33.1329 81.2132 33.2201 82.002 33.3239C82.853 33.436 83.5629 33.5729 84.1274 33.7348C84.7045 33.8884 85.1818 34.1583 85.5596 34.5485C85.9457 34.9346 86.1283 35.4701 86.0993 36.1592C86.091 36.6988 85.8959 37.1721 85.5181 37.5748C85.1403 37.9774 84.6173 38.2888 83.9448 38.5005C83.2764 38.7122 82.5167 38.8077 81.6657 38.7869Z" fill="url(#paint10_linear_7783_2425)"/>
<path d="M90.2584 38.6748C90.1214 38.6748 90.0052 38.6291 89.9097 38.5337C89.8142 38.4382 89.7686 38.3219 89.7686 38.185C89.7686 38.0729 89.8018 37.9732 89.8723 37.8902L96.5849 29.953H89.9097V29.1393H97.3322C97.4609 29.1393 97.5729 29.185 97.6684 29.2805C97.7639 29.376 97.8096 29.4881 97.8096 29.6167C97.8096 29.7288 97.7764 29.8326 97.7058 29.9239L91.0056 37.8612H97.6933V38.6748H90.2584Z" fill="url(#paint11_linear_7783_2425)"/>
<path d="M126.682 33.8676L131.809 29.1393H130.713L125.893 33.5438C125.806 33.6227 125.764 33.7306 125.764 33.8676C125.764 33.9963 125.806 34.1042 125.893 34.1914L130.8 38.6748H131.921L126.682 33.8676Z" fill="url(#paint12_linear_7783_2425)"/>
<path d="M125.536 29.1393H124.722V38.6748H125.536V29.1393Z" fill="url(#paint13_linear_7783_2425)"/>
<path d="M142.793 31.3686C142.353 30.6213 141.763 30.0319 141.016 29.6043C140.277 29.1725 139.48 28.9608 138.592 28.9608C137.708 28.9608 136.89 29.1808 136.143 29.6167C135.395 30.0443 134.802 30.6338 134.366 31.381C133.938 32.1199 133.722 32.9502 133.722 33.8427C133.722 34.7352 133.938 35.5655 134.366 36.3293C134.806 37.0849 135.395 37.6868 136.143 38.1351C136.898 38.5835 137.716 38.8035 138.592 38.8035C139.476 38.8035 140.29 38.5835 141.029 38.1476C141.776 37.6992 142.365 37.1015 142.793 36.3418C143.233 35.5779 143.449 34.7518 143.449 33.8427C143.449 32.9336 143.229 32.1075 142.793 31.3686ZM142.071 35.9433C141.709 36.5784 141.224 37.0849 140.613 37.4626C140.003 37.8321 139.331 38.0147 138.592 38.0147C137.853 38.0147 137.176 37.8321 136.558 37.4626C135.939 37.0849 135.449 36.5784 135.088 35.9433C134.727 35.3081 134.548 34.5983 134.548 33.8427C134.548 33.0872 134.727 32.3981 135.088 31.7795C135.449 31.161 135.935 30.6712 136.545 30.31C137.164 29.9405 137.845 29.7579 138.592 29.7579C139.339 29.7579 140.02 29.9405 140.626 30.31C141.244 30.6712 141.73 31.161 142.083 31.7795C142.444 32.3981 142.623 33.0747 142.623 33.8427C142.623 34.6107 142.44 35.3081 142.071 35.9433Z" fill="url(#paint14_linear_7783_2425)"/>
<path d="M156.173 29.1394L154.595 37.3672L151.457 31.2897L148.331 37.3672L146.745 29.1394H145.894L147.712 38.4548C147.729 38.5586 147.783 38.6458 147.866 38.7122C147.961 38.7828 148.069 38.816 148.19 38.816C148.277 38.816 148.356 38.7952 148.435 38.7496C148.514 38.708 148.568 38.6458 148.601 38.5711L151.465 32.9959L154.321 38.5711C154.363 38.6499 154.421 38.708 154.487 38.7496C154.566 38.7911 154.649 38.816 154.745 38.816C154.857 38.816 154.96 38.7828 155.052 38.7122C155.147 38.6416 155.201 38.5586 155.218 38.4548L157.036 29.1394H156.173Z" fill="url(#paint15_linear_7783_2425)"/>
<path d="M89.4469 58.9375C85.2552 58.9423 81.2366 60.6097 78.2727 63.5741C75.3087 66.5385 73.6415 70.5577 73.6367 74.75C73.6367 88.2805 88.0096 98.4993 88.6223 98.9269C88.8639 99.0963 89.1518 99.1871 89.4469 99.1871C89.742 99.1871 90.0299 99.0963 90.2715 98.9269C90.8842 98.4993 105.257 88.2805 105.257 74.75C105.252 70.5577 103.585 66.5385 100.621 63.5741C97.6572 60.6097 93.6386 58.9423 89.4469 58.9375ZM89.4469 69C90.584 69 91.6955 69.3372 92.641 69.969C93.5864 70.6009 94.3233 71.4989 94.7584 72.5496C95.1936 73.6002 95.3074 74.7564 95.0856 75.8718C94.8638 76.9872 94.3162 78.0117 93.5122 78.8159C92.7081 79.62 91.6837 80.1676 90.5685 80.3895C89.4533 80.6114 88.2973 80.4975 87.2468 80.0623C86.1963 79.6271 85.2984 78.8901 84.6667 77.9445C84.0349 76.9989 83.6977 75.8872 83.6977 74.75C83.6977 73.225 84.3035 71.7625 85.3816 70.6841C86.4598 69.6058 87.9221 69 89.4469 69Z" fill="url(#paint16_linear_7783_2425)"/>
<defs>
<linearGradient id="paint0_linear_7783_2425" x1="42.8339" y1="35.8925" x2="10.9375" y2="20.1551" gradientUnits="userSpaceOnUse">
<stop stop-color="#905E26"/>
<stop offset="0.5" stop-color="#F5EC9B"/>
<stop offset="1" stop-color="#905E26"/>
</linearGradient>
<linearGradient id="paint1_linear_7783_2425" x1="55.3541" y1="26.497" x2="168.139" y2="26.497" gradientUnits="userSpaceOnUse">
<stop stop-color="#905E26"/>
<stop offset="0.5" stop-color="#F5EC9B"/>
<stop offset="1" stop-color="#905E26"/>
</linearGradient>
<linearGradient id="paint2_linear_7783_2425" x1="55.3541" y1="26.497" x2="168.139" y2="26.497" gradientUnits="userSpaceOnUse">
<stop stop-color="#905E26"/>
<stop offset="0.5" stop-color="#F5EC9B"/>
<stop offset="1" stop-color="#905E26"/>
</linearGradient>
<linearGradient id="paint3_linear_7783_2425" x1="55.3541" y1="26.497" x2="168.139" y2="26.497" gradientUnits="userSpaceOnUse">
<stop stop-color="#905E26"/>
<stop offset="0.5" stop-color="#F5EC9B"/>
<stop offset="1" stop-color="#905E26"/>
</linearGradient>
<linearGradient id="paint4_linear_7783_2425" x1="55.3541" y1="26.497" x2="168.139" y2="26.497" gradientUnits="userSpaceOnUse">
<stop stop-color="#905E26"/>
<stop offset="0.5" stop-color="#F5EC9B"/>
<stop offset="1" stop-color="#905E26"/>
</linearGradient>
<linearGradient id="paint5_linear_7783_2425" x1="55.3541" y1="26.497" x2="168.139" y2="26.497" gradientUnits="userSpaceOnUse">
<stop stop-color="#905E26"/>
<stop offset="0.5" stop-color="#F5EC9B"/>
<stop offset="1" stop-color="#905E26"/>
</linearGradient>
<linearGradient id="paint6_linear_7783_2425" x1="55.3541" y1="26.497" x2="168.139" y2="26.497" gradientUnits="userSpaceOnUse">
<stop stop-color="#905E26"/>
<stop offset="0.5" stop-color="#F5EC9B"/>
<stop offset="1" stop-color="#905E26"/>
</linearGradient>
<linearGradient id="paint7_linear_7783_2425" x1="55.3541" y1="26.497" x2="168.139" y2="26.497" gradientUnits="userSpaceOnUse">
<stop stop-color="#905E26"/>
<stop offset="0.5" stop-color="#F5EC9B"/>
<stop offset="1" stop-color="#905E26"/>
</linearGradient>
<linearGradient id="paint8_linear_7783_2425" x1="55.3541" y1="26.497" x2="168.139" y2="26.497" gradientUnits="userSpaceOnUse">
<stop stop-color="#905E26"/>
<stop offset="0.5" stop-color="#F5EC9B"/>
<stop offset="1" stop-color="#905E26"/>
</linearGradient>
<linearGradient id="paint9_linear_7783_2425" x1="55.3541" y1="26.497" x2="168.139" y2="26.497" gradientUnits="userSpaceOnUse">
<stop stop-color="#905E26"/>
<stop offset="0.5" stop-color="#F5EC9B"/>
<stop offset="1" stop-color="#905E26"/>
</linearGradient>
<linearGradient id="paint10_linear_7783_2425" x1="55.3541" y1="26.497" x2="168.139" y2="26.497" gradientUnits="userSpaceOnUse">
<stop stop-color="#905E26"/>
<stop offset="0.5" stop-color="#F5EC9B"/>
<stop offset="1" stop-color="#905E26"/>
</linearGradient>
<linearGradient id="paint11_linear_7783_2425" x1="55.3541" y1="26.497" x2="168.139" y2="26.497" gradientUnits="userSpaceOnUse">
<stop stop-color="#905E26"/>
<stop offset="0.5" stop-color="#F5EC9B"/>
<stop offset="1" stop-color="#905E26"/>
</linearGradient>
<linearGradient id="paint12_linear_7783_2425" x1="55.3541" y1="26.497" x2="168.139" y2="26.497" gradientUnits="userSpaceOnUse">
<stop stop-color="#905E26"/>
<stop offset="0.5" stop-color="#F5EC9B"/>
<stop offset="1" stop-color="#905E26"/>
</linearGradient>
<linearGradient id="paint13_linear_7783_2425" x1="55.3541" y1="26.497" x2="168.139" y2="26.497" gradientUnits="userSpaceOnUse">
<stop stop-color="#905E26"/>
<stop offset="0.5" stop-color="#F5EC9B"/>
<stop offset="1" stop-color="#905E26"/>
</linearGradient>
<linearGradient id="paint14_linear_7783_2425" x1="55.3541" y1="26.497" x2="168.139" y2="26.497" gradientUnits="userSpaceOnUse">
<stop stop-color="#905E26"/>
<stop offset="0.5" stop-color="#F5EC9B"/>
<stop offset="1" stop-color="#905E26"/>
</linearGradient>
<linearGradient id="paint15_linear_7783_2425" x1="55.3541" y1="26.497" x2="168.139" y2="26.497" gradientUnits="userSpaceOnUse">
<stop stop-color="#905E26"/>
<stop offset="0.5" stop-color="#F5EC9B"/>
<stop offset="1" stop-color="#905E26"/>
</linearGradient>
<linearGradient id="paint16_linear_7783_2425" x1="75.6767" y1="58.9375" x2="106.923" y2="60.2755" gradientUnits="userSpaceOnUse">
<stop stop-color="#F08D0C"/>
<stop offset="1" stop-color="#F0540C"/>
</linearGradient>
</defs>
</svg>
