<svg width="46" height="51" viewBox="0 0 46 51" fill="none" xmlns="http://www.w3.org/2000/svg">
<path d="M22.9977 3.26245C18.806 3.26763 14.7874 5.08422 11.8234 8.31369C8.85949 11.5432 7.19226 15.9218 7.1875 20.4889C7.1875 35.2293 21.5604 46.3619 22.173 46.8278C22.4147 47.0122 22.7026 47.1112 22.9977 47.1112C23.2927 47.1112 23.5807 47.0122 23.8223 46.8278C24.435 46.3619 38.8079 35.2293 38.8079 20.4889C38.8031 15.9218 37.1359 11.5432 34.1719 8.31369C31.208 5.08422 27.1893 3.26763 22.9977 3.26245Z" fill="#1A1A1A"/>
<path d="M27.3604 21.3618L26.5857 18.4465C26.1818 16.9268 25.9799 16.1669 25.4526 15.7849C25.2758 15.6568 25.0777 15.5618 24.8676 15.5043C24.2409 15.333 23.5287 15.6547 22.1042 16.2981C21.0494 16.7745 20.522 17.0128 19.9716 17.1813C19.7803 17.2398 19.5871 17.292 19.3923 17.3378C18.8322 17.4693 18.2573 17.5289 17.1075 17.6481C15.5549 17.809 14.7785 17.8895 14.3208 18.3539C14.1673 18.5095 14.0429 18.6917 13.9533 18.8917C13.686 19.4884 13.888 20.2483 14.2918 21.768L15.0665 24.6834C15.9772 28.1103 19.005 29.1883 21.0397 29.5218C21.6605 29.6235 21.9708 29.6744 22.9134 29.4197C23.856 29.1651 24.0996 28.9645 24.5867 28.5635C26.1834 27.2489 28.2711 24.7888 27.3604 21.3618Z" stroke="white" stroke-width="1.375"/>
<path d="M27.1266 25.3775C28.7227 24.7141 30.3158 23.4703 30.9338 21.1448L31.7085 18.2296C32.1124 16.7099 32.3143 15.9501 32.0471 15.3535C31.9575 15.1534 31.833 14.9713 31.6795 14.8156C31.2218 14.3513 30.4455 14.2708 28.8928 14.1099C27.743 13.9907 27.1682 13.9311 26.608 13.7996C26.4132 13.7538 26.22 13.7016 26.0287 13.6431C25.4784 13.4746 24.951 13.2364 23.8961 12.76C22.4717 12.1166 21.7594 11.7949 21.1328 11.9663C20.9227 12.0237 20.7245 12.1187 20.5478 12.2468C20.0205 12.6288 19.8185 13.3886 19.4147 14.9083L18.7734 17.3211" stroke="white" stroke-width="1.375"/>
<path d="M16.8223 21.9207C16.8759 21.3667 17.2979 20.8706 17.9119 20.7119C18.5259 20.5532 19.1485 20.7793 19.4821 21.2332" stroke="white" stroke-width="1.375" stroke-linecap="round"/>
<path d="M29.58 18.0654C29.5264 17.5115 29.1044 17.0154 28.4904 16.8567C27.8764 16.698 27.2538 16.924 26.9202 17.378" stroke="white" stroke-width="1.375" stroke-linecap="round"/>
<path d="M22.1348 20.5474C22.1884 19.9934 22.6104 19.4973 23.2244 19.3386C23.8384 19.1799 24.461 19.406 24.7946 19.8599" stroke="white" stroke-width="1.375" stroke-linecap="round"/>
<path d="M22.1608 16.402C21.9346 16.7098 21.5023 16.7815 21.1952 16.5621C20.8881 16.3427 20.8225 15.9153 21.0487 15.6075L22.1608 16.402ZM22.9909 16.1459C22.6355 16.0541 22.3142 16.1933 22.1608 16.402L21.0487 15.6075C21.5624 14.9084 22.4863 14.5955 23.3589 14.8211L22.9909 16.1459ZM23.434 16.4269C23.3329 16.2996 23.1817 16.1952 22.9909 16.1459L23.3589 14.8211C23.8372 14.9447 24.2412 15.2137 24.5241 15.5696L23.434 16.4269Z" fill="white"/>
<path d="M24.1016 24.5054C24.1016 24.5054 23.1582 23.8221 21.5175 24.2462C19.8769 24.6702 19.414 25.717 19.414 25.717" stroke="white" stroke-width="1.375" stroke-linecap="round"/>
</svg>
