<svg width="46" height="51" viewBox="0 0 46 51" fill="none" xmlns="http://www.w3.org/2000/svg">
<path d="M22.9977 3.79614C18.806 3.80132 14.7874 5.61791 11.8234 8.84738C8.85949 12.0768 7.19226 16.4555 7.1875 21.0226C7.1875 35.763 21.5604 46.8956 22.173 47.3615C22.4147 47.5459 22.7026 47.6449 22.9977 47.6449C23.2927 47.6449 23.5807 47.5459 23.8223 47.3615C24.435 46.8956 38.8079 35.763 38.8079 21.0226C38.8031 16.4555 37.1359 12.0768 34.1719 8.84738C31.208 5.61791 27.1893 3.80132 22.9977 3.79614Z" fill="#1A1A1A"/>
<path d="M20.9662 12.8731C22.2688 12.2624 23.7285 12.2624 25.0311 12.8731L31.1647 15.7486C32.4989 16.3741 32.4989 18.5393 31.1647 19.1648L25.0312 22.0404C23.7286 22.651 22.2689 22.651 20.9663 22.0404L14.8327 19.1648C13.4985 18.5393 13.4985 16.3741 14.8327 15.7486L20.9662 12.8731Z" stroke="white" stroke-width="1.375"/>
<path d="M13.832 17.4568V22.4985" stroke="white" stroke-width="1.375" stroke-linecap="round"/>
<path d="M29.4154 20.2068V24.9051C29.4154 25.8291 28.9538 26.6942 28.1455 27.1419C26.7995 27.8873 24.645 28.9151 22.9987 28.9151C21.3524 28.9151 19.1979 27.8873 17.8519 27.1419C17.0436 26.6942 16.582 25.8291 16.582 24.9051V20.2068" stroke="white" stroke-width="1.375" stroke-linecap="round"/>
</svg>
