<svg width="46" height="51" viewBox="0 0 46 51" fill="none" xmlns="http://www.w3.org/2000/svg">
<path d="M22.9977 3.53345C18.806 3.53863 14.7874 5.35522 11.8234 8.58468C8.85949 11.8141 7.19226 16.1928 7.1875 20.7599C7.1875 35.5003 21.5604 46.6329 22.173 47.0988C22.4147 47.2832 22.7026 47.3822 22.9977 47.3822C23.2927 47.3822 23.5807 47.2832 23.8223 47.0988C24.435 46.6329 38.8079 35.5003 38.8079 20.7599C38.8031 16.1928 37.1359 11.8141 34.1719 8.58468C31.208 5.35522 27.1893 3.53863 22.9977 3.53345Z" fill="#1A1A1A"/>
<path d="M18.875 26.5876C19.6344 26.5876 20.25 27.1804 20.25 27.9117C20.25 28.643 19.6344 29.2358 18.875 29.2358C18.1156 29.2358 17.5 28.643 17.5 27.9117C17.5 27.1804 18.1156 26.5876 18.875 26.5876Z" stroke="white" stroke-width="1.375"/>
<path d="M27.125 26.5877C27.8844 26.5877 28.5 27.1805 28.5 27.9118C28.5 28.6431 27.8844 29.2359 27.125 29.2359C26.3656 29.2359 25.75 28.6431 25.75 27.9118C25.75 27.1805 26.3656 26.5877 27.125 26.5877Z" stroke="white" stroke-width="1.375"/>
<path d="M14.0715 13.3998L14.2922 12.7487H14.2922L14.0715 13.3998ZM14.0528 12.6675C13.6932 12.5456 13.3029 12.7383 13.1809 13.0978C13.059 13.4574 13.2517 13.8478 13.6113 13.9697L14.0528 12.6675ZM16.2024 14.4881L16.7633 14.0906L16.7633 14.0906L16.2024 14.4881ZM17.3958 23.5608L16.9055 24.0428H16.9055L17.3958 23.5608ZM30.935 19.403L31.6073 19.5466L31.6082 19.5423L30.935 19.403ZM30.4769 21.5464L31.1492 21.6901V21.6901L30.4769 21.5464ZM31.0053 16.5868L30.4679 17.0156V17.0156L31.0053 16.5868ZM29.5378 23.9711L29.113 23.4306L29.5378 23.9711ZM17.2311 19.2944V16.8885H15.8561V19.2944H17.2311ZM14.2922 12.7487L14.0528 12.6675L13.6113 13.9697L13.8507 14.0509L14.2922 12.7487ZM22.0247 25.0561H26.8857V23.6811H22.0247V25.0561ZM17.2311 16.8885C17.2311 16.2645 17.2321 15.7397 17.1842 15.3125C17.1343 14.8685 17.0258 14.4611 16.7633 14.0906L15.6414 14.8856C15.7201 14.9967 15.7823 15.1499 15.8177 15.4659C15.8551 15.7987 15.8561 16.2333 15.8561 16.8885H17.2311ZM13.8507 14.0509C14.4624 14.2583 14.8656 14.3961 15.1623 14.5365C15.4424 14.6691 15.5634 14.7755 15.6414 14.8856L16.7633 14.0906C16.5001 13.7192 16.1522 13.4837 15.7504 13.2936C15.3653 13.1114 14.8736 12.9458 14.2922 12.7487L13.8507 14.0509ZM15.8561 19.2944C15.8561 20.5773 15.8684 21.5077 15.995 22.22C16.1307 22.9843 16.4023 23.5309 16.9055 24.0428L17.886 23.0788C17.5951 22.7829 17.4406 22.4965 17.3488 21.9796C17.2477 21.4107 17.2311 20.6119 17.2311 19.2944H15.8561ZM22.0247 23.6811C20.7267 23.6811 19.8235 23.6796 19.1425 23.5865C18.4825 23.4962 18.1346 23.3316 17.886 23.0788L16.9055 24.0428C17.4512 24.5978 18.1394 24.8371 18.9562 24.9488C19.752 25.0576 20.7662 25.0561 22.0247 25.0561V23.6811ZM16.5436 16.7642H27.6635V15.3892H16.5436V16.7642ZM30.2627 19.2593L29.8046 21.4027L31.1492 21.6901L31.6073 19.5466L30.2627 19.2593ZM27.6635 16.7642C28.448 16.7642 29.1404 16.765 29.6873 16.824C29.9592 16.8533 30.1637 16.8941 30.308 16.943C30.4592 16.9943 30.4822 17.0335 30.4679 17.0156L31.5428 16.1581C31.325 15.885 31.0215 15.733 30.7493 15.6408C30.4702 15.5462 30.1543 15.4914 29.8347 15.4569C29.1985 15.3883 28.4234 15.3892 27.6635 15.3892V16.7642ZM31.6082 19.5423C31.7631 18.7942 31.8957 18.1615 31.9282 17.6536C31.9618 17.1283 31.8995 16.6053 31.5428 16.1581L30.4679 17.0156C30.5181 17.0785 30.5797 17.1949 30.556 17.5658C30.5311 17.9541 30.4251 18.4744 30.2618 19.2636L31.6082 19.5423ZM26.8857 25.0561C27.5845 25.0561 28.1687 25.0572 28.6393 25.0017C29.1268 24.9441 29.5721 24.8186 29.9626 24.5117L29.113 23.4306C28.9978 23.5211 28.8325 23.5943 28.4781 23.6362C28.1068 23.68 27.6178 23.6811 26.8857 23.6811V25.0561ZM29.8046 21.4027C29.6564 22.0958 29.5575 22.5526 29.4397 22.8898C29.3288 23.2072 29.2257 23.3421 29.113 23.4306L29.9626 24.5117C30.3557 24.2028 30.5778 23.8011 30.7377 23.3434C30.8908 22.9054 31.0085 22.3485 31.1492 21.6901L29.8046 21.4027Z" fill="white"/>
<path d="M20.707 18.625L21.1912 21.378" stroke="white" stroke-width="1.375" stroke-linecap="round"/>
<path d="M26.2344 18.625L25.7502 21.378" stroke="white" stroke-width="1.375" stroke-linecap="round"/>
</svg>
