<svg width="114" height="44" viewBox="0 0 114 44" fill="none" xmlns="http://www.w3.org/2000/svg">
<g clip-path="url(#clip0_9759_210)">
<path d="M20.0447 20.614H9.19531V21.2597H20.0447V20.614Z" fill="white"/>
<path d="M39.1067 29.3255L25.3727 0H24.9075L23.3672 3.4177L35.529 29.3874C36.3567 31.1795 37.3957 31.8942 39.4203 32.0158H43.283V31.7384C41.0089 31.7384 39.942 31.1345 39.1067 29.3255Z" fill="white"/>
<path d="M8.85739 23.0146C8.39329 24.4995 8.20781 25.7049 8.20781 26.6811C8.20781 30.0679 11.5488 31.7384 14.0087 31.7384V32.0168H0.644531V31.8311C2.77915 31.8311 4.5424 29.8364 6.02723 26.6809L12.3839 13.3169L12.5226 13.7351C10.946 17.1688 9.78539 19.952 9.08883 22.1794L8.85739 23.0146Z" fill="white"/>
<path d="M36.8818 31.7384V32.0168H20.1308V31.7384C22.2655 31.7384 24.1684 30.3453 23.008 27.9334L14.2383 9.46625L18.5075 0H18.9716L32.7057 29.3243C33.5419 31.1346 34.6086 31.7384 36.882 31.7384" fill="#F08D0C"/>
<path d="M71.9712 31.9592V31.5897C70.8129 31.417 69.8026 31.0351 68.9403 30.4439C68.0778 29.8524 67.1906 28.9161 66.2789 27.6347C65.6875 26.7967 65.0099 25.8358 64.246 24.7514C63.5067 23.6672 62.8167 22.6569 62.1761 21.7205C61.8065 21.2029 61.4246 20.7348 61.0302 20.3158C60.6359 19.8969 60.2294 19.5766 59.8104 19.3549V19.244C60.6235 18.9729 61.3998 18.6404 62.139 18.2461C62.8783 17.8517 63.5189 17.3836 64.0611 16.8414C64.6279 16.2746 65.0715 15.634 65.3918 14.9193C65.7369 14.18 65.9094 13.3545 65.9094 12.4428C65.9094 10.9643 65.5767 9.74444 64.9114 8.7835C64.246 7.79774 63.3713 7.02167 62.2871 6.45486C61.2275 5.88806 60.0569 5.55554 58.7756 5.4569C57.4942 5.35827 56.028 5.30905 54.3771 5.30905H51.7897C50.7302 5.30905 49.6706 5.32146 48.611 5.34607H44.2492V5.7158C44.9147 5.81444 45.4691 5.93768 45.9126 6.08553C46.3808 6.20878 46.7997 6.46747 47.1693 6.86161C47.3171 7.00946 47.428 7.25595 47.502 7.60087C47.6004 7.92119 47.6622 8.29092 47.6869 8.70967C47.7361 9.10401 47.7607 9.53517 47.7607 10.0033C47.7853 10.4469 47.7977 10.8905 47.7977 11.334V20.6856C47.7977 21.4248 47.7855 22.1517 47.7607 22.8663C47.7607 23.5564 47.7483 24.197 47.7237 24.7884V26.1929C47.7237 26.5873 47.7115 26.9938 47.6867 27.4128C47.6621 27.8317 47.625 28.2259 47.5758 28.5956C47.5512 28.9653 47.502 29.2978 47.428 29.5936C47.3539 29.8893 47.2555 30.1109 47.1323 30.2588C46.8119 30.6529 46.3684 30.9488 45.8016 31.1459C45.2348 31.3432 44.6434 31.4908 44.0273 31.5895V31.959H55.8554V31.5895C54.845 31.54 54.0565 31.3554 53.4897 31.0349C52.9229 30.6899 52.541 30.3572 52.3439 30.0369C52.0974 29.6672 51.962 29.1992 51.9374 28.6322C51.9128 28.0654 51.888 27.3878 51.8634 26.5993C51.8387 25.786 51.8263 24.788 51.8263 23.6052V19.4283C52.1713 19.4529 52.4548 19.4653 52.6764 19.4653C52.9229 19.4653 53.2803 19.5145 53.7484 19.6132C54.3891 19.7364 54.9929 20.0443 55.5597 20.5373C56.1511 21.0301 56.6931 21.5599 57.1861 22.1267C57.7775 22.8165 58.2827 23.4449 58.7014 24.0117C59.145 24.5539 59.5517 25.0959 59.9212 25.6381C60.291 26.1803 60.6483 26.7347 60.9932 27.3015C61.363 27.8437 61.7817 28.4597 62.2501 29.1498C62.6444 29.7166 62.9277 30.1477 63.1002 30.4435C63.2975 30.7146 63.4575 30.924 63.5808 31.0719C63.704 31.2197 63.8148 31.3552 63.9133 31.4784C64.0119 31.5769 64.172 31.7371 64.3938 31.9588H71.9714L71.9712 31.9592ZM61.6585 12.2211C61.6585 12.8864 61.5722 13.527 61.3998 14.1432C61.2273 14.7592 60.9562 15.3384 60.5865 15.8804C60.2416 16.398 59.7856 16.8662 59.2188 17.2849C58.652 17.7039 57.9743 18.0366 57.1859 18.2829C56.3728 18.554 55.5227 18.7387 54.6353 18.8373C53.7728 18.9113 52.8365 18.9481 51.8261 18.9481V11.7404C51.8507 10.6562 51.8754 9.68282 51.9 8.82031C51.9246 8.2535 51.937 7.82235 51.937 7.52664C51.9616 7.20633 51.974 6.95984 51.974 6.78738C51.9986 6.61492 52.0232 6.47927 52.048 6.38083C52.0726 6.25759 52.0972 6.12214 52.1218 5.97429C52.2943 5.94968 52.5408 5.92487 52.8611 5.90026C53.1814 5.87565 53.6004 5.86325 54.1178 5.86325C54.8324 5.86325 55.5101 5.92487 56.1507 6.04811C56.8161 6.17136 57.4443 6.36843 58.0358 6.63953C59.2186 7.20633 60.1181 7.9702 60.7341 8.93114C61.3501 9.89209 61.6581 10.9887 61.6581 12.2209L61.6585 12.2211Z" fill="white"/>
<path d="M83.5674 31.9592V31.5897C83.0498 31.5403 82.4708 31.4048 81.8302 31.183C81.1896 30.9613 80.7212 30.6408 80.4255 30.222C80.2284 29.9509 80.1176 29.4828 80.0928 28.8175C80.0682 28.1523 80.0557 27.4622 80.0557 26.7476V12.5539C80.0804 11.9379 80.0928 11.3219 80.0928 10.7056C80.1174 10.1388 80.1298 9.53521 80.1298 8.89458C80.1544 8.25395 80.2776 7.72416 80.4995 7.30521C80.8198 6.7138 81.2756 6.31946 81.8672 6.12239C82.4586 5.92511 83.013 5.78967 83.5304 5.71584V5.34611H72.4784V5.71584C73.1191 5.78967 73.6859 5.92532 74.1786 6.12239C74.6962 6.29485 75.1274 6.59055 75.4723 7.0095C75.6202 7.18197 75.731 7.42846 75.805 7.74877C75.8788 8.04448 75.9281 8.3894 75.9529 8.78374C76.0021 9.15348 76.0267 9.56002 76.0267 10.0036V20.6858C76.0267 21.4251 76.0143 22.1519 75.9897 22.8666C75.9897 23.5566 75.9773 24.1973 75.9527 24.7887V26.1932C75.9527 26.5875 75.9403 26.9941 75.9157 27.413C75.9157 27.8074 75.8911 28.1893 75.8418 28.5588C75.8172 28.9286 75.7678 29.2489 75.694 29.5198C75.6446 29.7909 75.5585 30.0003 75.4353 30.1482C75.0656 30.5671 74.6098 30.8875 74.0676 31.1091C73.55 31.331 72.9832 31.4911 72.3672 31.5897V31.9592H83.567H83.5674Z" fill="white"/>
<path d="M101.809 31.9593V31.5897C101.883 31.5897 102.056 31.5649 102.327 31.5157C102.622 31.4665 102.918 31.3803 103.214 31.257C103.534 31.1338 103.805 30.9613 104.027 30.7394C104.273 30.5175 104.397 30.2342 104.397 29.8893C104.397 29.6674 104.323 29.3101 104.175 28.8173C104.052 28.2997 103.867 27.6837 103.62 26.9691C103.374 26.2298 103.091 25.4165 102.77 24.5296C102.45 23.6425 102.105 22.7183 101.735 21.7574H91.9032C91.5337 22.6937 91.1763 23.5933 90.8312 24.4558C90.4863 25.2937 90.1412 26.1438 89.7962 27.0063C89.2789 28.337 89.02 29.2733 89.02 29.8155C89.02 30.1358 89.1186 30.4069 89.3157 30.6286C89.5129 30.8259 89.7592 30.9983 90.0549 31.1462C90.3753 31.2694 90.7078 31.368 91.0529 31.4419C91.4226 31.4913 91.7676 31.5405 92.0879 31.5897V31.9593H84.2148V31.5527C84.8555 31.4789 85.3977 31.3062 85.8412 31.0351C86.3094 30.764 86.5805 30.5794 86.6543 30.4807C86.8268 30.3083 87.1103 29.9017 87.5044 29.2609C87.8986 28.6203 88.3791 27.6715 88.9459 26.4147C89.4633 25.2564 90.0425 23.9382 90.6832 22.4596C91.3238 20.9811 91.9768 19.4656 92.6423 17.9132C93.3321 16.3361 94.01 14.7591 94.6752 13.1819C95.3404 11.5801 95.9689 10.0894 96.5603 8.70932L96.1905 7.89602C96.6341 7.69896 97.0284 7.46487 97.3734 7.19377C97.7431 6.92268 98.0634 6.63938 98.3345 6.34367C98.6056 6.04796 98.8273 5.76446 98.9997 5.49336C99.1968 5.22226 99.3447 5.00059 99.4433 4.82812H99.739C100.503 6.87346 101.23 8.82016 101.92 10.6682C102.61 12.4917 103.263 14.2537 103.879 15.9539C104.52 17.6541 105.136 19.3051 105.727 20.9069C106.319 22.4839 106.91 24.0486 107.501 25.6012C107.772 26.365 108.019 27.0057 108.241 27.5233C108.487 28.016 108.758 28.5828 109.054 29.2237C109.103 29.3223 109.214 29.4948 109.386 29.7413C109.559 29.9877 109.781 30.2464 110.052 30.5173C110.347 30.7638 110.705 30.9855 111.124 31.1828C111.543 31.38 112.035 31.4909 112.602 31.5155V31.9591H101.809L101.809 31.9593ZM96.9672 9.55983C96.8194 9.88014 96.5977 10.3853 96.3018 11.0754C96.0307 11.7654 95.6858 12.6031 95.2668 13.5889C94.8479 14.5746 94.3797 15.6958 93.8621 16.9525C93.3693 18.1845 92.8271 19.5276 92.2357 20.9815H101.439C101.02 19.8727 100.589 18.7637 100.146 17.6549C99.7268 16.5461 99.3081 15.4866 98.8891 14.4762C98.4948 13.4412 98.1252 12.5049 97.7801 11.667C97.4598 10.8045 97.1887 10.1022 96.967 9.56024L96.9672 9.55983Z" fill="white"/>
<path d="M7.13865 40.4749C7.13865 40.0873 7.08801 39.7444 6.98653 39.4463C6.89115 39.142 6.75977 38.8768 6.5928 38.65C6.43172 38.4174 6.24096 38.2177 6.0203 38.0507C5.79964 37.8837 5.56413 37.7465 5.31357 37.6393C5.12281 37.5557 4.92899 37.4933 4.73213 37.4514C4.53526 37.4097 4.3386 37.3798 4.14173 37.3619C3.94487 37.344 3.7482 37.335 3.55134 37.335H2.97884C2.31096 37.335 1.74151 37.3379 1.27029 37.344H0.188138V37.4335C0.343109 37.4514 0.483234 37.4813 0.608715 37.5229C0.733994 37.5646 0.841172 37.6393 0.930657 37.7467C0.966451 37.7884 0.993296 37.8481 1.01119 37.9256C1.02909 37.9972 1.04089 38.0806 1.04699 38.1762C1.05899 38.2657 1.06488 38.3641 1.06488 38.4713V41.0566C1.06488 41.2355 1.06204 41.4115 1.05594 41.5843C1.05594 41.7513 1.05288 41.9063 1.04699 42.0497V42.3895C1.04699 42.4849 1.04414 42.5833 1.03804 42.6846C1.03214 42.7861 1.02299 42.8814 1.01119 42.9709C0.999194 43.0604 0.984347 43.141 0.966451 43.2125C0.954452 43.2841 0.933707 43.3348 0.903811 43.3647C0.832224 43.4483 0.724842 43.5196 0.581667 43.5794C0.444389 43.639 0.301417 43.6779 0.152344 43.6958V43.7852H3.41752C3.69187 43.7852 3.97496 43.7673 4.26721 43.7316C4.55946 43.6899 4.84276 43.6211 5.11711 43.5257C5.39147 43.4304 5.65097 43.302 5.89543 43.1412C6.13988 42.9801 6.35465 42.7773 6.53951 42.5329C6.72438 42.2884 6.8704 41.9962 6.97778 41.6561C7.08517 41.3161 7.13886 40.9225 7.13886 40.4753L7.13865 40.4749ZM6.0384 40.4928C6.0384 41.274 5.87733 41.9331 5.55539 42.4698C5.23934 43.0006 4.75938 43.3584 4.11529 43.5432C3.97802 43.5849 3.82894 43.6148 3.66787 43.6327C3.5129 43.6447 3.36077 43.6506 3.2117 43.6506C3.05063 43.6506 2.87776 43.6358 2.69289 43.6059C2.51392 43.5701 2.36485 43.4926 2.24567 43.3734C2.20988 43.3376 2.17714 43.2839 2.14724 43.2123C2.12345 43.1349 2.10555 43.0513 2.09355 42.9618C2.08155 42.8664 2.06955 42.771 2.05776 42.6756C2.05186 42.5741 2.04881 42.4818 2.04881 42.3982C2.04291 42.2014 2.03986 41.948 2.03986 41.6378V40.5913C2.03986 39.8817 2.04291 39.2703 2.04881 38.7574C2.05471 38.2445 2.0726 37.842 2.1025 37.5498C2.14439 37.538 2.19788 37.5288 2.26357 37.5229C2.33516 37.517 2.40959 37.5109 2.48728 37.5051C2.57067 37.4931 2.65425 37.4872 2.73784 37.4872C2.82122 37.4813 2.89891 37.4782 2.9705 37.4782C3.17916 37.4782 3.35508 37.4872 3.49826 37.5051C3.64143 37.517 3.77261 37.5347 3.89178 37.5587C4.20193 37.6124 4.48808 37.7316 4.75043 37.9165C5.01278 38.1013 5.23955 38.3279 5.43031 38.5962C5.62108 38.8585 5.77035 39.1538 5.87753 39.4818C5.98491 39.8099 6.0386 40.1469 6.0386 40.4926L6.0384 40.4928Z" fill="white"/>
<path d="M7.13865 40.4749C7.13865 40.0873 7.08801 39.7444 6.98653 39.4463C6.89115 39.142 6.75977 38.8768 6.5928 38.65C6.43172 38.4174 6.24096 38.2177 6.0203 38.0507C5.79964 37.8837 5.56413 37.7465 5.31357 37.6393C5.12281 37.5557 4.92899 37.4933 4.73213 37.4514C4.53526 37.4097 4.3386 37.38 4.14173 37.3619C3.94487 37.344 3.7482 37.335 3.55134 37.335H2.97884C2.31096 37.335 1.74151 37.3379 1.27029 37.344H0.188138V37.4335C0.343109 37.4514 0.483234 37.4813 0.608715 37.5229C0.733994 37.5646 0.841172 37.6393 0.930657 37.7467C0.966451 37.7884 0.993296 37.8479 1.01119 37.9256C1.02909 37.9972 1.04089 38.0806 1.04699 38.1762C1.05899 38.2657 1.06488 38.3641 1.06488 38.4715V41.0568C1.06488 41.2357 1.06204 41.4115 1.05594 41.5845C1.05594 41.7515 1.05288 41.9067 1.04699 42.0499V42.3899C1.04699 42.4853 1.04414 42.5837 1.03804 42.685C1.03214 42.7865 1.02299 42.8819 1.01119 42.9713C0.999194 43.0608 0.984347 43.1414 0.966451 43.2129C0.954451 43.2845 0.933707 43.3352 0.903811 43.3651C0.832224 43.4485 0.724842 43.52 0.581667 43.5798C0.444389 43.6394 0.301417 43.6783 0.152344 43.6962V43.7856H3.41752C3.69187 43.7856 3.97496 43.7678 4.26721 43.732C4.55946 43.6901 4.84276 43.6215 5.11711 43.5261C5.39147 43.4308 5.65097 43.3024 5.89543 43.1416C6.13988 42.9805 6.35465 42.7777 6.53951 42.5333C6.72438 42.2888 6.8704 41.9966 6.97778 41.6565C7.08517 41.3167 7.13886 40.923 7.13886 40.4757L7.13865 40.4749ZM6.0384 40.4928C6.0384 41.274 5.87733 41.9331 5.55539 42.4698C5.23934 43.0006 4.75938 43.3584 4.11529 43.5432C3.97802 43.5849 3.82894 43.6148 3.66787 43.6327C3.5129 43.6447 3.36077 43.6506 3.2117 43.6506C3.05063 43.6506 2.87776 43.6358 2.69289 43.6059C2.51392 43.5701 2.36485 43.4926 2.24567 43.3734C2.20988 43.3376 2.17714 43.2839 2.14724 43.2123C2.12345 43.1349 2.10555 43.0513 2.09355 42.9618C2.08155 42.8664 2.06955 42.771 2.05776 42.6756C2.05186 42.5744 2.04881 42.4818 2.04881 42.3982C2.04291 42.2014 2.03986 41.948 2.03986 41.6378V40.5913C2.03986 39.8817 2.04291 39.2703 2.04881 38.7574C2.05471 38.2445 2.0726 37.842 2.1025 37.5498C2.14439 37.5378 2.19788 37.5288 2.26357 37.5229C2.33516 37.517 2.40959 37.5109 2.48728 37.5051C2.57067 37.4931 2.65425 37.4872 2.73784 37.4872C2.82122 37.4813 2.89891 37.4782 2.9705 37.4782C3.17916 37.4782 3.35508 37.4872 3.49826 37.5051C3.64143 37.517 3.77261 37.5347 3.89178 37.5587C4.20193 37.6124 4.48808 37.7316 4.75043 37.9165C5.01278 38.1013 5.23955 38.3279 5.43031 38.5964C5.62108 38.8587 5.77035 39.154 5.87753 39.482C5.98491 39.8101 6.0386 40.1469 6.0386 40.4928H6.0384Z" stroke="white" stroke-width="0.305061"/>
<path d="M17.465 42.0761L17.3666 42.0493C17.2175 42.3057 17.0713 42.5264 16.9281 42.7113C16.791 42.8902 16.6479 43.0421 16.4988 43.1674C16.3497 43.2927 16.1947 43.3911 16.0337 43.4627C15.8726 43.5282 15.6967 43.5729 15.5059 43.5969C15.333 43.6207 15.1659 43.6358 15.005 43.6417C14.85 43.6476 14.7217 43.6506 14.6204 43.6506C14.3819 43.6506 14.1612 43.6327 13.9584 43.5969C13.7557 43.5612 13.6274 43.5016 13.5739 43.418C13.5202 43.3344 13.4844 43.2091 13.4665 43.0421C13.4545 42.8693 13.4455 42.6873 13.4396 42.4965C13.4396 42.4369 13.4366 42.3653 13.4307 42.2817V40.9309C13.4307 40.77 13.4366 40.6476 13.4486 40.5642H13.86C13.9196 40.5642 13.9792 40.5671 14.039 40.5732C14.0986 40.5732 14.1732 40.5762 14.2627 40.5821C14.4417 40.5941 14.5966 40.6269 14.7278 40.6806C14.8651 40.7343 14.9814 40.8028 15.0768 40.8862C15.1842 40.9877 15.2855 41.1398 15.3808 41.3423C15.4821 41.5451 15.5568 41.742 15.6046 41.9327H15.7119V39.115H15.6046C15.5688 39.282 15.5271 39.4341 15.4793 39.5712C15.4376 39.7023 15.378 39.8187 15.3003 39.9199C15.2287 40.0214 15.1333 40.1079 15.0142 40.1795C14.8948 40.251 14.7457 40.3076 14.5669 40.3493C14.4895 40.3672 14.391 40.382 14.2716 40.394C14.1584 40.3999 14.042 40.4058 13.9226 40.4119C13.8094 40.4178 13.7079 40.4209 13.6186 40.4209H13.4396V40.3224C13.4396 40.2687 13.4366 40.1943 13.4307 40.0987V39.1416C13.4307 38.7481 13.4337 38.4022 13.4396 38.104C13.4516 37.8059 13.4634 37.609 13.4754 37.5136C13.535 37.5016 13.6306 37.4927 13.7616 37.4868C13.8989 37.4748 14.0298 37.4689 14.1551 37.4689C14.5486 37.4689 14.8826 37.4868 15.1569 37.5226C15.4313 37.5584 15.6192 37.6001 15.7205 37.6478C16.1439 37.8565 16.5972 38.262 17.0802 38.8644L17.1697 38.8197L16.5614 37.3438H11.6235V37.4333C11.7844 37.4571 11.9158 37.4839 12.017 37.5138C12.1183 37.5376 12.2139 37.5974 12.3032 37.6928C12.339 37.7286 12.3658 37.7882 12.3837 37.8718C12.4075 37.9492 12.4226 38.0387 12.4285 38.1402C12.4405 38.2415 12.4464 38.3489 12.4464 38.4622C12.4523 38.5754 12.4553 38.6859 12.4553 38.7933V41.0564C12.4553 41.2354 12.4523 41.4113 12.4464 41.5842C12.4464 41.7511 12.4433 41.9061 12.4374 42.0495V42.3893C12.4374 42.4847 12.4346 42.5831 12.4285 42.6844C12.4226 42.7798 12.4106 42.8723 12.3927 42.9618C12.3807 43.0513 12.3658 43.1316 12.3479 43.2032C12.33 43.2689 12.3062 43.3195 12.2763 43.3553C12.193 43.4509 12.0856 43.5254 11.9544 43.5791C11.8291 43.6327 11.692 43.6714 11.543 43.6954V43.7849H17.0176L17.4648 42.0763L17.465 42.0761Z" fill="white"/>
<path d="M17.465 42.0761L17.3666 42.0493C17.2175 42.3057 17.0713 42.5264 16.9281 42.7113C16.791 42.8902 16.6479 43.0421 16.4988 43.1674C16.3497 43.2927 16.1947 43.3911 16.0337 43.4627C15.8726 43.5282 15.6967 43.573 15.5059 43.5969C15.333 43.6207 15.1659 43.6358 15.005 43.6417C14.85 43.6476 14.7217 43.6506 14.6204 43.6506C14.3819 43.6506 14.1612 43.6327 13.9584 43.5969C13.7557 43.5612 13.6274 43.5016 13.5739 43.418C13.5202 43.3346 13.4844 43.2091 13.4665 43.0421C13.4545 42.8693 13.4455 42.6873 13.4396 42.4965C13.4396 42.4369 13.4366 42.3653 13.4307 42.2817V40.9309C13.4307 40.77 13.4366 40.6476 13.4486 40.5642H13.86C13.9196 40.5642 13.9792 40.5671 14.039 40.5732C14.0986 40.5732 14.1732 40.5762 14.2627 40.5821C14.4417 40.5941 14.5966 40.6269 14.7278 40.6806C14.8651 40.7343 14.9814 40.8028 15.0768 40.8862C15.1842 40.9877 15.2855 41.1396 15.3808 41.3423C15.4821 41.5451 15.5568 41.742 15.6046 41.9327H15.7119V39.115H15.6046C15.5688 39.282 15.5271 39.4341 15.4793 39.5712C15.4376 39.7023 15.378 39.8187 15.3003 39.9199C15.2287 40.0214 15.1333 40.1079 15.0142 40.1795C14.8948 40.251 14.7457 40.3076 14.5669 40.3493C14.4895 40.3672 14.391 40.382 14.2716 40.394C14.1584 40.3999 14.042 40.406 13.9226 40.4119C13.8094 40.4178 13.7079 40.4209 13.6186 40.4209H13.4396V40.3224C13.4396 40.2687 13.4366 40.1943 13.4307 40.0987V39.1416C13.4307 38.7481 13.4337 38.4022 13.4396 38.104C13.4516 37.8059 13.4634 37.609 13.4754 37.5136C13.535 37.5016 13.6306 37.4927 13.7616 37.4868C13.8989 37.4748 14.0298 37.4689 14.1551 37.4689C14.5486 37.4689 14.8826 37.4868 15.1569 37.5226C15.4313 37.5584 15.6192 37.6001 15.7205 37.6478C16.1439 37.8565 16.5972 38.262 17.0802 38.8644L17.1697 38.8197L16.5614 37.3438H11.6235V37.4333C11.7844 37.4571 11.9158 37.4839 12.017 37.5138C12.1183 37.5376 12.2139 37.5972 12.3032 37.6928C12.339 37.7286 12.3658 37.7882 12.3837 37.8718C12.4075 37.9493 12.4226 38.0387 12.4285 38.1402C12.4405 38.2415 12.4464 38.3489 12.4464 38.4622C12.4523 38.5754 12.4553 38.6859 12.4553 38.7933V41.0564C12.4553 41.2354 12.4523 41.4111 12.4464 41.5842C12.4464 41.7511 12.4433 41.9063 12.4374 42.0495V42.3895C12.4374 42.4849 12.4346 42.5833 12.4285 42.6846C12.4226 42.78 12.4106 42.8725 12.3927 42.962C12.3807 43.0515 12.3658 43.1318 12.3479 43.2036C12.33 43.2693 12.3062 43.32 12.2763 43.3557C12.193 43.4513 12.0856 43.5258 11.9544 43.5795C11.8291 43.6332 11.692 43.6718 11.543 43.6958V43.7853H17.0176L17.4648 42.0767L17.465 42.0761Z" stroke="white" stroke-width="0.305061"/>
<path d="M27.5908 37.4424V37.344H25.5066V37.4335C25.5841 37.4394 25.6707 37.4544 25.7661 37.4782C25.8674 37.4961 25.963 37.526 26.0523 37.5677C26.1418 37.6035 26.2162 37.6513 26.276 37.7109C26.3356 37.7705 26.3655 37.8451 26.3655 37.9346C26.3655 38.0003 26.3476 38.1194 26.3118 38.2923C26.276 38.4593 26.1985 38.7068 26.0793 39.0348C25.9183 39.4642 25.7633 39.8756 25.614 40.2693C25.4649 40.6628 25.3277 41.0147 25.2026 41.3248C25.0832 41.635 24.9819 41.8943 24.8983 42.1029C24.8208 42.3118 24.7672 42.4489 24.7373 42.5146C24.6718 42.3356 24.5823 42.106 24.469 41.8257C24.3557 41.5455 24.2335 41.2443 24.1023 40.9223C23.977 40.5943 23.8487 40.2634 23.7177 39.9293C23.5866 39.5894 23.4672 39.2793 23.36 38.999C23.2585 38.7127 23.1751 38.4713 23.1095 38.2744C23.0438 38.0717 23.011 37.9435 23.011 37.8898C23.011 37.8004 23.0409 37.7259 23.1005 37.6661C23.1662 37.6065 23.2378 37.5618 23.3153 37.5319C23.3987 37.4961 23.4792 37.4723 23.5567 37.4603C23.6342 37.4483 23.6878 37.4394 23.7177 37.4335V37.344H21.043V37.4424C21.1802 37.4483 21.2935 37.4721 21.383 37.514C21.4725 37.5498 21.5469 37.5945 21.6067 37.6482C21.6724 37.7019 21.7231 37.7556 21.7588 37.8091C21.7946 37.8628 21.8215 37.9075 21.8394 37.9433C21.8752 38.0149 21.9081 38.0834 21.9378 38.1489C21.9736 38.2146 22.0064 38.2832 22.0362 38.3548C22.072 38.4263 22.1078 38.5038 22.1436 38.5874C22.1794 38.671 22.2181 38.7692 22.26 38.8827C22.409 39.2642 22.5581 39.646 22.7072 40.0277C22.8563 40.4033 23.0112 40.794 23.1723 41.1995C23.3334 41.6051 23.4973 42.0285 23.6643 42.4698C23.8371 42.9052 24.022 43.3645 24.2189 43.8475H24.3262L24.7645 42.9528C24.8957 42.613 25.033 42.2551 25.1761 41.8794C25.3252 41.4977 25.4743 41.119 25.6234 40.7434C25.7724 40.3677 25.9187 40.0039 26.0616 39.6521C26.2048 39.2943 26.336 38.9722 26.4552 38.686C26.5268 38.5132 26.5894 38.37 26.6431 38.2567C26.7027 38.1434 26.7533 38.0509 26.7952 37.9793C26.8369 37.9018 26.8727 37.8451 26.9026 37.8093C26.9384 37.7676 26.9652 37.7377 26.9831 37.7198C27.001 37.696 27.0665 37.6482 27.18 37.5768C27.2992 37.5053 27.4364 37.4605 27.5914 37.4426L27.5908 37.4424Z" fill="white"/>
<path d="M27.5908 37.4424V37.344H25.5066V37.4335C25.5841 37.4394 25.6707 37.4544 25.7661 37.4782C25.8674 37.4961 25.963 37.526 26.0523 37.5677C26.1418 37.6035 26.2162 37.6513 26.276 37.7109C26.3356 37.7705 26.3655 37.8451 26.3655 37.9346C26.3655 38.0003 26.3476 38.1194 26.3118 38.2923C26.276 38.4593 26.1985 38.7068 26.0793 39.0348C25.9183 39.4642 25.7633 39.8756 25.614 40.2693C25.4649 40.6628 25.3277 41.0147 25.2026 41.3248C25.0832 41.635 24.9819 41.8943 24.8983 42.1031C24.8208 42.312 24.7672 42.4491 24.7373 42.5146C24.6718 42.3356 24.5823 42.106 24.469 41.8257C24.3557 41.5453 24.2335 41.2443 24.1023 40.9221C23.977 40.5941 23.8487 40.2632 23.7177 39.9293C23.5866 39.5892 23.4672 39.2793 23.36 38.999C23.2585 38.7127 23.1751 38.4713 23.1095 38.2744C23.0438 38.0717 23.011 37.9435 23.011 37.8898C23.011 37.8004 23.0409 37.7259 23.1005 37.6661C23.1662 37.6065 23.2378 37.5618 23.3153 37.5319C23.3987 37.4961 23.4792 37.4723 23.5567 37.4603C23.6342 37.4483 23.6878 37.4394 23.7177 37.4335V37.344H21.043V37.4424C21.1802 37.4483 21.2935 37.4723 21.383 37.514C21.4725 37.5498 21.5469 37.5945 21.6067 37.6482C21.6724 37.7019 21.7231 37.7556 21.7588 37.8091C21.7946 37.8628 21.8215 37.9075 21.8394 37.9433C21.8752 38.0147 21.9081 38.0834 21.9378 38.1489C21.9736 38.2146 22.0064 38.2832 22.0362 38.3547C22.072 38.4263 22.1078 38.5038 22.1436 38.5874C22.1794 38.671 22.2181 38.7692 22.26 38.8825C22.409 39.2642 22.5581 39.6458 22.7072 40.0275C22.8563 40.4031 23.0112 40.7938 23.1723 41.1993C23.3334 41.6049 23.4973 42.0283 23.6643 42.4696C23.8371 42.905 24.022 43.3643 24.2189 43.8473H24.3262L24.7645 42.9526C24.8957 42.6128 25.033 42.2549 25.1761 41.8792C25.3252 41.4975 25.4743 41.1188 25.6234 40.7432C25.7724 40.3675 25.9187 40.0037 26.0616 39.6519C26.2048 39.2941 26.336 38.972 26.4552 38.6858C26.5267 38.513 26.5894 38.3698 26.6431 38.2565C26.7027 38.1432 26.7533 38.0507 26.7952 37.9791C26.8369 37.9016 26.8727 37.8449 26.9026 37.8091C26.9384 37.7674 26.9652 37.7375 26.9831 37.7196C27.001 37.6958 27.0665 37.648 27.18 37.5766C27.2992 37.5051 27.4364 37.4603 27.5914 37.4424H27.5908Z" stroke="white" stroke-width="0.305061"/>
<path d="M37.3478 42.0761L37.2494 42.0493C37.1003 42.3057 36.9543 42.5264 36.8111 42.7113C36.6739 42.8902 36.5309 43.0421 36.3818 43.1674C36.2327 43.2927 36.0778 43.3911 35.9167 43.4627C35.7556 43.5282 35.5797 43.5729 35.3889 43.5969C35.2161 43.6207 35.0491 43.6358 34.888 43.6417C34.7331 43.6476 34.6047 43.6506 34.5034 43.6506C34.2649 43.6506 34.0442 43.6327 33.8415 43.5969C33.6387 43.5612 33.5106 43.5016 33.4569 43.418C33.4032 43.3344 33.3674 43.2091 33.3495 43.0421C33.3375 42.8693 33.3286 42.6873 33.3227 42.4965C33.3227 42.4369 33.3196 42.3653 33.3137 42.2817V40.9309C33.3137 40.77 33.3196 40.6476 33.3316 40.5642H33.743C33.8026 40.5642 33.8622 40.5671 33.922 40.5732C33.9816 40.5732 34.0562 40.5762 34.1457 40.5821C34.3247 40.5941 34.4796 40.6269 34.6108 40.6806C34.7481 40.7343 34.8642 40.8028 34.9596 40.8862C35.067 40.9877 35.1683 41.1398 35.2639 41.3423C35.3651 41.5451 35.4398 41.742 35.4876 41.9327H35.595V39.115H35.4876C35.4518 39.282 35.4101 39.4341 35.3623 39.5712C35.3206 39.7023 35.2608 39.8187 35.1833 39.9199C35.1117 40.0214 35.0164 40.1079 34.897 40.1795C34.7778 40.251 34.6285 40.3076 34.4498 40.3493C34.3723 40.3672 34.2738 40.382 34.1545 40.394C34.0412 40.3999 33.9248 40.4058 33.8057 40.4119C33.6924 40.4178 33.5909 40.4209 33.5014 40.4209H33.3224V40.3224C33.3224 40.2687 33.3194 40.1943 33.3135 40.0987V39.1416C33.3135 38.7481 33.3166 38.4022 33.3224 38.104C33.3344 37.8059 33.3464 37.609 33.3582 37.5136C33.4178 37.5016 33.5132 37.4927 33.6446 37.4868C33.7819 37.4748 33.9128 37.4689 34.0381 37.4689C34.4317 37.4689 34.7656 37.4868 35.0399 37.5226C35.3143 37.5584 35.5022 37.6001 35.6035 37.6478C36.0269 37.8565 36.48 38.262 36.963 38.8644L37.0525 38.8197L36.4442 37.3438H31.5063V37.4333C31.6674 37.4571 31.7986 37.4839 31.8998 37.5138C32.0011 37.5376 32.0967 37.5974 32.186 37.6928C32.2218 37.7286 32.2486 37.7882 32.2665 37.8718C32.2905 37.9492 32.3054 38.0387 32.3113 38.1402C32.3233 38.2415 32.3292 38.3489 32.3292 38.4622C32.3351 38.5754 32.3381 38.6859 32.3381 38.7933V41.0564C32.3381 41.2354 32.3351 41.4113 32.3292 41.5842C32.3292 41.7511 32.3261 41.9061 32.3202 42.0495V42.3893C32.3202 42.4847 32.3172 42.5831 32.3113 42.6844C32.3054 42.7798 32.2934 42.8723 32.2755 42.9618C32.2635 43.0513 32.2486 43.1316 32.2307 43.2032C32.2128 43.2689 32.189 43.3195 32.1591 43.3553C32.0758 43.4509 31.9684 43.5254 31.8372 43.5791C31.7119 43.6327 31.5749 43.6714 31.4258 43.6954V43.7849H36.9004L37.3476 42.0763L37.3478 42.0761Z" fill="white"/>
<path d="M37.3478 42.0761L37.2494 42.0493C37.1003 42.3057 36.9543 42.5264 36.8111 42.7113C36.6739 42.8902 36.5309 43.0421 36.3818 43.1674C36.2327 43.2927 36.0778 43.3911 35.9167 43.4627C35.7556 43.5282 35.5797 43.573 35.3889 43.5969C35.2161 43.6207 35.0491 43.6358 34.888 43.6417C34.7331 43.6476 34.6047 43.6506 34.5034 43.6506C34.2649 43.6506 34.0442 43.6327 33.8415 43.5969C33.6387 43.5612 33.5106 43.5016 33.4569 43.418C33.4032 43.3346 33.3674 43.2091 33.3495 43.0421C33.3375 42.8693 33.3286 42.6873 33.3227 42.4965C33.3227 42.4369 33.3196 42.3653 33.3137 42.2817V40.9309C33.3137 40.77 33.3196 40.6476 33.3316 40.5642H33.743C33.8026 40.5642 33.8622 40.5671 33.922 40.5732C33.9816 40.5732 34.0562 40.5762 34.1457 40.5821C34.3247 40.5941 34.4796 40.6269 34.6108 40.6806C34.7481 40.7343 34.8642 40.8028 34.9596 40.8862C35.067 40.9877 35.1683 41.1396 35.2639 41.3423C35.3651 41.5451 35.4398 41.742 35.4876 41.9327H35.595V39.115H35.4876C35.4518 39.282 35.4101 39.4341 35.3623 39.5712C35.3206 39.7023 35.2608 39.8187 35.1833 39.9199C35.1117 40.0214 35.0164 40.1079 34.897 40.1795C34.7778 40.251 34.6285 40.3076 34.4498 40.3493C34.3723 40.3672 34.2738 40.382 34.1545 40.394C34.0412 40.3999 33.9248 40.406 33.8057 40.4119C33.6924 40.4178 33.5909 40.4209 33.5014 40.4209H33.3224V40.3224C33.3224 40.2687 33.3194 40.1943 33.3135 40.0987V39.1416C33.3135 38.7481 33.3166 38.4022 33.3224 38.104C33.3344 37.8059 33.3464 37.609 33.3582 37.5136C33.4178 37.5016 33.5132 37.4927 33.6446 37.4868C33.7819 37.4748 33.9128 37.4689 34.0381 37.4689C34.4317 37.4689 34.7656 37.4868 35.0399 37.5226C35.3143 37.5584 35.5022 37.6001 35.6035 37.6478C36.0269 37.8565 36.48 38.262 36.963 38.8644L37.0525 38.8197L36.4442 37.3438H31.5063V37.4333C31.6674 37.4571 31.7986 37.4839 31.8998 37.5138C32.0011 37.5376 32.0967 37.5972 32.186 37.6928C32.2218 37.7286 32.2486 37.7882 32.2665 37.8718C32.2905 37.9493 32.3054 38.0387 32.3113 38.1402C32.3233 38.2415 32.3292 38.3489 32.3292 38.4622C32.3351 38.5754 32.3381 38.6859 32.3381 38.7933V41.0564C32.3381 41.2354 32.3351 41.4111 32.3292 41.5842C32.3292 41.7511 32.3261 41.9063 32.3202 42.0495V42.3895C32.3202 42.4849 32.3172 42.5833 32.3113 42.6846C32.3054 42.78 32.2934 42.8725 32.2755 42.962C32.2635 43.0515 32.2486 43.1318 32.2307 43.2036C32.2128 43.2693 32.189 43.32 32.1591 43.3557C32.0758 43.4513 31.9684 43.5258 31.8372 43.5795C31.7119 43.6332 31.5749 43.6718 31.4258 43.6958V43.7853H36.9004L37.3476 42.0767L37.3478 42.0761Z" stroke="white" stroke-width="0.305061"/>
<path d="M47.5701 41.9419L47.4806 41.915C47.409 42.094 47.3344 42.2669 47.2569 42.4339C47.1794 42.5947 47.084 42.7468 46.9705 42.89C46.8572 43.0273 46.72 43.1495 46.5591 43.2567C46.4039 43.3641 46.2073 43.4505 45.9687 43.516C45.8672 43.5459 45.7511 43.5697 45.6197 43.5876C45.4885 43.6055 45.3604 43.6203 45.2351 43.6323C45.1099 43.6382 44.9935 43.6443 44.8861 43.6502H44.6624C44.5432 43.6502 44.4239 43.6443 44.3047 43.6323C44.1855 43.6144 44.0751 43.5965 43.9738 43.5786C43.8725 43.5549 43.7859 43.5278 43.7143 43.4981C43.6427 43.4684 43.5951 43.4385 43.5711 43.4086C43.5174 43.3252 43.4847 43.1969 43.4727 43.024C43.4668 42.8512 43.4607 42.6692 43.4548 42.4784C43.4548 42.2756 43.4517 42.0938 43.4458 41.9327V39.3027C43.4517 39.1357 43.4548 38.9657 43.4548 38.7928C43.4607 38.62 43.4668 38.429 43.4727 38.2203C43.4786 38.0593 43.5144 37.9311 43.5801 37.8358C43.6517 37.7345 43.735 37.6568 43.8306 37.6033C43.926 37.5496 44.0275 37.5108 44.1349 37.487C44.2423 37.4632 44.3346 37.4453 44.4121 37.4333V37.3438H41.5585V37.4333C41.7135 37.4512 41.8597 37.487 41.997 37.5407C42.1402 37.5944 42.2535 37.6718 42.3368 37.7733C42.3726 37.815 42.3995 37.8718 42.4174 37.9434C42.4353 38.0149 42.4473 38.0983 42.4532 38.1937C42.4652 38.2832 42.4711 38.3816 42.4711 38.489V41.0564C42.4711 41.2354 42.468 41.4113 42.4621 41.5842C42.4621 41.7511 42.4593 41.9061 42.4532 42.0495V42.3893C42.4532 42.4847 42.4473 42.5831 42.4353 42.6844C42.4294 42.7798 42.4204 42.8723 42.4084 42.9618C42.3964 43.0513 42.3787 43.1316 42.3547 43.2032C42.3368 43.2689 42.3128 43.3195 42.2832 43.3553C42.1998 43.4509 42.0834 43.5254 41.9344 43.5791C41.7912 43.6327 41.6452 43.6714 41.4961 43.6954V43.7849H47.239L47.5701 41.9421V41.9419Z" fill="white"/>
<path d="M47.5701 41.9419L47.4806 41.915C47.409 42.094 47.3344 42.2669 47.2569 42.4338C47.1794 42.5949 47.084 42.747 46.9705 42.89C46.8572 43.0273 46.72 43.1495 46.5591 43.2569C46.4039 43.3643 46.2073 43.4507 45.9687 43.5162C45.8672 43.5461 45.7511 43.5699 45.6197 43.5878C45.4885 43.6057 45.3604 43.6205 45.2351 43.6325C45.1099 43.6384 44.9935 43.6445 44.8861 43.6504H44.6624C44.5432 43.6504 44.4239 43.6445 44.3047 43.6325C44.1855 43.6146 44.0751 43.5967 43.9738 43.5788C43.8725 43.5548 43.7859 43.528 43.7143 43.4983C43.6427 43.4686 43.5951 43.4387 43.5711 43.4088C43.5174 43.3252 43.4847 43.1971 43.4727 43.0242C43.4668 42.8514 43.4607 42.6693 43.4548 42.4786C43.4548 42.2758 43.4517 42.094 43.4458 41.9329V39.3029C43.4517 39.1359 43.4548 38.9659 43.4548 38.793C43.4607 38.6202 43.4668 38.4292 43.4727 38.2205C43.4786 38.0594 43.5144 37.9313 43.5801 37.8359C43.6517 37.7345 43.735 37.657 43.8306 37.6035C43.926 37.5498 44.0275 37.5109 44.1349 37.4872C44.2423 37.4634 44.3346 37.4453 44.4121 37.4335V37.344H41.5585V37.4335C41.7135 37.4514 41.8597 37.4872 41.997 37.5408C42.1402 37.5945 42.2535 37.672 42.3368 37.7735C42.3726 37.8154 42.3995 37.8719 42.4174 37.9435C42.4353 38.0149 42.4473 38.0985 42.4532 38.1939C42.4652 38.2834 42.4711 38.3818 42.4711 38.4892V41.0566C42.4711 41.2355 42.468 41.4113 42.4621 41.5843C42.4621 41.7513 42.4593 41.9065 42.4532 42.0497V42.3897C42.4532 42.4851 42.4473 42.5835 42.4353 42.6848C42.4294 42.7802 42.4204 42.8727 42.4084 42.9622C42.3964 43.0517 42.3787 43.132 42.3547 43.2038C42.3368 43.2695 42.3128 43.3201 42.2832 43.3559C42.1998 43.4515 42.0834 43.5259 41.9344 43.5796C41.7912 43.6333 41.6452 43.672 41.4961 43.696V43.7854H47.239L47.5701 41.9427V41.9419Z" stroke="white" stroke-width="0.305061"/>
<path d="M58.2796 40.5197C58.2796 40.0904 58.2052 39.6787 58.0559 39.2852C57.9068 38.8917 57.6921 38.5457 57.4118 38.2476C57.1314 37.9435 56.7885 37.7019 56.383 37.523C55.9833 37.344 55.5302 37.2547 55.0232 37.2547C54.5581 37.2547 54.1137 37.3322 53.6903 37.4874C53.273 37.6364 52.9061 37.8541 52.59 38.1404C52.2799 38.4207 52.0324 38.7666 51.8475 39.178C51.6626 39.5836 51.5703 40.0428 51.5703 40.5555C51.5703 41.0385 51.6567 41.4829 51.8296 41.8884C52.0086 42.2878 52.25 42.6338 52.5542 42.926C52.8583 43.2122 53.2132 43.4359 53.6187 43.5969C54.0242 43.7519 54.4535 43.8294 54.9069 43.8294C55.3602 43.8294 55.7985 43.7489 56.204 43.5878C56.6154 43.4267 56.9734 43.1971 57.2774 42.899C57.5875 42.6008 57.832 42.249 58.011 41.8434C58.1899 41.4379 58.2794 40.9966 58.2794 40.5195L58.2796 40.5197ZM57.1704 40.5286C57.1704 40.9045 57.1228 41.2801 57.0272 41.6557C56.9378 42.0314 56.8005 42.3714 56.6156 42.6757C56.4308 42.9738 56.1981 43.2183 55.9178 43.4092C55.6435 43.6 55.3185 43.6954 54.9429 43.6954C54.5672 43.6954 54.2361 43.6089 53.95 43.4361C53.6697 43.2632 53.434 43.0336 53.2433 42.7472C53.0584 42.4609 52.9183 42.13 52.8229 41.7544C52.7275 41.3787 52.6797 40.9881 52.6797 40.5825C52.6797 40.177 52.7214 39.8132 52.805 39.4375C52.8945 39.0558 53.0287 38.716 53.2075 38.4178C53.3923 38.1197 53.625 37.8781 53.9053 37.6934C54.1914 37.5024 54.5284 37.407 54.916 37.407C55.3037 37.407 55.6286 37.5024 55.9089 37.6934C56.1891 37.8783 56.4218 38.1227 56.6067 38.427C56.7976 38.7251 56.9378 39.0591 57.0272 39.4288C57.1226 39.7985 57.1704 40.1652 57.1704 40.529V40.5286Z" fill="white"/>
<path d="M58.2796 40.5197C58.2796 40.0904 58.2052 39.6787 58.0559 39.2852C57.9068 38.8917 57.6921 38.5457 57.4118 38.2476C57.1314 37.9435 56.7885 37.7019 56.383 37.523C55.9833 37.344 55.5302 37.2547 55.0232 37.2547C54.5581 37.2547 54.1137 37.3322 53.6903 37.4874C53.273 37.6364 52.9061 37.8541 52.59 38.1404C52.2799 38.4207 52.0324 38.7666 51.8475 39.178C51.6626 39.5836 51.5703 40.0428 51.5703 40.5555C51.5703 41.0385 51.6567 41.4829 51.8296 41.8884C52.0086 42.288 52.25 42.6338 52.5542 42.926C52.8583 43.2122 53.2132 43.4359 53.6187 43.5969C54.0242 43.7519 54.4535 43.8294 54.9069 43.8294C55.3602 43.8294 55.7985 43.7489 56.204 43.588C56.6154 43.4269 56.9734 43.1973 57.2774 42.8992C57.5875 42.6008 57.832 42.249 58.011 41.8437C58.1899 41.4381 58.2794 40.9968 58.2794 40.5197H58.2796ZM57.1704 40.5286C57.1704 40.9045 57.1228 41.2801 57.0272 41.6557C56.9378 42.0314 56.8005 42.3714 56.6156 42.6755C56.4308 42.9736 56.1981 43.2181 55.9178 43.409C55.6435 43.5998 55.3185 43.6952 54.9429 43.6952C54.5672 43.6952 54.2361 43.6087 53.95 43.4359C53.6697 43.263 53.434 43.0334 53.2433 42.747C53.0584 42.4607 52.9183 42.1298 52.8229 41.7542C52.7275 41.3785 52.6797 40.9879 52.6797 40.5823C52.6797 40.1768 52.7214 39.813 52.805 39.4373C52.8945 39.0556 53.0287 38.7158 53.2075 38.4174C53.3923 38.1193 53.625 37.8779 53.9053 37.693C54.1914 37.502 54.5284 37.4066 54.916 37.4066C55.3037 37.4066 55.6286 37.502 55.9089 37.693C56.1891 37.8779 56.4218 38.1223 56.6067 38.4266C56.7976 38.7247 56.9378 39.0586 57.0272 39.4284C57.1226 39.7981 57.1704 40.165 57.1704 40.5286Z" stroke="white" stroke-width="0.305061"/>
<path d="M68.0067 39.2046C68.0067 38.8469 67.9203 38.5368 67.7472 38.2744C67.5744 38.0121 67.3566 37.8091 67.0942 37.6661C66.8257 37.5171 66.5396 37.4245 66.2353 37.3887C65.9313 37.347 65.5825 37.3261 65.1888 37.3261H64.7863C64.6311 37.3261 64.4642 37.3291 64.2854 37.335H63.7576C63.5787 37.335 63.4117 37.3379 63.2567 37.344H62.6484V37.4335C62.8095 37.4573 62.9586 37.4872 63.0957 37.5229C63.2388 37.5528 63.3552 37.6155 63.4447 37.7109C63.4804 37.7467 63.5073 37.8062 63.5252 37.8898C63.549 37.9673 63.564 38.0568 63.5699 38.1583C63.5819 38.2537 63.5878 38.358 63.5878 38.4713C63.5939 38.5787 63.5968 38.686 63.5968 38.7934V41.0566C63.5968 41.2355 63.5939 41.4115 63.5878 41.5843C63.5878 41.7513 63.585 41.9063 63.5789 42.0497V42.3895C63.5789 42.4849 63.5758 42.5833 63.5699 42.6846C63.564 42.7861 63.5551 42.8814 63.5431 42.9709C63.5372 43.0604 63.5252 43.141 63.5073 43.2125C63.4894 43.2841 63.4656 43.3378 63.4357 43.3736C63.3582 43.469 63.2508 43.5406 63.1138 43.5884C62.9765 43.6362 62.8335 43.672 62.6844 43.6958V43.7852H65.5469V43.6958C65.3025 43.6838 65.1115 43.639 64.9744 43.5615C64.8372 43.484 64.7448 43.4066 64.697 43.3291C64.6374 43.2396 64.6045 43.1263 64.5986 42.9892C64.5927 42.852 64.5866 42.688 64.5807 42.4973C64.5807 42.3958 64.5778 42.3035 64.5717 42.2199V41.0928H65.0548C65.2396 41.0928 65.4275 41.0869 65.6183 41.0749C65.815 41.057 66.009 41.0332 66.1998 41.0033C66.3905 40.9736 66.5695 40.9289 66.7365 40.8691C66.8975 40.8095 67.0556 40.732 67.2105 40.6366C67.3655 40.5351 67.4997 40.4159 67.613 40.2789C67.7322 40.1416 67.8278 39.9836 67.8994 39.8048C67.9709 39.6258 68.0067 39.4261 68.0067 39.2055V39.2046ZM67.0405 39.1599C67.0405 39.5357 66.939 39.8756 66.7363 40.1798C66.5335 40.478 66.2412 40.6927 65.8597 40.8239C65.6749 40.8896 65.4749 40.9313 65.2604 40.9492C65.0456 40.9612 64.816 40.9671 64.5715 40.9671V38.9453C64.5774 38.6472 64.5835 38.3936 64.5894 38.1849C64.5953 38.0477 64.6014 37.9433 64.6073 37.8717C64.6132 37.7942 64.6193 37.7345 64.6252 37.6928C64.6311 37.6511 64.6372 37.6181 64.6431 37.5943C64.6551 37.5646 64.6641 37.5317 64.67 37.4959C64.7117 37.49 64.7654 37.4839 64.8311 37.478C64.9026 37.466 65.0009 37.4601 65.1261 37.4601C65.299 37.4601 65.4662 37.4721 65.6271 37.4959C65.7879 37.5199 65.9401 37.5646 66.0832 37.6301C66.3696 37.7674 66.5992 37.9702 66.7721 38.2384C66.951 38.5069 67.0403 38.814 67.0403 39.1597L67.0405 39.1599Z" fill="white"/>
<path d="M68.0067 39.2046C68.0067 38.8469 67.9203 38.5368 67.7472 38.2744C67.5744 38.0121 67.3566 37.8091 67.0942 37.6661C66.8257 37.5171 66.5396 37.4245 66.2353 37.3887C65.9313 37.347 65.5825 37.3261 65.1888 37.3261H64.7863C64.6311 37.3261 64.4642 37.3291 64.2854 37.335H63.7576C63.5787 37.335 63.4117 37.3379 63.2567 37.344H62.6484V37.4335C62.8095 37.4573 62.9586 37.4872 63.0957 37.5229C63.2388 37.5528 63.3552 37.6155 63.4447 37.7109C63.4804 37.7467 63.5073 37.8062 63.5252 37.8898C63.549 37.9673 63.564 38.0568 63.5699 38.1581C63.5819 38.2535 63.5878 38.3578 63.5878 38.4713C63.5939 38.5787 63.5968 38.6858 63.5968 38.7934V41.0566C63.5968 41.2355 63.5939 41.4113 63.5878 41.5843C63.5878 41.7513 63.585 41.9065 63.5789 42.0497V42.3897C63.5789 42.4851 63.5758 42.5835 63.5699 42.6848C63.564 42.7863 63.5551 42.8817 63.5431 42.9711C63.5372 43.0606 63.5252 43.1412 63.5073 43.2127C63.4894 43.2843 63.4656 43.338 63.4357 43.3738C63.3582 43.4692 63.2508 43.5408 63.1138 43.5884C62.9765 43.6362 62.8335 43.6718 62.6844 43.6958V43.7852H65.5469V43.6958C65.3025 43.6838 65.1115 43.639 64.9744 43.5615C64.8372 43.484 64.7448 43.4066 64.697 43.3291C64.6374 43.2396 64.6045 43.1263 64.5986 42.989C64.5927 42.8518 64.5866 42.6878 64.5807 42.4971C64.5807 42.3956 64.5778 42.3033 64.5717 42.2197V41.0926H65.0548C65.2396 41.0926 65.4275 41.0867 65.6183 41.0747C65.815 41.0568 66.009 41.033 66.1998 41.0031C66.3905 40.9732 66.5695 40.9284 66.7365 40.8689C66.8975 40.8093 67.0556 40.7318 67.2105 40.6364C67.3655 40.5349 67.4997 40.4157 67.613 40.2787C67.7322 40.1414 67.8278 39.9834 67.8994 39.8046C67.9709 39.6256 68.0067 39.4259 68.0067 39.2053V39.2046ZM67.0405 39.1599C67.0405 39.5357 66.939 39.8756 66.7363 40.1798C66.5335 40.478 66.2412 40.6927 65.8597 40.8239C65.6749 40.8896 65.4749 40.9313 65.2604 40.9492C65.0456 40.9612 64.816 40.9671 64.5715 40.9671V38.9453C64.5774 38.6472 64.5835 38.3938 64.5894 38.1849C64.5953 38.0477 64.6014 37.9433 64.6073 37.8719C64.6132 37.7945 64.6193 37.7347 64.6252 37.693C64.6311 37.6513 64.6372 37.6183 64.6431 37.5945C64.6551 37.5646 64.6641 37.5319 64.67 37.4961C64.7117 37.4902 64.7654 37.4841 64.8311 37.4782C64.9026 37.4662 65.0009 37.4603 65.1261 37.4603C65.299 37.4603 65.4662 37.4723 65.6271 37.4961C65.7879 37.5201 65.9401 37.5648 66.0832 37.6303C66.3696 37.7676 66.5992 37.9702 66.7721 38.2386C66.951 38.5071 67.0403 38.8142 67.0403 39.1599H67.0405Z" stroke="white" stroke-width="0.305061"/>
<path d="M80.5384 43.7846V43.6951C80.3952 43.6892 80.27 43.6683 80.1628 43.6325C80.0554 43.5908 79.9659 43.5461 79.8943 43.4983C79.8227 43.4446 79.7662 43.397 79.7245 43.3551C79.6887 43.3075 79.668 43.2776 79.6619 43.2656C79.6261 43.2001 79.5992 43.1106 79.5813 42.9973C79.5693 42.8782 79.5634 42.7618 79.5634 42.6486C79.5575 42.2967 79.5545 41.9628 79.5545 41.6467V39.8666C79.5545 39.5982 79.5575 39.321 79.5634 39.0346C79.5693 38.8259 79.5783 38.6142 79.5903 38.3995C79.6023 38.1847 79.6261 38.0267 79.6619 37.9254C79.7095 37.7942 79.7961 37.6809 79.9212 37.5854C80.0523 37.49 80.2403 37.4393 80.4847 37.4332V37.3437H78.5793C78.5614 37.3915 78.4868 37.5675 78.3556 37.8715C78.2303 38.1697 78.0664 38.5453 77.8636 38.9986C77.6668 39.4517 77.4433 39.9587 77.1927 40.5192C76.9423 41.0797 76.6859 41.6433 76.4235 42.2099L74.2857 37.3435H72.3803V37.433C72.4518 37.445 72.5383 37.4658 72.6396 37.4957C72.741 37.5197 72.8364 37.5614 72.9259 37.6209C73.0154 37.6805 73.0929 37.7639 73.1584 37.8715C73.2241 37.973 73.2598 38.107 73.2657 38.274C73.2716 38.4468 73.2747 38.5931 73.2747 38.7123V39.8394C73.2747 40.239 73.2716 40.6146 73.2657 40.9665C73.2598 41.3124 73.2509 41.6136 73.2389 41.87C73.233 42.1741 73.2121 42.4336 73.1763 42.6484C73.1405 42.857 73.0839 43.0329 73.0064 43.1761C72.929 43.3193 72.8244 43.4326 72.6934 43.516C72.5623 43.5934 72.3923 43.6532 72.1836 43.6949V43.7844H74.5183V43.6949C74.2619 43.6591 74.0591 43.6026 73.91 43.5251C73.7669 43.4415 73.6595 43.3313 73.5879 43.1942C73.5163 43.051 73.4716 42.8782 73.4537 42.6754C73.4358 42.4665 73.4268 42.2221 73.4268 41.9418V39.8666C73.4327 39.5685 73.4358 39.2703 73.4358 38.9722C73.4417 38.6679 73.4447 38.3191 73.4447 37.9256C73.4746 37.9913 73.5283 38.1164 73.6058 38.3014C73.6894 38.4863 73.7937 38.7159 73.919 38.9903C74.0443 39.2646 74.1844 39.5776 74.3396 39.9294C74.4945 40.2813 74.6615 40.66 74.8405 41.0655C75.0194 41.4651 75.2013 41.8827 75.3861 42.3179C75.5769 42.7533 75.7679 43.1916 75.9586 43.6329H76.0123C76.0243 43.5971 76.054 43.5255 76.1018 43.4183C76.1496 43.3051 76.2002 43.1828 76.2539 43.0514C76.3076 42.9142 76.3613 42.783 76.415 42.6579C76.4687 42.5267 76.5104 42.4312 76.5403 42.3716C76.7371 41.9302 76.9159 41.5278 77.077 41.1639C77.2439 40.7942 77.4079 40.4334 77.5689 40.0816C77.73 39.7297 77.8909 39.3689 78.052 38.9992C78.2189 38.6295 78.4009 38.224 78.5976 37.7826V41.4234C78.5976 41.7812 78.5917 42.157 78.5797 42.5505C78.5738 42.6699 78.5618 42.7891 78.5439 42.9083C78.526 43.0216 78.4992 43.1171 78.4634 43.1946C78.4038 43.3199 78.2875 43.4301 78.1144 43.5255C77.9415 43.6209 77.7268 43.6746 77.4703 43.6866V43.785H80.5386L80.5384 43.7846Z" fill="white"/>
<path d="M80.5384 43.7846V43.6951C80.3952 43.6892 80.27 43.6683 80.1628 43.6325C80.0554 43.5908 79.9659 43.546 79.8943 43.4983C79.8227 43.4446 79.7662 43.397 79.7245 43.3551C79.6887 43.3075 79.668 43.2776 79.6619 43.2656C79.6261 43.2001 79.5992 43.1106 79.5813 42.9971C79.5693 42.878 79.5634 42.7616 79.5634 42.6484C79.5575 42.2965 79.5545 41.9626 79.5545 41.6465V39.8664C79.5545 39.5981 79.5575 39.3207 79.5634 39.0344C79.5693 38.8257 79.5783 38.614 79.5903 38.3993C79.6023 38.1847 79.6261 38.0265 79.6619 37.9252C79.7095 37.794 79.7961 37.6807 79.9212 37.5852C80.0523 37.4898 80.2403 37.4391 80.4847 37.433V37.3435H78.5793C78.5614 37.3913 78.4868 37.5673 78.3556 37.8713C78.2303 38.1694 78.0664 38.5451 77.8636 38.9984C77.6668 39.4517 77.4433 39.9585 77.1927 40.519C76.9423 41.0795 76.6859 41.6431 76.4235 42.2097L74.2857 37.3433H72.3803V37.4328C72.4518 37.4446 72.5383 37.4656 72.6396 37.4955C72.741 37.5195 72.8364 37.5612 72.9259 37.6207C73.0154 37.6803 73.0929 37.7637 73.1584 37.8713C73.2241 37.9726 73.2598 38.1068 73.2657 38.2738C73.2716 38.4466 73.2747 38.5929 73.2747 38.712V39.8391C73.2747 40.2388 73.2716 40.6144 73.2657 40.9662C73.2598 41.3122 73.2509 41.6134 73.2389 41.8698C73.233 42.1739 73.2121 42.4334 73.1763 42.6482C73.1405 42.8568 73.0839 43.0327 73.0064 43.1759C72.929 43.3191 72.8244 43.4324 72.6934 43.5157C72.5623 43.5932 72.3923 43.653 72.1836 43.6947V43.7842H74.5183V43.6947C74.2619 43.6589 74.0591 43.6024 73.91 43.5249C73.7669 43.4413 73.6595 43.3311 73.5879 43.194C73.5163 43.0508 73.4716 42.878 73.4537 42.6752C73.4358 42.4665 73.4268 42.2221 73.4268 41.9416V39.8664C73.4327 39.5683 73.4358 39.2701 73.4358 38.972C73.4417 38.6677 73.4447 38.3189 73.4447 37.9252C73.4746 37.9909 73.5283 38.116 73.6058 38.301C73.6894 38.4859 73.7937 38.7155 73.919 38.9899C74.0443 39.2642 74.1844 39.5772 74.3396 39.929C74.4945 40.2809 74.6615 40.6596 74.8405 41.0651C75.0194 41.4647 75.2013 41.8822 75.3861 42.3175C75.5769 42.7529 75.7679 43.1912 75.9586 43.6325H76.0123C76.0243 43.5967 76.054 43.5251 76.1018 43.4179C76.1496 43.3046 76.2002 43.1824 76.2539 43.051C76.3076 42.9138 76.3613 42.7828 76.415 42.6575C76.4687 42.5263 76.5104 42.4307 76.5403 42.3712C76.7371 41.9298 76.9159 41.5274 77.077 41.1635C77.2439 40.7938 77.4079 40.433 77.5689 40.0812C77.73 39.7293 77.8909 39.3685 78.052 38.9988C78.2189 38.6291 78.4009 38.2235 78.5976 37.7822V41.423C78.5976 41.7808 78.5917 42.1566 78.5797 42.5501C78.5738 42.6695 78.5618 42.7887 78.5439 42.9079C78.526 43.0211 78.4992 43.1167 78.4634 43.1942C78.4038 43.3195 78.2875 43.4297 78.1144 43.5251C77.9415 43.6205 77.7268 43.6742 77.4703 43.6862V43.7846H80.5386H80.5384Z" stroke="white" stroke-width="0.305061"/>
<path d="M90.8824 42.0761L90.7839 42.0493C90.6349 42.3057 90.4886 42.5264 90.3457 42.7113C90.2086 42.8902 90.0654 43.0421 89.9164 43.1674C89.7673 43.2927 89.6123 43.3911 89.4512 43.4627C89.2902 43.5282 89.1142 43.5729 88.9235 43.5969C88.7506 43.6207 88.5836 43.6358 88.4226 43.6417C88.2676 43.6476 88.1393 43.6506 88.038 43.6506C87.7994 43.6506 87.5788 43.6327 87.376 43.5969C87.1732 43.5612 87.0451 43.5016 86.9914 43.418C86.9377 43.3344 86.9019 43.2091 86.884 43.0421C86.872 42.8693 86.8633 42.6873 86.8572 42.4965C86.8572 42.4369 86.8541 42.3653 86.8482 42.2817V40.9309C86.8482 40.77 86.8542 40.6476 86.8662 40.5642H87.2776C87.3372 40.5642 87.3967 40.5671 87.4565 40.5732C87.5161 40.5732 87.5908 40.5762 87.6803 40.5821C87.8592 40.5941 88.0142 40.6269 88.1454 40.6806C88.2826 40.7343 88.3988 40.8028 88.4944 40.8862C88.6017 40.9877 88.703 41.1398 88.7984 41.3423C88.8999 41.5451 88.9743 41.742 89.0221 41.9327H89.1295V39.115H89.0221C88.9863 39.282 88.9446 39.4341 88.8968 39.5712C88.8551 39.7023 88.7956 39.8187 88.7179 39.9199C88.6463 40.0214 88.5509 40.1079 88.4315 40.1795C88.3123 40.251 88.1633 40.3076 87.9843 40.3493C87.9068 40.3672 87.8084 40.382 87.6892 40.394C87.5759 40.3999 87.4596 40.4058 87.3402 40.4119C87.2269 40.4178 87.1254 40.4209 87.0362 40.4209H86.8572V40.3224C86.8572 40.2687 86.8541 40.1943 86.8482 40.0987V39.1416C86.8482 38.7481 86.8513 38.4022 86.8572 38.104C86.8692 37.8059 86.881 37.609 86.893 37.5136C86.9526 37.5016 87.048 37.4927 87.1791 37.4868C87.3164 37.4748 87.4474 37.4689 87.5729 37.4689C87.9664 37.4689 88.3003 37.4868 88.5747 37.5226C88.849 37.5584 89.037 37.6001 89.1382 37.6478C89.5617 37.8565 90.015 38.262 90.498 38.8644L90.5875 38.8197L89.9792 37.3438H85.0413V37.4333C85.2023 37.4571 85.3335 37.4839 85.435 37.5138C85.5363 37.5376 85.6317 37.5974 85.7211 37.6928C85.7569 37.7286 85.7838 37.7882 85.8017 37.8718C85.8255 37.9492 85.8405 38.0387 85.8464 38.1402C85.8584 38.2415 85.8643 38.3489 85.8643 38.4622C85.8702 38.5754 85.8733 38.6859 85.8733 38.7933V41.0564C85.8733 41.2354 85.8704 41.4113 85.8643 41.5842C85.8643 41.7511 85.8613 41.9061 85.8554 42.0495V42.3893C85.8554 42.4847 85.8523 42.5831 85.8464 42.6844C85.8405 42.7798 85.8285 42.8723 85.8106 42.9618C85.7986 43.0513 85.7838 43.1316 85.7659 43.2032C85.748 43.2689 85.7242 43.3195 85.6943 43.3553C85.6107 43.4509 85.5035 43.5254 85.3724 43.5791C85.2471 43.6327 85.11 43.6714 84.9609 43.6954V43.7849H90.4356L90.8828 42.0763L90.8824 42.0761Z" fill="white"/>
<path d="M90.8824 42.0761L90.7839 42.0493C90.6349 42.3057 90.4886 42.5264 90.3457 42.7113C90.2086 42.8902 90.0654 43.0421 89.9164 43.1674C89.7673 43.2927 89.6123 43.3911 89.4512 43.4627C89.2902 43.5282 89.1142 43.573 88.9235 43.5969C88.7506 43.6207 88.5836 43.6358 88.4226 43.6417C88.2676 43.6476 88.1393 43.6506 88.038 43.6506C87.7994 43.6506 87.5788 43.6327 87.376 43.5969C87.1732 43.5612 87.0451 43.5016 86.9914 43.418C86.9377 43.3346 86.9019 43.2091 86.884 43.0421C86.872 42.8693 86.8633 42.6873 86.8572 42.4965C86.8572 42.4369 86.8541 42.3653 86.8482 42.2817V40.9309C86.8482 40.77 86.8542 40.6476 86.8662 40.5642H87.2776C87.3372 40.5642 87.3967 40.5671 87.4565 40.5732C87.5161 40.5732 87.5908 40.5762 87.6803 40.5821C87.8592 40.5941 88.0142 40.6269 88.1454 40.6806C88.2826 40.7343 88.3988 40.8028 88.4944 40.8862C88.6017 40.9877 88.703 41.1396 88.7984 41.3423C88.8999 41.5451 88.9743 41.742 89.0221 41.9327H89.1295V39.115H89.0221C88.9863 39.282 88.9446 39.4341 88.8968 39.5712C88.8551 39.7023 88.7956 39.8187 88.7179 39.9199C88.6463 40.0214 88.5509 40.1079 88.4315 40.1795C88.3123 40.251 88.1633 40.3076 87.9843 40.3493C87.9068 40.3672 87.8084 40.382 87.6892 40.394C87.5759 40.3999 87.4596 40.406 87.3402 40.4119C87.2269 40.4178 87.1254 40.4209 87.0362 40.4209H86.8572V40.3224C86.8572 40.2687 86.8541 40.1943 86.8482 40.0987V39.1416C86.8482 38.7481 86.8513 38.4022 86.8572 38.104C86.8692 37.8059 86.881 37.609 86.893 37.5136C86.9526 37.5016 87.048 37.4927 87.1791 37.4868C87.3164 37.4748 87.4474 37.4689 87.5729 37.4689C87.9664 37.4689 88.3003 37.4868 88.5747 37.5226C88.849 37.5584 89.037 37.6001 89.1382 37.6478C89.5617 37.8565 90.015 38.262 90.498 38.8644L90.5875 38.8197L89.9792 37.3438H85.0413V37.4333C85.2023 37.4571 85.3335 37.4839 85.435 37.5138C85.5363 37.5376 85.6317 37.5972 85.7211 37.6928C85.7569 37.7286 85.7838 37.7882 85.8017 37.8718C85.8255 37.9493 85.8405 38.0387 85.8464 38.1402C85.8584 38.2415 85.8643 38.3489 85.8643 38.4622C85.8702 38.5754 85.8733 38.6859 85.8733 38.7933V41.0564C85.8733 41.2354 85.8704 41.4111 85.8643 41.5842C85.8643 41.7511 85.8613 41.9063 85.8554 42.0495V42.3895C85.8554 42.4849 85.8523 42.5833 85.8464 42.6846C85.8405 42.78 85.8285 42.8725 85.8106 42.962C85.7986 43.0515 85.7838 43.1318 85.7659 43.2036C85.748 43.2693 85.7242 43.32 85.6943 43.3557C85.6107 43.4513 85.5035 43.5258 85.3724 43.5795C85.2471 43.6332 85.11 43.6718 84.9609 43.6958V43.7853H90.4356L90.8828 42.0767L90.8824 42.0761Z" stroke="white" stroke-width="0.305061"/>
<path d="M102.292 37.4335V37.344H100.074V37.4335C100.36 37.4752 100.578 37.5498 100.727 37.6572C100.882 37.7585 100.989 37.8927 101.049 38.0597C101.097 38.1849 101.123 38.3578 101.129 38.5785C101.135 38.7932 101.138 39.0198 101.138 39.2583V42.2998L96.8981 37.344H95.0822V37.4335C95.1776 37.4455 95.276 37.4662 95.3775 37.4961C95.4849 37.5201 95.5833 37.5648 95.6726 37.6303C95.762 37.6899 95.8395 37.7766 95.905 37.8898C95.9707 37.9972 96.0124 38.1373 96.0303 38.3102C96.0362 38.4831 96.0393 38.6293 96.0393 38.7485V39.8398C96.0393 40.2394 96.0362 40.615 96.0303 40.9669C96.0244 41.3128 96.0155 41.614 96.0035 41.8705C95.9915 42.2103 95.9738 42.5026 95.9498 42.7472C95.926 42.9917 95.8723 43.1765 95.7887 43.3018C95.7053 43.433 95.5918 43.5284 95.4489 43.588C95.3057 43.6417 95.1625 43.6775 95.0195 43.6954V43.7848H97.22V43.6954C96.9756 43.6657 96.7818 43.6179 96.6386 43.5522C96.5013 43.4806 96.4 43.3763 96.3343 43.2392C96.2748 43.1198 96.2359 42.938 96.218 42.6935C96.206 42.4491 96.2001 42.1747 96.2001 41.8705V38.0954C96.6056 38.5488 96.9902 38.987 97.3541 39.4105C97.7179 39.8339 98.0876 40.2693 98.4633 40.7165C98.845 41.1579 99.2444 41.623 99.662 42.1121C100.079 42.601 100.542 43.1379 101.049 43.7222C101.108 43.7818 101.162 43.8117 101.21 43.8117C101.239 43.8117 101.26 43.8027 101.272 43.7848C101.29 43.7728 101.299 43.7549 101.299 43.7311V43.1497C101.299 42.9349 101.296 42.7204 101.29 42.5056V41.289C101.29 40.8894 101.293 40.5166 101.299 40.1707C101.311 39.8188 101.323 39.5148 101.335 39.2583C101.347 38.984 101.359 38.7275 101.371 38.489C101.383 38.2445 101.41 38.0776 101.451 37.9881C101.523 37.8152 101.624 37.6869 101.755 37.6035C101.893 37.5201 102.072 37.4634 102.292 37.4335Z" fill="white"/>
<path d="M102.292 37.4335V37.344H100.074V37.4335C100.36 37.4752 100.578 37.5498 100.727 37.6572C100.882 37.7585 100.989 37.8927 101.049 38.0597C101.097 38.1849 101.123 38.3578 101.129 38.5785C101.135 38.7932 101.138 39.0198 101.138 39.2583V42.2998L96.8981 37.344H95.0822V37.4335C95.1776 37.4453 95.276 37.4662 95.3775 37.4961C95.4849 37.5201 95.5833 37.5648 95.6726 37.6303C95.762 37.6899 95.8395 37.7766 95.905 37.8898C95.9707 37.9972 96.0124 38.1373 96.0303 38.3102C96.0362 38.4831 96.0393 38.6293 96.0393 38.7485V39.8398C96.0393 40.2394 96.0362 40.615 96.0303 40.9669C96.0244 41.3128 96.0155 41.614 96.0035 41.8705C95.9915 42.2103 95.9738 42.5026 95.9498 42.7472C95.926 42.9917 95.8723 43.1765 95.7887 43.3018C95.7053 43.433 95.5918 43.5284 95.4489 43.588C95.3057 43.6417 95.1625 43.6775 95.0195 43.6954V43.7848H97.22V43.6954C96.9756 43.6655 96.7818 43.6179 96.6386 43.5522C96.5013 43.4806 96.4 43.3763 96.3343 43.2392C96.2748 43.1198 96.2359 42.938 96.218 42.6935C96.206 42.4491 96.2001 42.1747 96.2001 41.8707V38.0957C96.6056 38.5488 96.9902 38.9872 97.3541 39.4107C97.7179 39.8341 98.0876 40.2695 98.4633 40.7167C98.845 41.1581 99.2444 41.6232 99.662 42.1123C100.079 42.6012 100.542 43.1381 101.049 43.7224C101.108 43.782 101.162 43.8119 101.21 43.8119C101.239 43.8119 101.26 43.8029 101.272 43.785C101.29 43.773 101.299 43.7554 101.299 43.7314V43.1499C101.299 42.9351 101.296 42.7206 101.29 42.5058V41.2892C101.29 40.8896 101.293 40.5168 101.299 40.1711C101.311 39.8192 101.323 39.5152 101.335 39.2587C101.347 38.9844 101.359 38.7279 101.371 38.4894C101.383 38.2449 101.41 38.078 101.451 37.9885C101.523 37.8156 101.624 37.6873 101.755 37.6039C101.893 37.5203 102.072 37.4638 102.292 37.4339V37.4335Z" stroke="white" stroke-width="0.305061"/>
<path d="M113.036 38.9991L112.75 37.2547C112.613 37.2964 112.479 37.3322 112.348 37.3621C112.222 37.3861 112.061 37.4009 111.865 37.4068C111.638 37.4068 111.435 37.4099 111.256 37.4158C111.077 37.4158 110.904 37.4188 110.738 37.4247H108C107.821 37.4188 107.619 37.4127 107.392 37.4068C107.171 37.4009 107.001 37.3889 106.882 37.371C106.769 37.3531 106.644 37.3294 106.507 37.2995L106.238 38.9991L106.319 39.0259C106.355 38.9185 106.402 38.8083 106.462 38.695C106.528 38.5817 106.593 38.4774 106.659 38.382C106.73 38.2807 106.796 38.1882 106.856 38.1046C106.921 38.0212 106.978 37.9586 107.026 37.9169C107.151 37.7975 107.285 37.7141 107.428 37.6663C107.577 37.6186 107.765 37.5919 107.992 37.5858H108.287C108.376 37.5799 108.46 37.5769 108.537 37.5769H109.128V41.0476C109.128 41.2266 109.125 41.3995 109.119 41.5665C109.119 41.7334 109.116 41.8855 109.11 42.0226V42.3535C109.11 42.4489 109.107 42.5473 109.101 42.6488C109.101 42.7501 109.095 42.8457 109.083 42.935C109.077 43.0183 109.065 43.096 109.047 43.1676C109.035 43.2333 109.015 43.2809 108.985 43.3108C108.847 43.4658 108.707 43.5642 108.564 43.6061C108.421 43.6478 108.272 43.6777 108.117 43.6956V43.7851H111.024V43.6956C110.893 43.6718 110.744 43.636 110.577 43.5882C110.416 43.5406 110.291 43.4511 110.201 43.3197C110.153 43.2541 110.124 43.1438 110.112 42.9889C110.106 42.8278 110.103 42.6608 110.103 42.4879V38.1852C110.109 37.9287 110.112 37.7259 110.112 37.5769H110.702C110.786 37.5769 110.869 37.5797 110.953 37.5858H111.248C111.475 37.5919 111.659 37.6157 111.803 37.6574C111.952 37.6932 112.089 37.7707 112.214 37.8901C112.262 37.9317 112.318 37.9974 112.384 38.0869C112.45 38.1705 112.515 38.2628 112.581 38.3643C112.653 38.4656 112.721 38.576 112.787 38.6952C112.852 38.8085 112.909 38.9189 112.957 39.0261L113.037 38.9993L113.036 38.9991Z" fill="white"/>
<path d="M113.036 38.9991L112.75 37.2547C112.613 37.2964 112.479 37.3322 112.348 37.3621C112.222 37.3861 112.061 37.4009 111.865 37.4068C111.638 37.4068 111.435 37.4099 111.256 37.4158C111.077 37.4158 110.904 37.4188 110.738 37.4247H108C107.821 37.4188 107.619 37.4127 107.392 37.4068C107.171 37.4009 107.001 37.3889 106.882 37.371C106.769 37.3531 106.644 37.3294 106.507 37.2995L106.238 38.9991L106.319 39.0259C106.355 38.9185 106.402 38.8083 106.462 38.695C106.528 38.5817 106.593 38.4774 106.659 38.382C106.73 38.2807 106.796 38.1882 106.856 38.1046C106.921 38.021 106.978 37.9586 107.026 37.9167C107.151 37.7973 107.285 37.7139 107.428 37.6661C107.577 37.6184 107.765 37.5917 107.992 37.5856H108.287C108.376 37.5797 108.46 37.5767 108.537 37.5767H109.128V41.0474C109.128 41.2264 109.125 41.3993 109.119 41.5662C109.119 41.7332 109.116 41.8853 109.11 42.0224V42.3533C109.11 42.4487 109.107 42.5471 109.101 42.6486C109.101 42.7499 109.095 42.8455 109.083 42.9348C109.077 43.0183 109.065 43.0958 109.047 43.1674C109.035 43.2331 109.015 43.2807 108.985 43.3106C108.847 43.4656 108.707 43.564 108.564 43.6059C108.421 43.6476 108.272 43.6775 108.117 43.6954V43.7849H111.024V43.6954C110.893 43.6716 110.744 43.6358 110.577 43.588C110.416 43.5404 110.291 43.4509 110.201 43.3195C110.153 43.2538 110.124 43.1436 110.112 42.9886C110.106 42.8276 110.103 42.6606 110.103 42.4877V38.1849C110.109 37.9285 110.112 37.7257 110.112 37.5767H110.702C110.786 37.5767 110.869 37.5795 110.953 37.5856H111.248C111.475 37.5917 111.659 37.6155 111.803 37.6572C111.952 37.693 112.089 37.7705 112.214 37.8899C112.262 37.9315 112.318 37.9972 112.384 38.0867C112.45 38.1701 112.515 38.2626 112.581 38.3641C112.653 38.4654 112.721 38.5758 112.787 38.695C112.852 38.8083 112.909 38.9187 112.957 39.0259L113.037 38.9991H113.036Z" stroke="white" stroke-width="0.305061"/>
</g>
<defs>
<clipPath id="clip0_9759_210">
<rect width="113.208" height="44" fill="white"/>
</clipPath>
</defs>
</svg>
