<svg xmlns="http://www.w3.org/2000/svg" width="114" height="44" viewBox="0 0 114 44" fill="none">
  <g clip-path="url(#clip0_9866_756)">
    <path d="M20.0574 20.6416H9.21094V21.2872H20.0574V20.6416Z" fill="#868686"/>
    <path d="M39.1141 29.3508L25.3838 0.0333328H24.9188L23.3789 3.4501L35.5373 29.4126C36.3648 31.2043 37.4036 31.9187 39.4276 32.0403H43.2893V31.763C41.0157 31.763 39.9491 31.1593 39.1141 29.3508Z" fill="#868686"/>
    <path d="M8.87466 23.0416C8.41069 24.5261 8.22527 25.7311 8.22527 26.7071C8.22527 30.0929 11.5654 31.763 14.0245 31.763V32.0413H0.664062V31.8557C2.79809 31.8557 4.56086 29.8615 6.04529 26.7071L12.4002 13.3468L12.5389 13.7648C10.9627 17.1977 9.8024 19.9801 9.10604 22.2068L8.87466 23.0418V23.0416Z" fill="#868686"/>
    <path d="M36.8912 31.763V32.0413H20.1449V31.763C22.2789 31.763 24.1813 30.3703 23.0212 27.9591L14.2539 9.49699L18.522 0.0333328H18.9859L32.7162 29.3496C33.5523 31.1593 34.6187 31.763 36.8914 31.763" fill="#F08D0C"/>
    <path d="M71.9713 31.9837V31.6143C70.8134 31.4417 69.8033 31.0598 68.9412 30.4688C68.079 29.8775 67.1921 28.9413 66.2806 27.6604C65.6894 26.8227 65.0119 25.862 64.2483 24.7779C63.5092 23.694 62.8193 22.6839 62.1789 21.7479C61.8094 21.2304 61.4276 20.7624 61.0334 20.3435C60.6391 19.9247 60.2327 19.6045 59.8139 19.3829V19.2721C60.6267 19.001 61.4028 18.6686 62.1419 18.2744C62.8809 17.8801 63.5214 17.4121 64.0634 16.8701C64.6301 16.3034 65.0735 15.663 65.3937 14.9485C65.7388 14.2094 65.9112 13.3842 65.9112 12.4727C65.9112 10.9946 65.5786 9.77506 64.9135 8.81438C64.2483 7.8289 63.3738 7.05304 62.2899 6.48639C61.2306 5.91974 60.0603 5.58731 58.7794 5.4887C57.4983 5.3901 56.0326 5.34089 54.382 5.34089H51.7954C50.7361 5.34089 49.6768 5.35329 48.6175 5.3779H44.257V5.74753C44.922 5.84614 45.4765 5.96935 45.9199 6.11716C46.388 6.24037 46.8068 6.49899 47.1762 6.89302C47.324 7.04084 47.4348 7.28726 47.5089 7.63209C47.6073 7.95231 47.6691 8.32195 47.6937 8.74058C47.7429 9.13481 47.7675 9.56585 47.7675 10.0339C47.7921 10.4773 47.8045 10.9208 47.8045 11.3642V20.7132C47.8045 21.4522 47.7921 22.1789 47.7675 22.8934C47.7675 23.5832 47.7551 24.2237 47.7305 24.8149V26.219C47.7305 26.6133 47.7183 27.0197 47.6935 27.4385C47.6689 27.8574 47.6319 28.2514 47.5827 28.621C47.5581 28.9907 47.5089 29.3231 47.4348 29.6187C47.3608 29.9143 47.2624 30.136 47.1392 30.2838C46.819 30.6778 46.3756 30.9736 45.8089 31.1706C45.2423 31.3679 44.651 31.5155 44.0352 31.6141V31.9835H55.8599V31.6141C54.8499 31.5647 54.0616 31.3801 53.4949 31.0596C52.9283 30.7148 52.5465 30.3822 52.3495 30.062C52.103 29.6923 51.9676 29.2243 51.943 28.6576C51.9184 28.091 51.8936 27.4135 51.869 26.6253C51.8444 25.8122 51.832 24.8145 51.832 23.632V19.4563C52.1768 19.4809 52.4603 19.4933 52.6819 19.4933C52.9283 19.4933 53.2855 19.5425 53.7536 19.6411C54.394 19.7643 54.9977 20.0721 55.5643 20.565C56.1556 21.0576 56.6974 21.5872 57.1903 22.1539C57.7815 22.8435 58.2865 23.4718 58.7052 24.0384C59.1486 24.5805 59.5553 25.1223 59.9247 25.6644C60.2943 26.2064 60.6515 26.7607 60.9964 27.3273C61.366 27.8694 61.7846 28.4852 62.2529 29.1749C62.6471 29.7415 62.9303 30.1726 63.1028 30.4682C63.3 30.7392 63.46 30.9486 63.5832 31.0964C63.7064 31.2443 63.8172 31.3797 63.9156 31.5029C64.0142 31.6013 64.1742 31.7615 64.3961 31.9831H71.9715L71.9713 31.9837ZM61.6614 12.2511C61.6614 12.9161 61.5752 13.5566 61.4028 14.1726C61.2304 14.7885 60.9594 15.3675 60.5897 15.9094C60.2449 16.4268 59.7891 16.8949 59.2224 17.3135C58.6558 17.7323 57.9783 18.065 57.1901 18.3112C56.3772 18.5822 55.5273 18.7668 54.6402 18.8654C53.778 18.9394 52.8419 18.9762 51.8318 18.9762V11.7704C51.8564 10.6865 51.881 9.71346 51.9056 8.85118C51.9302 8.28453 51.9426 7.8535 51.9426 7.55787C51.9672 7.23765 51.9796 6.99123 51.9796 6.81881C52.0042 6.6464 52.0288 6.51079 52.0536 6.41238C52.0782 6.28917 52.1028 6.15376 52.1274 6.00595C52.2998 5.98135 52.5463 5.95654 52.8665 5.93194C53.1867 5.90734 53.6056 5.89494 54.1228 5.89494C54.8373 5.89494 55.5147 5.95654 56.1552 6.07975C56.8204 6.20296 57.4485 6.39998 58.0397 6.671C59.2222 7.23765 60.1215 8.00131 60.7373 8.96199C61.3532 9.92267 61.661 11.019 61.661 12.2509L61.6614 12.2511Z" fill="#868686"/>
    <path d="M83.5641 31.9838V31.6143C83.0467 31.5649 82.4678 31.4295 81.8274 31.2077C81.1869 30.9861 80.7187 30.6657 80.4231 30.247C80.2261 29.976 80.1152 29.508 80.0906 28.8429C80.066 28.1778 80.0536 27.488 80.0536 26.7735V12.5837C80.0782 11.9679 80.0906 11.352 80.0906 10.736C80.1152 10.1693 80.1276 9.56589 80.1276 8.92544C80.1522 8.28499 80.2755 7.75534 80.4973 7.33651C80.8175 6.74526 81.2731 6.35102 81.8646 6.15401C82.4558 5.95679 83.0101 5.82138 83.5273 5.74757V5.37794H72.4784V5.74757C73.1189 5.82138 73.6855 5.95699 74.1781 6.15401C74.6954 6.32642 75.1266 6.62205 75.4715 7.04088C75.6193 7.2133 75.7301 7.45972 75.8041 7.77994C75.8779 8.07557 75.9271 8.4204 75.9519 8.81463C76.0011 9.18426 76.0257 9.5907 76.0257 10.0341V20.7134C76.0257 21.4525 76.0133 22.1791 75.9887 22.8936C75.9887 23.5835 75.9763 24.2239 75.9517 24.8152V26.2193C75.9517 26.6135 75.9393 27.02 75.9147 27.4388C75.9147 27.833 75.8901 28.2149 75.8409 28.5843C75.8163 28.9539 75.7669 29.2741 75.6931 29.545C75.6437 29.816 75.5577 30.0254 75.4344 30.1732C75.0648 30.5921 74.6092 30.9123 74.0671 31.1339C73.5497 31.3557 72.983 31.5157 72.3672 31.6143V31.9838H83.5639H83.5641Z" fill="#868686"/>
    <path d="M101.8 31.9838V31.6144C101.874 31.6144 102.047 31.5895 102.318 31.5403C102.613 31.4911 102.909 31.4049 103.205 31.2817C103.525 31.1585 103.796 30.9861 104.018 30.7643C104.264 30.5425 104.387 30.2592 104.387 29.9144C104.387 29.6926 104.313 29.3354 104.165 28.8427C104.042 28.3253 103.858 27.7094 103.611 26.995C103.365 26.2559 103.082 25.4428 102.761 24.5562C102.441 23.6693 102.096 22.7454 101.727 21.7847H91.8972C91.5278 22.7208 91.1705 23.6201 90.8255 24.4824C90.4807 25.32 90.1356 26.1699 89.7908 27.0322C89.2736 28.3625 89.0147 29.2986 89.0147 29.8406C89.0147 30.1608 89.1133 30.4319 89.3104 30.6535C89.5076 30.8507 89.7538 31.0231 90.0494 31.1709C90.3697 31.2941 90.7021 31.3927 91.0471 31.4665C91.4167 31.5159 91.7616 31.5651 92.0818 31.6144V31.9838H84.2109V31.5773C84.8514 31.5035 85.3934 31.3309 85.8369 31.0599C86.3049 30.7889 86.5759 30.6043 86.6497 30.5057C86.8222 30.3332 87.1056 29.9268 87.4996 29.2862C87.8936 28.6457 88.3741 27.6972 88.9407 26.4407C89.458 25.2828 90.037 23.9649 90.6775 22.4868C91.3179 21.0087 91.9708 19.4935 92.636 17.9416C93.3257 16.3649 94.0034 14.7883 94.6684 13.2116C95.3335 11.6103 95.9617 10.12 96.553 8.74023L96.1833 7.92716C96.6268 7.73015 97.021 7.49613 97.3658 7.22511C97.7355 6.95408 98.0557 6.67086 98.3267 6.37524C98.5977 6.07961 98.8194 5.79618 98.9918 5.52516C99.1888 5.25414 99.3366 5.03252 99.4352 4.86011H99.7308C100.494 6.90488 101.221 8.85104 101.911 10.6986C102.601 12.5215 103.254 14.2831 103.87 15.9828C104.51 17.6826 105.126 19.3333 105.717 20.9345C106.309 22.511 106.9 24.0753 107.491 25.6274C107.762 26.3911 108.009 27.0316 108.23 27.549C108.476 28.0416 108.747 28.6083 109.043 29.2489C109.092 29.3476 109.203 29.52 109.376 29.7664C109.548 30.0128 109.77 30.2714 110.041 30.5423C110.336 30.7887 110.694 31.0103 111.112 31.2073C111.531 31.4045 112.024 31.5153 112.591 31.5399V31.9834H101.8V31.9838ZM96.9594 9.59051C96.8116 9.91074 96.59 10.4158 96.2941 11.1056C96.0231 11.7955 95.6783 12.633 95.2595 13.6184C94.8406 14.6037 94.3726 15.7248 93.8551 16.9811C93.3625 18.2128 92.8205 19.5555 92.2292 21.0091H101.43C101.012 19.9006 100.58 18.7919 100.137 17.6834C99.7182 16.5749 99.2996 15.5156 98.8808 14.5055C98.4865 13.4708 98.1171 12.5348 97.7721 11.6971C97.4518 10.8348 97.1808 10.1328 96.9592 9.59092L96.9594 9.59051Z" fill="#868686"/>
    <path d="M7.15626 40.4971C7.15626 40.1095 7.10564 39.7667 7.00418 39.4687C6.90883 39.1645 6.77748 38.8994 6.61056 38.6727C6.44953 38.4401 6.25882 38.2404 6.03822 38.0735C5.81762 37.9066 5.58217 37.7693 5.33169 37.6622C5.14097 37.5786 4.94721 37.5162 4.7504 37.4743C4.55359 37.4326 4.35698 37.4028 4.16017 37.3849C3.96335 37.367 3.76675 37.358 3.56993 37.358H2.99759C2.3299 37.358 1.7606 37.3609 1.28952 37.367H0.207659V37.4564C0.362791 37.4743 0.502674 37.5042 0.628121 37.5459C0.753365 37.5876 0.860514 37.6622 0.949974 37.7695C0.985758 37.8112 1.0126 37.871 1.03049 37.9485C1.04838 38.02 1.06017 38.1034 1.06627 38.199C1.07827 38.2884 1.08416 38.3868 1.08416 38.494V41.0786C1.08416 41.2575 1.08132 41.4333 1.07522 41.6062C1.07522 41.7731 1.07217 41.9282 1.06627 42.0714V42.4111C1.06627 42.5065 1.06343 42.6049 1.05733 42.7061C1.05143 42.8076 1.04228 42.9029 1.03049 42.9924C1.01849 43.0818 1.00365 43.1624 0.985758 43.2339C0.973762 43.3055 0.953024 43.3561 0.923136 43.386C0.851568 43.4696 0.744216 43.5409 0.60108 43.6007C0.46384 43.6603 0.320907 43.6991 0.171875 43.7168V43.8063H3.43615C3.71043 43.8063 3.99345 43.7884 4.28582 43.7526C4.57799 43.7107 4.86121 43.6422 5.13548 43.5468C5.40976 43.4515 5.66919 43.3232 5.91358 43.1624C6.15797 43.0013 6.37268 42.7986 6.55749 42.5542C6.74231 42.3098 6.88829 42.0177 6.99564 41.6777C7.10299 41.3378 7.15667 40.9444 7.15667 40.4973L7.15626 40.4971ZM6.05631 40.515C6.05631 41.2959 5.89528 41.9549 5.57343 42.4914C5.25748 43.0221 4.77744 43.3797 4.13373 43.5645C3.9965 43.6062 3.84746 43.6361 3.68643 43.654C3.53151 43.666 3.37942 43.6719 3.23039 43.6719C3.06936 43.6719 2.89654 43.657 2.71173 43.6271C2.53281 43.5914 2.38377 43.5139 2.26463 43.3948C2.22885 43.359 2.19611 43.3053 2.16622 43.2337C2.14244 43.1563 2.12454 43.0727 2.11255 42.9832C2.10055 42.8879 2.08856 42.7925 2.07676 42.6972C2.07087 42.5957 2.06782 42.5034 2.06782 42.4198C2.06192 42.223 2.05887 41.9697 2.05887 41.6596V40.6134C2.05887 39.904 2.06192 39.2928 2.06782 38.78C2.07371 38.2673 2.09161 37.8649 2.12149 37.5727C2.16338 37.5609 2.21685 37.5518 2.28252 37.5459C2.35409 37.54 2.4285 37.5339 2.50617 37.528C2.58974 37.516 2.6731 37.5101 2.75666 37.5101C2.84002 37.5042 2.91769 37.5012 2.98926 37.5012C3.19786 37.5012 3.37373 37.5101 3.51687 37.528C3.66 37.54 3.79114 37.5579 3.91029 37.5817C4.22035 37.6354 4.50642 37.7545 4.7687 37.9393C5.03098 38.1241 5.25768 38.3506 5.44839 38.619C5.6391 38.8813 5.78814 39.1765 5.89549 39.5045C6.00284 39.8324 6.05652 40.1693 6.05652 40.515H6.05631Z" fill="#868686"/>
    <mask id="mask0_9866_756" style="mask-type:luminance" maskUnits="userSpaceOnUse" x="0" y="0" width="114" height="45">
      <path d="M113.208 0.0251694H0V44.0395H113.208V0.0251694Z" fill="white"/>
    </mask>
    <g mask="url(#mask0_9866_756)">
      <path d="M7.15626 40.4971C7.15626 40.1095 7.10564 39.7667 7.00418 39.4687C6.90883 39.1645 6.77748 38.8994 6.61056 38.6727C6.44953 38.4401 6.25882 38.2404 6.03822 38.0735C5.81762 37.9066 5.58217 37.7693 5.33169 37.6622C5.14097 37.5786 4.94721 37.5162 4.7504 37.4743C4.55359 37.4326 4.35698 37.403 4.16017 37.3849C3.96335 37.367 3.76675 37.358 3.56993 37.358H2.99759C2.3299 37.358 1.7606 37.3609 1.28952 37.367H0.207659V37.4564C0.362791 37.4743 0.502674 37.5042 0.628121 37.5459C0.753365 37.5876 0.860514 37.6622 0.949974 37.7695C0.985758 37.8112 1.0126 37.8708 1.03049 37.9485C1.04838 38.02 1.06017 38.1034 1.06627 38.199C1.07827 38.2884 1.08416 38.3868 1.08416 38.4942V41.0788C1.08416 41.2577 1.08132 41.4335 1.07522 41.6064C1.07522 41.7733 1.07217 41.9284 1.06627 42.0716V42.4115C1.06627 42.5069 1.06343 42.6053 1.05733 42.7065C1.05143 42.808 1.04228 42.9033 1.03049 42.9928C1.01849 43.0823 1.00365 43.1628 0.985758 43.2343C0.973762 43.3059 0.953024 43.3565 0.923136 43.3864C0.851568 43.4698 0.744216 43.5413 0.60108 43.6011C0.46384 43.6607 0.320907 43.6995 0.171875 43.7174V43.8069H3.43615C3.71043 43.8069 3.99345 43.789 4.28582 43.7532C4.57799 43.7113 4.86121 43.6428 5.13548 43.5474C5.40976 43.4521 5.66919 43.3238 5.91358 43.163C6.15797 43.0019 6.37268 42.7992 6.55749 42.5548C6.74231 42.3105 6.88829 42.0183 6.99564 41.6783C7.103 41.3386 7.15667 40.945 7.15667 40.4979L7.15626 40.4971ZM6.05631 40.515C6.05631 41.2959 5.89528 41.9549 5.57343 42.4914C5.25748 43.0221 4.77744 43.3797 4.13374 43.5645C3.9965 43.6062 3.84746 43.6361 3.68643 43.654C3.53151 43.666 3.37942 43.6719 3.23039 43.6719C3.06936 43.6719 2.89654 43.657 2.71173 43.6271C2.53281 43.5914 2.38377 43.5139 2.26463 43.3948C2.22885 43.359 2.19611 43.3053 2.16622 43.2337C2.14244 43.1563 2.12454 43.0727 2.11255 42.9832C2.10055 42.8879 2.08856 42.7925 2.07676 42.6972C2.07087 42.5959 2.06782 42.5034 2.06782 42.4198C2.06192 42.223 2.05887 41.9697 2.05887 41.6596V40.6134C2.05887 39.904 2.06192 39.2928 2.06782 38.78C2.07371 38.2673 2.09161 37.8649 2.12149 37.5727C2.16338 37.5607 2.21685 37.5518 2.28252 37.5459C2.35409 37.54 2.4285 37.5339 2.50617 37.528C2.58974 37.516 2.6731 37.5101 2.75666 37.5101C2.84002 37.5042 2.91769 37.5012 2.98926 37.5012C3.19786 37.5012 3.37373 37.5101 3.51687 37.528C3.66 37.54 3.79114 37.5577 3.91029 37.5817C4.22035 37.6354 4.50642 37.7545 4.7687 37.9393C5.03098 38.1241 5.25768 38.3506 5.44839 38.619C5.6391 38.8813 5.78814 39.1765 5.89549 39.5045C6.00284 39.8324 6.05652 40.1693 6.05652 40.515H6.05631Z" stroke="#868686" stroke-width="0.304977"/>
    </g>
    <path d="M17.4788 42.0978L17.3804 42.071C17.2314 42.3273 17.0852 42.5479 16.9421 42.7328C16.805 42.9117 16.6619 43.0636 16.5129 43.1888C16.3638 43.314 16.2089 43.4124 16.0479 43.484C15.8868 43.5495 15.711 43.5942 15.5203 43.6182C15.3474 43.642 15.1803 43.657 15.0195 43.6629C14.8645 43.6688 14.7363 43.6719 14.635 43.6719C14.3965 43.6719 14.1759 43.654 13.9732 43.6182C13.7705 43.5824 13.6422 43.5228 13.5887 43.4393C13.5351 43.3557 13.4993 43.2307 13.4814 43.0636C13.4694 42.8907 13.4604 42.7088 13.4545 42.518C13.4545 42.4585 13.4515 42.3869 13.4456 42.3033V40.9529C13.4456 40.7921 13.4515 40.6697 13.4635 40.5863H13.8748C13.9344 40.5863 13.9939 40.5892 14.0537 40.5953C14.1133 40.5953 14.1879 40.5983 14.2774 40.6042C14.4563 40.6162 14.6112 40.6489 14.7424 40.7026C14.8796 40.7563 14.9959 40.8248 15.0912 40.9082C15.1986 41.0096 15.2999 41.1617 15.3952 41.3642C15.4967 41.5669 15.5711 41.7637 15.6189 41.9545H15.7262V39.1375H15.6189C15.5831 39.3044 15.5414 39.4565 15.4936 39.5935C15.4519 39.7247 15.3924 39.841 15.3147 39.9422C15.2431 40.0437 15.1478 40.1301 15.0286 40.2016C14.9093 40.2732 14.7602 40.3297 14.5815 40.3716C14.5041 40.3895 14.4057 40.4044 14.2863 40.4163C14.1731 40.4222 14.0568 40.4281 13.9374 40.4342C13.8242 40.4401 13.7229 40.4432 13.6335 40.4432H13.4545V40.3448C13.4545 40.2911 13.4515 40.2167 13.4456 40.1211V39.1643C13.4456 38.7709 13.4486 38.425 13.4545 38.127C13.4665 37.8289 13.4783 37.6321 13.4903 37.5368C13.5499 37.5248 13.6452 37.5158 13.7764 37.5099C13.9136 37.4979 14.0446 37.492 14.1698 37.492C14.5632 37.492 14.8971 37.5099 15.1714 37.5457C15.4456 37.5815 15.6335 37.6232 15.7348 37.6709C16.1581 37.8795 16.6111 38.285 17.0941 38.8872L17.1836 38.8425L16.5755 37.367H11.6389V37.4564C11.7997 37.4802 11.9311 37.5071 12.0323 37.537C12.1336 37.5607 12.2291 37.6205 12.3186 37.7159C12.3544 37.7517 12.3812 37.8112 12.3991 37.8948C12.4229 37.9723 12.4379 38.0617 12.4438 38.1632C12.4558 38.2644 12.4617 38.3718 12.4617 38.485C12.4676 38.5983 12.4707 38.7087 12.4707 38.816V41.0786C12.4707 41.2575 12.4676 41.4333 12.4617 41.6062C12.4617 41.7731 12.4587 41.9282 12.4528 42.0714V42.4111C12.4528 42.5065 12.4499 42.6049 12.4438 42.7061C12.4379 42.8015 12.4259 42.894 12.4081 42.9834C12.3961 43.0729 12.3812 43.1532 12.3633 43.2248C12.3454 43.2905 12.3216 43.3411 12.2918 43.3769C12.2084 43.4724 12.101 43.5468 11.9699 43.6005C11.8447 43.6542 11.7076 43.6928 11.5586 43.7166V43.8061H17.0317L17.4788 42.098V42.0978Z" fill="#868686"/>
    <mask id="mask1_9866_756" style="mask-type:luminance" maskUnits="userSpaceOnUse" x="0" y="0" width="114" height="45">
      <path d="M113.208 0.0251694H0V44.0395H113.208V0.0251694Z" fill="white"/>
    </mask>
    <g mask="url(#mask1_9866_756)">
      <path d="M17.4788 42.0978L17.3804 42.071C17.2314 42.3273 17.0852 42.5479 16.9421 42.7328C16.805 42.9117 16.6619 43.0636 16.5129 43.1888C16.3638 43.314 16.2089 43.4124 16.0479 43.484C15.8868 43.5495 15.711 43.5942 15.5203 43.6182C15.3474 43.642 15.1803 43.657 15.0195 43.6629C14.8645 43.6688 14.7363 43.6719 14.635 43.6719C14.3965 43.6719 14.1759 43.654 13.9732 43.6182C13.7705 43.5824 13.6422 43.5228 13.5887 43.4393C13.5351 43.3559 13.4993 43.2305 13.4814 43.0636C13.4694 42.8907 13.4604 42.7088 13.4545 42.518C13.4545 42.4585 13.4515 42.3869 13.4456 42.3033V40.9529C13.4456 40.7921 13.4515 40.6697 13.4635 40.5863H13.8748C13.9344 40.5863 13.9939 40.5892 14.0537 40.5953C14.1133 40.5953 14.1879 40.5983 14.2774 40.6042C14.4563 40.6162 14.6112 40.6489 14.7424 40.7026C14.8796 40.7563 14.9959 40.8248 15.0912 40.9082C15.1986 41.0096 15.2999 41.1615 15.3952 41.3642C15.4967 41.5669 15.5711 41.7637 15.6189 41.9545H15.7262V39.1375H15.6189C15.5831 39.3044 15.5414 39.4565 15.4936 39.5935C15.4519 39.7247 15.3924 39.841 15.3147 39.9422C15.2431 40.0437 15.1478 40.1301 15.0286 40.2016C14.9093 40.2732 14.7602 40.3297 14.5815 40.3716C14.5041 40.3895 14.4057 40.4044 14.2863 40.4163C14.1731 40.4222 14.0568 40.4283 13.9374 40.4342C13.8242 40.4401 13.7229 40.4432 13.6335 40.4432H13.4545V40.3448C13.4545 40.2911 13.4515 40.2167 13.4456 40.1211V39.1643C13.4456 38.7709 13.4486 38.425 13.4545 38.127C13.4665 37.8289 13.4783 37.6321 13.4903 37.5368C13.5499 37.5248 13.6452 37.5158 13.7764 37.5099C13.9136 37.4979 14.0446 37.492 14.1698 37.492C14.5632 37.492 14.8971 37.5099 15.1714 37.5457C15.4456 37.5815 15.6335 37.6232 15.7348 37.6709C16.1581 37.8795 16.6111 38.285 17.0941 38.8872L17.1836 38.8425L16.5755 37.367H11.6389V37.4564C11.7997 37.4802 11.9311 37.5071 12.0323 37.537C12.1336 37.5607 12.2291 37.6205 12.3186 37.7159C12.3544 37.7517 12.3812 37.8112 12.3991 37.8948C12.4229 37.9723 12.4379 38.0617 12.4438 38.1632C12.4558 38.2644 12.4617 38.3718 12.4617 38.485C12.4676 38.5983 12.4707 38.7087 12.4707 38.816V41.0786C12.4707 41.2575 12.4676 41.4333 12.4617 41.6062C12.4617 41.7731 12.4587 41.9282 12.4528 42.0714V42.4113C12.4528 42.5067 12.4499 42.6051 12.4438 42.7063C12.4379 42.8017 12.4259 42.8942 12.4081 42.9837C12.3961 43.0731 12.3812 43.1534 12.3633 43.2252C12.3454 43.2909 12.3216 43.3415 12.2918 43.3773C12.2084 43.4728 12.101 43.5472 11.9699 43.6009C11.8447 43.6546 11.7076 43.6932 11.5586 43.7172V43.8067H17.0317L17.4788 42.0986V42.0978Z" stroke="#868686" stroke-width="0.304977"/>
    </g>
    <path d="M27.6009 37.4654V37.367H25.5173V37.4564C25.5948 37.4623 25.6814 37.4774 25.7768 37.5012C25.878 37.5191 25.9736 37.549 26.0628 37.5906C26.1523 37.6264 26.2267 37.6742 26.2865 37.7338C26.346 37.7933 26.3759 37.868 26.3759 37.9574C26.3759 38.0231 26.358 38.1422 26.3223 38.3151C26.2865 38.482 26.209 38.7294 26.0899 39.0574C25.9288 39.4866 25.7739 39.8979 25.6247 40.2915C25.4756 40.6849 25.3384 41.0367 25.2134 41.3467C25.094 41.6568 24.9928 41.916 24.9092 42.1246C24.8317 42.3334 24.7781 42.4705 24.7482 42.5361C24.6827 42.3572 24.5932 42.1277 24.4798 41.8475C24.3665 41.5673 24.2443 41.2662 24.1132 40.9442C23.988 40.6162 23.8597 40.2854 23.7287 39.9516C23.5976 39.6118 23.4782 39.3018 23.3711 39.0216C23.2696 38.7353 23.1863 38.494 23.1206 38.2972C23.0549 38.0945 23.0222 37.9664 23.0222 37.9127C23.0222 37.8232 23.0521 37.7488 23.1117 37.689C23.1773 37.6295 23.2489 37.5847 23.3264 37.5548C23.4097 37.5191 23.4902 37.4953 23.5677 37.4833C23.6452 37.4713 23.6988 37.4623 23.7287 37.4564V37.367H21.0547V37.4654C21.1919 37.4713 21.3052 37.4951 21.3944 37.537C21.4839 37.5727 21.5583 37.6175 21.6181 37.6711C21.6838 37.7248 21.7344 37.7785 21.7702 37.832C21.8059 37.8856 21.8328 37.9304 21.8507 37.9662C21.8865 38.0377 21.9194 38.1062 21.9491 38.1717C21.9849 38.2374 22.0176 38.3059 22.0475 38.3775C22.0833 38.449 22.1191 38.5265 22.1548 38.6101C22.1906 38.6936 22.2295 38.7918 22.2711 38.9053C22.4202 39.2869 22.5692 39.6683 22.7182 40.05C22.8673 40.4255 23.0222 40.8161 23.1832 41.2215C23.3443 41.6269 23.5081 42.0502 23.6751 42.4914C23.8479 42.9267 24.0327 43.3858 24.2295 43.8687H24.3369L24.775 42.9743C24.9061 42.6345 25.0434 42.2767 25.1865 41.9012C25.3356 41.5196 25.4846 41.141 25.6336 40.7654C25.7826 40.3899 25.9288 40.0262 26.0718 39.6744C26.2149 39.3168 26.346 38.9947 26.4652 38.7087C26.5368 38.5359 26.5994 38.3927 26.6531 38.2795C26.7126 38.1662 26.7633 38.0737 26.8051 38.0021C26.8468 37.9247 26.8826 37.868 26.9125 37.8322C26.9483 37.7905 26.9751 37.7606 26.993 37.7427C27.0109 37.7189 27.0764 37.6711 27.1898 37.5998C27.309 37.5282 27.4462 37.4835 27.6011 37.4656L27.6009 37.4654Z" fill="#868686"/>
    <mask id="mask2_9866_756" style="mask-type:luminance" maskUnits="userSpaceOnUse" x="0" y="0" width="114" height="45">
      <path d="M113.208 0.0251694H0V44.0395H113.208V0.0251694Z" fill="white"/>
    </mask>
    <g mask="url(#mask2_9866_756)">
      <path d="M27.6009 37.4654V37.367H25.5173V37.4564C25.5948 37.4623 25.6814 37.4774 25.7768 37.5012C25.878 37.5191 25.9736 37.549 26.0628 37.5906C26.1523 37.6264 26.2267 37.6742 26.2865 37.7338C26.346 37.7933 26.3759 37.868 26.3759 37.9574C26.3759 38.0231 26.358 38.1422 26.3223 38.3151C26.2865 38.482 26.209 38.7294 26.0899 39.0574C25.9288 39.4866 25.7739 39.8979 25.6247 40.2915C25.4756 40.6849 25.3384 41.0367 25.2134 41.3467C25.094 41.6568 24.9928 41.916 24.9092 42.1248C24.8317 42.3336 24.7781 42.4707 24.7482 42.5361C24.6827 42.3572 24.5932 42.1279 24.4798 41.8475C24.3665 41.5671 24.2443 41.2662 24.1132 40.9442C23.988 40.6162 23.8597 40.2854 23.7287 39.9516C23.5976 39.6116 23.4782 39.3018 23.3711 39.0216C23.2696 38.7353 23.1863 38.494 23.1206 38.2972C23.0549 38.0945 23.0222 37.9664 23.0222 37.9127C23.0222 37.8232 23.0521 37.7488 23.1117 37.689C23.1773 37.6295 23.2489 37.5847 23.3264 37.5548C23.4097 37.5191 23.4902 37.4953 23.5677 37.4833C23.6452 37.4713 23.6988 37.4623 23.7287 37.4564V37.367H21.0547V37.4654C21.1919 37.4713 21.3052 37.4953 21.3944 37.537C21.4839 37.5727 21.5583 37.6175 21.6181 37.6711C21.6838 37.7248 21.7344 37.7785 21.7702 37.832C21.8059 37.8856 21.8328 37.9304 21.8507 37.9662C21.8865 38.0375 21.9194 38.1062 21.9491 38.1717C21.9849 38.2374 22.0176 38.3059 22.0475 38.3775C22.0833 38.449 22.1191 38.5265 22.1548 38.6101C22.1906 38.6936 22.2295 38.7918 22.2711 38.9051C22.4202 39.2867 22.5692 39.6681 22.7182 40.0498C22.8673 40.4253 23.0222 40.8159 23.1832 41.2213C23.3443 41.6267 23.5081 42.05 23.6751 42.4912C23.8479 42.9265 24.0327 43.3856 24.2295 43.8685H24.3369L24.775 42.9741C24.9061 42.6343 25.0434 42.2765 25.1865 41.901C25.3356 41.5194 25.4846 41.1408 25.6336 40.7652C25.7826 40.3897 25.9288 40.026 26.0718 39.6742C26.2149 39.3166 26.346 38.9945 26.4652 38.7085C26.5368 38.5357 26.5994 38.3925 26.6531 38.2793C26.7126 38.166 26.7633 38.0735 26.8051 38.0019C26.8468 37.9245 26.8826 37.8678 26.9125 37.832C26.9483 37.7903 26.9751 37.7606 26.993 37.7425C27.0109 37.7187 27.0764 37.6709 27.1898 37.5996C27.309 37.528 27.4462 37.4833 27.6011 37.4654H27.6009Z" stroke="#868686" stroke-width="0.304977"/>
    </g>
    <path d="M37.3579 42.0978L37.2595 42.071C37.1105 42.3273 36.9645 42.5479 36.8214 42.7328C36.6841 42.9117 36.5412 43.0636 36.3922 43.1888C36.2431 43.314 36.0882 43.4124 35.9272 43.484C35.7661 43.5495 35.5903 43.5942 35.3996 43.6182C35.2267 43.642 35.0596 43.657 34.8988 43.6629C34.7439 43.6688 34.6156 43.6719 34.5143 43.6719C34.2758 43.6719 34.0552 43.654 33.8525 43.6182C33.6498 43.5824 33.5217 43.5228 33.468 43.4393C33.4144 43.3557 33.3786 43.2307 33.3607 43.0636C33.3487 42.8907 33.3397 42.7088 33.3338 42.518C33.3338 42.4585 33.3308 42.3869 33.3249 42.3033V40.9529C33.3249 40.7921 33.3308 40.6697 33.3428 40.5863H33.7541C33.8137 40.5863 33.8733 40.5892 33.933 40.5953C33.9926 40.5953 34.0672 40.5983 34.1567 40.6042C34.3356 40.6162 34.4905 40.6489 34.6217 40.7026C34.7589 40.7563 34.875 40.8248 34.9704 40.9082C35.0777 41.0096 35.179 41.1617 35.2745 41.3642C35.3758 41.5669 35.4504 41.7637 35.4982 41.9545H35.6055V39.1375H35.4982C35.4624 39.3044 35.4207 39.4565 35.3729 39.5935C35.3312 39.7247 35.2715 39.841 35.194 39.9422C35.1224 40.0437 35.0271 40.1301 34.9077 40.2016C34.7886 40.2732 34.6394 40.3297 34.4606 40.3716C34.3832 40.3895 34.2848 40.4044 34.1654 40.4163C34.0522 40.4222 33.9359 40.4281 33.8167 40.4342C33.7035 40.4401 33.602 40.4432 33.5126 40.4432H33.3336V40.3448C33.3336 40.2911 33.3306 40.2167 33.3247 40.1211V39.1643C33.3247 38.7709 33.3278 38.425 33.3336 38.127C33.3456 37.8289 33.3576 37.6321 33.3694 37.5368C33.429 37.5248 33.5244 37.5158 33.6557 37.5099C33.7929 37.4979 33.9239 37.492 34.0491 37.492C34.4425 37.492 34.7764 37.5099 35.0507 37.5457C35.3249 37.5815 35.5128 37.6232 35.6141 37.6709C36.0374 37.8795 36.4904 38.285 36.9732 38.8872L37.0627 38.8425L36.4546 37.367H31.518V37.4564C31.679 37.4802 31.8102 37.5071 31.9114 37.537C32.0127 37.5607 32.1082 37.6205 32.1975 37.7159C32.2333 37.7517 32.2601 37.8112 32.278 37.8948C32.302 37.9723 32.3169 38.0617 32.3227 38.1632C32.3347 38.2644 32.3406 38.3718 32.3406 38.485C32.3465 38.5983 32.3496 38.7087 32.3496 38.816V41.0786C32.3496 41.2575 32.3465 41.4333 32.3406 41.6062C32.3406 41.7731 32.3376 41.9282 32.3317 42.0714V42.4111C32.3317 42.5065 32.3286 42.6049 32.3227 42.7061C32.3169 42.8015 32.3049 42.894 32.287 42.9834C32.275 43.0729 32.2601 43.1532 32.2422 43.2248C32.2243 43.2905 32.2006 43.3411 32.1707 43.3769C32.0873 43.4724 31.98 43.5468 31.8488 43.6005C31.7236 43.6542 31.5865 43.6928 31.4375 43.7166V43.8061H36.9106L37.3577 42.098L37.3579 42.0978Z" fill="#868686"/>
    <mask id="mask3_9866_756" style="mask-type:luminance" maskUnits="userSpaceOnUse" x="0" y="0" width="114" height="45">
      <path d="M113.208 0.0251694H0V44.0395H113.208V0.0251694Z" fill="white"/>
    </mask>
    <g mask="url(#mask3_9866_756)">
      <path d="M37.3579 42.0978L37.2595 42.071C37.1105 42.3273 36.9645 42.5479 36.8214 42.7328C36.6841 42.9117 36.5412 43.0636 36.3922 43.1888C36.2431 43.314 36.0882 43.4124 35.9272 43.484C35.7661 43.5495 35.5903 43.5942 35.3996 43.6182C35.2267 43.642 35.0596 43.657 34.8988 43.6629C34.7439 43.6688 34.6156 43.6719 34.5143 43.6719C34.2758 43.6719 34.0552 43.654 33.8525 43.6182C33.6498 43.5824 33.5217 43.5228 33.468 43.4393C33.4144 43.3559 33.3786 43.2305 33.3607 43.0636C33.3487 42.8907 33.3397 42.7088 33.3338 42.518C33.3338 42.4585 33.3308 42.3869 33.3249 42.3033V40.9529C33.3249 40.7921 33.3308 40.6697 33.3428 40.5863H33.7541C33.8137 40.5863 33.8733 40.5892 33.933 40.5953C33.9926 40.5953 34.0672 40.5983 34.1567 40.6042C34.3356 40.6162 34.4905 40.6489 34.6217 40.7026C34.7589 40.7563 34.875 40.8248 34.9704 40.9082C35.0777 41.0096 35.179 41.1615 35.2745 41.3642C35.3758 41.5669 35.4504 41.7637 35.4982 41.9545H35.6055V39.1375H35.4982C35.4624 39.3044 35.4207 39.4565 35.3729 39.5935C35.3312 39.7247 35.2715 39.841 35.194 39.9422C35.1224 40.0437 35.0271 40.1301 34.9077 40.2016C34.7886 40.2732 34.6394 40.3297 34.4606 40.3716C34.3832 40.3895 34.2848 40.4044 34.1654 40.4163C34.0522 40.4222 33.9359 40.4283 33.8167 40.4342C33.7035 40.4401 33.602 40.4432 33.5126 40.4432H33.3336V40.3448C33.3336 40.2911 33.3306 40.2167 33.3247 40.1211V39.1643C33.3247 38.7709 33.3278 38.425 33.3336 38.127C33.3456 37.8289 33.3576 37.6321 33.3694 37.5368C33.429 37.5248 33.5244 37.5158 33.6557 37.5099C33.7929 37.4979 33.9239 37.492 34.0491 37.492C34.4425 37.492 34.7764 37.5099 35.0507 37.5457C35.3249 37.5815 35.5128 37.6232 35.6141 37.6709C36.0374 37.8795 36.4904 38.285 36.9732 38.8872L37.0627 38.8425L36.4546 37.367H31.518V37.4564C31.679 37.4802 31.8102 37.5071 31.9114 37.537C32.0127 37.5607 32.1082 37.6205 32.1975 37.7159C32.2333 37.7517 32.2601 37.8112 32.278 37.8948C32.302 37.9723 32.3169 38.0617 32.3227 38.1632C32.3347 38.2644 32.3406 38.3718 32.3406 38.485C32.3465 38.5983 32.3496 38.7087 32.3496 38.816V41.0786C32.3496 41.2575 32.3465 41.4333 32.3406 41.6062C32.3406 41.7731 32.3376 41.9282 32.3317 42.0714V42.4113C32.3317 42.5067 32.3286 42.6051 32.3227 42.7063C32.3169 42.8017 32.3049 42.8942 32.287 42.9837C32.275 43.0731 32.2601 43.1534 32.2422 43.2252C32.2243 43.2909 32.2006 43.3415 32.1707 43.3773C32.0873 43.4728 31.98 43.5472 31.8488 43.6009C31.7236 43.6546 31.5865 43.6932 31.4375 43.7172V43.8067H36.9106L37.3577 42.0986L37.3579 42.0978Z" stroke="#868686" stroke-width="0.304977"/>
    </g>
    <path d="M47.5762 41.9636L47.4867 41.9368C47.4152 42.1157 47.3406 42.2885 47.2631 42.4554C47.1856 42.6163 47.0903 42.7683 46.9768 42.9115C46.8636 43.0487 46.7263 43.1709 46.5655 43.2781C46.4104 43.3854 46.2138 43.4718 45.9753 43.5373C45.8738 43.5672 45.7577 43.591 45.6264 43.6089C45.4952 43.6268 45.3672 43.6416 45.2419 43.6536C45.1167 43.6595 45.0004 43.6656 44.893 43.6715H44.6694C44.5502 43.6715 44.4309 43.6656 44.3117 43.6536C44.1926 43.6357 44.0822 43.6178 43.9809 43.5999C43.8797 43.5761 43.7931 43.5491 43.7215 43.5194C43.6499 43.4897 43.6024 43.4598 43.5784 43.4299C43.5247 43.3466 43.492 43.2183 43.48 43.0455C43.4741 42.8726 43.468 42.6907 43.4621 42.5C43.4621 42.2973 43.459 42.1155 43.4531 41.9545V39.3251C43.459 39.1582 43.4621 38.9882 43.4621 38.8154C43.468 38.6426 43.4741 38.4517 43.48 38.2431C43.4859 38.0821 43.5218 37.954 43.5873 37.8586C43.6589 37.7574 43.7422 37.6797 43.8378 37.6262C43.9332 37.5725 44.0346 37.5337 44.142 37.5099C44.2493 37.4861 44.3416 37.4682 44.4191 37.4562V37.3668H41.5663V37.4562C41.7215 37.4741 41.8674 37.5099 42.0047 37.5636C42.1478 37.6173 42.2611 37.6947 42.3446 37.7962C42.3804 37.8379 42.4072 37.8946 42.4251 37.9662C42.443 38.0377 42.455 38.1211 42.4609 38.2165C42.4729 38.3059 42.4788 38.4043 42.4788 38.5117V41.0784C42.4788 41.2573 42.4758 41.4331 42.4699 41.606C42.4699 41.7729 42.467 41.928 42.4609 42.0712V42.4109C42.4609 42.5063 42.455 42.6047 42.443 42.7059C42.4371 42.8013 42.4282 42.8938 42.4162 42.9832C42.4042 43.0727 42.3863 43.153 42.3625 43.2246C42.3446 43.2903 42.3206 43.3409 42.291 43.3767C42.2076 43.4722 42.0913 43.5466 41.9423 43.6003C41.7991 43.654 41.6531 43.6926 41.5039 43.7164V43.8059H47.2452L47.5762 41.9636Z" fill="#868686"/>
    <mask id="mask4_9866_756" style="mask-type:luminance" maskUnits="userSpaceOnUse" x="0" y="0" width="114" height="45">
      <path d="M113.208 0.0251694H0V44.0395H113.208V0.0251694Z" fill="white"/>
    </mask>
    <g mask="url(#mask4_9866_756)">
      <path d="M47.5762 41.9636L47.4867 41.9368C47.4152 42.1157 47.3406 42.2885 47.2631 42.4554C47.1856 42.6165 47.0903 42.7685 46.9768 42.9115C46.8636 43.0487 46.7263 43.1709 46.5655 43.2783C46.4104 43.3856 46.2138 43.472 45.9753 43.5375C45.8738 43.5674 45.7577 43.5912 45.6264 43.6091C45.4952 43.6269 45.3672 43.6418 45.2419 43.6538C45.1167 43.6597 45.0004 43.6658 44.893 43.6717H44.6694C44.5502 43.6717 44.4309 43.6658 44.3117 43.6538C44.1926 43.6359 44.0822 43.618 43.9809 43.6001C43.8797 43.5761 43.7931 43.5493 43.7215 43.5196C43.6499 43.4899 43.6024 43.46 43.5784 43.4301C43.5247 43.3466 43.492 43.2185 43.48 43.0457C43.4741 42.8728 43.468 42.6909 43.4621 42.5002C43.4621 42.2975 43.459 42.1157 43.4531 41.9547V39.3253C43.459 39.1584 43.4621 38.9884 43.4621 38.8156C43.468 38.6428 43.4741 38.4519 43.48 38.2433C43.4859 38.0823 43.5218 37.9542 43.5873 37.8588C43.6589 37.7574 43.7422 37.6799 43.8378 37.6264C43.9332 37.5727 44.0346 37.5339 44.142 37.5101C44.2493 37.4863 44.3416 37.4682 44.4191 37.4564V37.367H41.5663V37.4564C41.7215 37.4743 41.8674 37.5101 42.0047 37.5638C42.1478 37.6175 42.2611 37.6949 42.3446 37.7964C42.3804 37.8381 42.4072 37.8948 42.4251 37.9664C42.443 38.0377 42.455 38.1213 42.4609 38.2166C42.4729 38.3061 42.4788 38.4045 42.4788 38.5119V41.0786C42.4788 41.2575 42.4758 41.4333 42.4699 41.6062C42.4699 41.7731 42.467 41.9282 42.4609 42.0714V42.4113C42.4609 42.5067 42.455 42.6051 42.443 42.7063C42.4371 42.8017 42.4282 42.8942 42.4162 42.9837C42.4042 43.0731 42.3863 43.1534 42.3625 43.2252C42.3446 43.2909 42.3206 43.3415 42.291 43.3773C42.2076 43.4728 42.0913 43.5472 41.9423 43.6009C41.7991 43.6546 41.6531 43.6932 41.5039 43.7172V43.8067H47.2452L47.5762 41.9644V41.9636Z" stroke="#868686" stroke-width="0.304977"/>
    </g>
    <path d="M58.2817 40.5418C58.2817 40.1126 58.2073 39.7011 58.058 39.3077C57.909 38.9142 57.6943 38.5684 57.4141 38.2703C57.1338 37.9664 56.791 37.7248 56.3855 37.5459C55.986 37.367 55.533 37.2777 55.0262 37.2777C54.5612 37.2777 54.1169 37.3552 53.6936 37.5103C53.2764 37.6594 52.9096 37.8769 52.5937 38.1632C52.2836 38.4433 52.0362 38.7892 51.8513 39.2005C51.6665 39.6059 51.5742 40.065 51.5742 40.5778C51.5742 41.0607 51.6606 41.5049 51.8334 41.9103C52.0124 42.3097 52.2537 42.6555 52.5579 42.9477C52.8618 43.2337 53.2166 43.4574 53.622 43.6184C54.0275 43.7733 54.4567 43.8508 54.9099 43.8508C55.3631 43.8508 55.8012 43.7703 56.2066 43.6093C56.6179 43.4482 56.9758 43.2187 57.2797 42.9206C57.5898 42.6226 57.8342 42.2706 58.0131 41.8654C58.192 41.46 58.2815 41.0188 58.2815 40.5418H58.2817ZM57.1728 40.5507C57.1728 40.9265 57.1252 41.302 57.0297 41.6775C56.9402 42.0531 56.803 42.393 56.6181 42.6972C56.4333 42.9952 56.2007 43.2396 55.9205 43.4305C55.6463 43.6213 55.3214 43.7166 54.9458 43.7166C54.5703 43.7166 54.2393 43.6302 53.9532 43.4574C53.6731 43.2846 53.4374 43.055 53.2467 42.7687C53.0619 42.4825 52.9218 42.1517 52.8265 41.7761C52.7311 41.4006 52.6833 41.01 52.6833 40.6046C52.6833 40.1992 52.725 39.8355 52.8086 39.4599C52.898 39.0783 53.0322 38.7386 53.2109 38.4405C53.3957 38.1424 53.6283 37.9009 53.9085 37.7163C54.1946 37.5254 54.5315 37.43 54.919 37.43C55.3065 37.43 55.6314 37.5254 55.9116 37.7163C56.192 37.9011 56.4244 38.1455 56.6092 38.4497C56.8001 38.7477 56.9402 39.0816 57.0297 39.4512C57.125 39.8208 57.1728 40.1874 57.1728 40.5511V40.5507Z" fill="#868686"/>
    <mask id="mask5_9866_756" style="mask-type:luminance" maskUnits="userSpaceOnUse" x="0" y="0" width="114" height="45">
      <path d="M113.208 0.0251694H0V44.0395H113.208V0.0251694Z" fill="white"/>
    </mask>
    <g mask="url(#mask5_9866_756)">
      <path d="M58.2817 40.5418C58.2817 40.1126 58.2073 39.7011 58.058 39.3077C57.909 38.9143 57.6943 38.5684 57.4141 38.2704C57.1338 37.9664 56.791 37.7249 56.3855 37.5459C55.986 37.367 55.533 37.2775 55.0262 37.2775C54.5612 37.2775 54.1169 37.355 53.6936 37.5101C53.2764 37.6592 52.9096 37.8767 52.5937 38.163C52.2836 38.4432 52.0362 38.789 51.8513 39.2003C51.6665 39.6057 51.5742 40.0648 51.5742 40.5774C51.5742 41.0603 51.6606 41.5045 51.8334 41.91C52.0124 42.3095 52.2537 42.6551 52.5579 42.9473C52.8618 43.2334 53.2166 43.457 53.622 43.618C54.0275 43.773 54.4567 43.8504 54.9099 43.8504C55.3631 43.8504 55.8012 43.7699 56.2066 43.6091C56.6179 43.4481 56.9758 43.2185 57.2797 42.9204C57.5898 42.6224 57.8342 42.2704 58.0131 41.8652C58.192 41.4598 58.2815 41.0186 58.2815 40.5416L58.2817 40.5418ZM57.1728 40.5508C57.1728 40.9265 57.1252 41.302 57.0297 41.6776C56.9402 42.0531 56.803 42.393 56.6181 42.697C56.4333 42.9951 56.2007 43.2395 55.9205 43.4304C55.6463 43.6211 55.3214 43.7164 54.9458 43.7164C54.5703 43.7164 54.2393 43.63 53.9532 43.4572C53.6731 43.2844 53.4374 43.0548 53.2467 42.7686C53.0619 42.4823 52.9218 42.1515 52.8265 41.776C52.7311 41.4004 52.6833 41.0099 52.6833 40.6044C52.6833 40.199 52.725 39.8353 52.8086 39.4598C52.898 39.0781 53.0322 38.7384 53.2109 38.4401C53.3957 38.1421 53.6283 37.9007 53.9085 37.7159C54.1946 37.525 54.5315 37.4296 54.919 37.4296C55.3065 37.4296 55.6314 37.525 55.9116 37.7159C56.192 37.9007 56.4244 38.1451 56.6092 38.4493C56.8001 38.7473 56.9402 39.0812 57.0297 39.4508C57.125 39.8205 57.1728 40.1872 57.1728 40.5508Z" stroke="#868686" stroke-width="0.304977"/>
    </g>
    <path d="M68.0053 39.2272C68.0053 38.8695 67.9189 38.5595 67.7458 38.2972C67.573 38.0349 67.3553 37.832 67.093 37.6891C66.8246 37.54 66.5385 37.4475 66.2344 37.4117C65.9304 37.3701 65.5817 37.3491 65.1881 37.3491H64.7857C64.6306 37.3491 64.4637 37.3522 64.2849 37.3581H63.7573C63.5784 37.3581 63.4115 37.3609 63.2566 37.367H62.6484V37.4565C62.8095 37.4803 62.9585 37.5102 63.0955 37.5459C63.2387 37.5758 63.355 37.6384 63.4444 37.7338C63.4802 37.7696 63.507 37.8292 63.5249 37.9127C63.5487 37.9902 63.5638 38.0796 63.5697 38.1811C63.5817 38.2765 63.5876 38.3808 63.5876 38.494C63.5937 38.6014 63.5965 38.7085 63.5965 38.8161V41.0786C63.5965 41.2575 63.5937 41.4334 63.5876 41.6062C63.5876 41.7731 63.5845 41.9283 63.5786 42.0714V42.4111C63.5786 42.5065 63.5756 42.6049 63.5697 42.7062C63.5638 42.8076 63.5548 42.903 63.5428 42.9924C63.5369 43.0819 63.5249 43.1624 63.5071 43.234C63.4892 43.3055 63.4654 43.3592 63.4355 43.395C63.358 43.4904 63.2507 43.5619 63.1136 43.6097C62.9764 43.6575 62.8335 43.6931 62.6844 43.717V43.8065H65.5461V43.717C65.3017 43.7051 65.1108 43.6603 64.9738 43.5829C64.8365 43.5054 64.7442 43.4279 64.6965 43.3505C64.6369 43.261 64.604 43.1478 64.5981 43.0107C64.5922 42.8735 64.5861 42.7096 64.5802 42.5189C64.5802 42.4176 64.5773 42.3251 64.5712 42.2416V41.1148H65.0541C65.2389 41.1148 65.4268 41.1089 65.6175 41.0969C65.8141 41.079 66.0081 41.0552 66.1988 41.0253C66.3895 40.9956 66.5684 40.9509 66.7353 40.8911C66.8964 40.8316 67.0543 40.7541 67.2093 40.6587C67.3642 40.5573 67.4984 40.4381 67.6116 40.3011C67.7308 40.1639 67.8263 40.0059 67.8979 39.8272C67.9695 39.6482 68.0053 39.4486 68.0053 39.228V39.2272ZM67.0393 39.1824C67.0393 39.5582 66.9378 39.8979 66.7351 40.2019C66.5324 40.4999 66.2403 40.7146 65.8588 40.8458C65.674 40.9115 65.4742 40.9531 65.2597 40.971C65.0449 40.983 64.8154 40.9889 64.571 40.9889V38.9677C64.5769 38.6697 64.583 38.4161 64.5889 38.2075C64.5948 38.0703 64.6009 37.966 64.6068 37.8946C64.6127 37.8172 64.6188 37.7574 64.6247 37.7157C64.6306 37.674 64.6367 37.6411 64.6426 37.6173C64.6546 37.5876 64.6635 37.5547 64.6694 37.5189C64.7111 37.513 64.7648 37.5069 64.8304 37.501C64.902 37.489 65.0002 37.4831 65.1257 37.4831C65.2985 37.4831 65.4654 37.4951 65.6264 37.5189C65.7873 37.5429 65.9393 37.5876 66.0825 37.6531C66.3688 37.7903 66.5983 37.993 66.7711 38.2612C66.95 38.5296 67.0393 38.8366 67.0393 39.1822V39.1824Z" fill="#868686"/>
    <mask id="mask6_9866_756" style="mask-type:luminance" maskUnits="userSpaceOnUse" x="0" y="0" width="114" height="45">
      <path d="M113.208 0.0251694H0V44.0395H113.208V0.0251694Z" fill="white"/>
    </mask>
    <g mask="url(#mask6_9866_756)">
      <path d="M68.0053 39.2272C68.0053 38.8695 67.9189 38.5595 67.7458 38.2972C67.573 38.0349 67.3553 37.832 67.093 37.6891C66.8246 37.54 66.5385 37.4475 66.2344 37.4117C65.9304 37.3701 65.5817 37.3491 65.1881 37.3491H64.7857C64.6306 37.3491 64.4637 37.3522 64.2849 37.3581H63.7573C63.5784 37.3581 63.4115 37.3609 63.2566 37.367H62.6484V37.4565C62.8095 37.4803 62.9585 37.5102 63.0955 37.5459C63.2387 37.5758 63.355 37.6384 63.4444 37.7338C63.4802 37.7696 63.507 37.8292 63.5249 37.9127C63.5487 37.9902 63.5638 38.0796 63.5697 38.1811C63.5817 38.2765 63.5876 38.3808 63.5876 38.494C63.5937 38.6014 63.5965 38.7085 63.5965 38.8161V41.0786C63.5965 41.2575 63.5937 41.4334 63.5876 41.6062C63.5876 41.7731 63.5845 41.9283 63.5786 42.0714V42.4113C63.5786 42.5067 63.5756 42.6051 63.5697 42.7064C63.5638 42.8078 63.5548 42.9032 63.5428 42.9926C63.5369 43.0821 63.5249 43.1626 63.5071 43.2342C63.4892 43.3057 63.4654 43.3594 63.4355 43.3952C63.358 43.4906 63.2507 43.5621 63.1136 43.6097C62.9764 43.6575 62.8335 43.6931 62.6844 43.717V43.8065H65.5461V43.717C65.3017 43.7051 65.1108 43.6603 64.9738 43.5829C64.8365 43.5054 64.7442 43.4279 64.6965 43.3505C64.6369 43.261 64.604 43.1478 64.5981 43.0105C64.5922 42.8733 64.5861 42.7094 64.5802 42.5187C64.5802 42.4172 64.5773 42.3249 64.5712 42.2414V41.1146H65.0541C65.2389 41.1146 65.4268 41.1087 65.6175 41.0967C65.8141 41.0788 66.0081 41.055 66.1988 41.0251C66.3895 40.9952 66.5684 40.9507 66.7353 40.8909C66.8964 40.8314 67.0543 40.7539 67.2093 40.6585C67.3642 40.5571 67.4984 40.4379 67.6116 40.3009C67.7308 40.1637 67.8263 40.0057 67.8979 39.827C67.9695 39.648 68.0053 39.4484 68.0053 39.2278V39.2272ZM67.0393 39.1824C67.0393 39.5582 66.9378 39.8979 66.7351 40.2019C66.5324 40.4999 66.2403 40.7146 65.8588 40.8458C65.674 40.9115 65.4742 40.9531 65.2597 40.971C65.0449 40.983 64.8154 40.9889 64.571 40.9889V38.9677C64.5769 38.6697 64.583 38.4163 64.5889 38.2075C64.5948 38.0703 64.6009 37.966 64.6068 37.8946C64.6127 37.8172 64.6188 37.7574 64.6247 37.7157C64.6306 37.674 64.6367 37.6411 64.6426 37.6173C64.6546 37.5874 64.6635 37.5547 64.6694 37.5189C64.7111 37.513 64.7648 37.5069 64.8304 37.501C64.902 37.489 65.0002 37.4831 65.1257 37.4831C65.2985 37.4831 65.4654 37.4951 65.6264 37.5189C65.7873 37.5429 65.9393 37.5876 66.0825 37.6531C66.3688 37.7903 66.5983 37.993 66.7711 38.2612C66.95 38.5296 67.0393 38.8366 67.0393 39.1824Z" stroke="#868686" stroke-width="0.304977"/>
    </g>
    <path d="M80.5365 43.8059V43.7164C80.3934 43.7105 80.2681 43.6896 80.161 43.6538C80.0536 43.6121 79.9642 43.5674 79.8926 43.5196C79.821 43.4659 79.7645 43.4183 79.7226 43.3765C79.6869 43.3289 79.6661 43.299 79.66 43.287C79.6242 43.2215 79.5974 43.1321 79.5795 43.0188C79.5675 42.8997 79.5616 42.7834 79.5616 42.6701C79.5557 42.3184 79.5527 41.9845 79.5527 41.6686V39.8889C79.5527 39.6206 79.5557 39.3434 79.5616 39.0572C79.5675 38.8486 79.5764 38.6369 79.5884 38.4222C79.6004 38.2075 79.6242 38.0495 79.66 37.9483C79.7076 37.8171 79.7942 37.7039 79.9192 37.6083C80.0504 37.513 80.2382 37.4623 80.4826 37.4562V37.3668H78.5778C78.5599 37.4146 78.4852 37.5904 78.3541 37.8944C78.2289 38.1925 78.065 38.568 77.8623 39.0212C77.6655 39.4744 77.442 39.981 77.1915 40.5414C76.9412 41.1017 76.6849 41.6651 76.4226 42.2316L74.2853 37.3666H72.3804V37.456C72.452 37.468 72.5384 37.4888 72.6396 37.5187C72.7411 37.5427 72.8364 37.5843 72.9259 37.6439C73.0154 37.7035 73.0928 37.7868 73.1583 37.8944C73.224 37.9956 73.2596 38.1298 73.2657 38.2968C73.2715 38.4696 73.2746 38.6158 73.2746 38.7349V39.8617C73.2746 40.2612 73.2715 40.6367 73.2657 40.9885C73.2598 41.3343 73.2508 41.6354 73.2388 41.8918C73.2329 42.1958 73.212 42.4552 73.1762 42.6699C73.1404 42.8785 73.0839 43.0544 73.0062 43.1975C72.9288 43.3407 72.8243 43.4539 72.6933 43.5373C72.5622 43.6148 72.3922 43.6745 72.1836 43.7162V43.8057H74.5177V43.7162C74.2613 43.6804 74.0586 43.6239 73.9096 43.5464C73.7664 43.4629 73.6591 43.3527 73.5875 43.2156C73.5159 43.0725 73.4712 42.8997 73.4533 42.697C73.4354 42.4882 73.4265 42.2438 73.4265 41.9636V39.8889C73.4324 39.5909 73.4354 39.2928 73.4354 38.9948C73.4413 38.6906 73.4444 38.3419 73.4444 37.9485C73.4743 38.0141 73.5279 38.1392 73.6054 38.3242C73.689 38.509 73.7933 38.7386 73.9185 39.0128C74.0438 39.2871 74.1838 39.6 74.339 39.9518C74.4939 40.3035 74.6608 40.6821 74.8397 41.0875C75.0187 41.487 75.2004 41.9044 75.3852 42.3395C75.576 42.7748 75.7669 43.213 75.9576 43.6542H76.0113C76.0233 43.6184 76.0529 43.5468 76.1007 43.4397C76.1485 43.3264 76.1991 43.2043 76.2528 43.0731C76.3065 42.9359 76.3602 42.8047 76.4138 42.6797C76.4675 42.5485 76.5092 42.4532 76.5391 42.3934C76.7359 41.9522 76.9146 41.5499 77.0756 41.1861C77.2426 40.8165 77.4064 40.4558 77.5675 40.1041C77.7285 39.7523 77.8893 39.3916 78.0503 39.022C78.2173 38.6524 78.3992 38.2469 78.5958 37.8057V41.4455C78.5958 41.8032 78.59 42.1789 78.578 42.5723C78.5721 42.6917 78.5601 42.8108 78.5422 42.93C78.5243 43.0432 78.4974 43.1388 78.4617 43.2162C78.4021 43.3415 78.2858 43.4517 78.1128 43.547C77.9399 43.6424 77.7252 43.6961 77.4689 43.7081V43.8065H80.5363L80.5365 43.8059Z" fill="#868686"/>
    <mask id="mask7_9866_756" style="mask-type:luminance" maskUnits="userSpaceOnUse" x="0" y="0" width="114" height="45">
      <path d="M113.208 0.0251694H0V44.0395H113.208V0.0251694Z" fill="white"/>
    </mask>
    <g mask="url(#mask7_9866_756)">
      <path d="M80.5365 43.8059V43.7164C80.3934 43.7105 80.2681 43.6896 80.161 43.6538C80.0536 43.6121 79.9642 43.5674 79.8926 43.5196C79.821 43.4659 79.7645 43.4184 79.7226 43.3765C79.6869 43.3289 79.6661 43.299 79.66 43.287C79.6242 43.2215 79.5974 43.1321 79.5795 43.0186C79.5675 42.8995 79.5616 42.7832 79.5616 42.6699C79.5557 42.3182 79.5527 41.9843 79.5527 41.6684V39.8887C79.5527 39.6206 79.5557 39.3432 79.5616 39.057C79.5675 38.8484 79.5764 38.6367 79.5884 38.422C79.6004 38.2075 79.6242 38.0493 79.66 37.9481C79.7076 37.8169 79.7942 37.7037 79.9192 37.6081C80.0504 37.5128 80.2383 37.4621 80.4826 37.456V37.3666H78.5778C78.5599 37.4144 78.4852 37.5902 78.3541 37.8942C78.2289 38.1923 78.065 38.5678 77.8623 39.021C77.6655 39.4742 77.442 39.9808 77.1915 40.5412C76.9412 41.1015 76.6849 41.6649 76.4226 42.2314L74.2853 37.3664H72.3804V37.4558C72.452 37.4676 72.5384 37.4886 72.6396 37.5185C72.7411 37.5425 72.8364 37.5841 72.9259 37.6437C73.0154 37.7033 73.0928 37.7866 73.1583 37.8942C73.224 37.9954 73.2596 38.1296 73.2657 38.2966C73.2715 38.4694 73.2746 38.6156 73.2746 38.7347V39.8615C73.2746 40.261 73.2715 40.6366 73.2657 40.9883C73.2598 41.3341 73.2508 41.6352 73.2388 41.8916C73.2329 42.1956 73.212 42.455 73.1762 42.6697C73.1404 42.8783 73.0839 43.0542 73.0062 43.1973C72.9288 43.3405 72.8243 43.4537 72.6933 43.5371C72.5622 43.6146 72.3922 43.6743 72.1836 43.716V43.8055H74.5177V43.716C74.2613 43.6802 74.0586 43.6237 73.9096 43.5462C73.7664 43.4627 73.6591 43.3525 73.5875 43.2154C73.5159 43.0723 73.4712 42.8995 73.4533 42.6968C73.4354 42.488 73.4265 42.2438 73.4265 41.9634V39.8887C73.4324 39.5907 73.4354 39.2926 73.4354 38.9946C73.4413 38.6904 73.4444 38.3417 73.4444 37.9483C73.4743 38.0139 73.5279 38.139 73.6054 38.324C73.689 38.5088 73.7933 38.7384 73.9185 39.0126C74.0438 39.2869 74.1838 39.5998 74.339 39.9516C74.4939 40.3033 74.6608 40.6819 74.8397 41.0873C75.0187 41.4868 75.2004 41.9042 75.3852 42.3393C75.576 42.7746 75.7669 43.2128 75.9576 43.654H76.0113C76.0233 43.6182 76.0529 43.5466 76.1007 43.4395C76.1485 43.3262 76.1991 43.2041 76.2528 43.0727C76.3065 42.9355 76.3602 42.8045 76.4138 42.6793C76.4675 42.5481 76.5092 42.4526 76.5391 42.393C76.7359 41.9518 76.9146 41.5494 77.0756 41.1857C77.2426 40.8161 77.4064 40.4554 77.5675 40.1037C77.7285 39.7519 77.8893 39.3912 78.0503 39.0216C78.2173 38.652 78.3992 38.2465 78.5958 37.8053V41.4451C78.5958 41.8028 78.5899 42.1785 78.578 42.5719C78.5721 42.6913 78.5601 42.8104 78.5422 42.9296C78.5243 43.0428 78.4974 43.1384 78.4617 43.2158C78.4021 43.3411 78.2858 43.4513 78.1128 43.5466C77.9399 43.642 77.7252 43.6957 77.4689 43.7077V43.8061H80.5363L80.5365 43.8059Z" stroke="#868686" stroke-width="0.304977"/>
    </g>
    <path d="M90.8768 42.0978L90.7784 42.071C90.6294 42.3273 90.4832 42.5479 90.3403 42.7328C90.2033 42.9117 90.0601 43.0636 89.9111 43.1888C89.762 43.314 89.6071 43.4124 89.4461 43.484C89.2851 43.5495 89.1092 43.5942 88.9185 43.6182C88.7457 43.642 88.5787 43.657 88.4177 43.6629C88.2628 43.6688 88.1345 43.6719 88.0332 43.6719C87.7947 43.6719 87.5741 43.654 87.3714 43.6182C87.1687 43.5824 87.0406 43.5228 86.987 43.4393C86.9333 43.3557 86.8975 43.2307 86.8796 43.0636C86.8676 42.8907 86.8589 42.7088 86.8528 42.518C86.8528 42.4585 86.8497 42.3869 86.8438 42.3033V40.9529C86.8438 40.7921 86.8497 40.6697 86.8617 40.5863H87.273C87.3326 40.5863 87.3922 40.5892 87.4519 40.5953C87.5115 40.5953 87.5861 40.5983 87.6756 40.6042C87.8545 40.6162 88.0094 40.6489 88.1406 40.7026C88.2778 40.7563 88.3939 40.8248 88.4895 40.9082C88.5968 41.0096 88.6981 41.1617 88.7934 41.3642C88.8949 41.5669 88.9693 41.7637 89.0171 41.9545H89.1244V39.1375H89.0171C88.9813 39.3044 88.9396 39.4565 88.8918 39.5935C88.8502 39.7247 88.7906 39.841 88.7129 39.9422C88.6414 40.0437 88.546 40.1301 88.4267 40.2016C88.3075 40.2732 88.1585 40.3297 87.9796 40.3716C87.9021 40.3895 87.8037 40.4044 87.6845 40.4163C87.5713 40.4222 87.455 40.4281 87.3356 40.4342C87.2224 40.4401 87.1209 40.4432 87.0317 40.4432H86.8528V40.3448C86.8528 40.2911 86.8497 40.2167 86.8438 40.1211V39.1643C86.8438 38.7709 86.8469 38.425 86.8528 38.127C86.8648 37.8289 86.8766 37.6321 86.8886 37.5368C86.9481 37.5248 87.0435 37.5158 87.1746 37.5099C87.3119 37.4979 87.4428 37.492 87.5682 37.492C87.9617 37.492 88.2955 37.5099 88.5698 37.5457C88.8441 37.5815 89.0319 37.6232 89.1332 37.6709C89.5565 37.8795 90.0097 38.285 90.4926 38.8872L90.582 38.8425L89.9739 37.367H85.0373V37.4564C85.1984 37.4802 85.3295 37.5071 85.431 37.537C85.5322 37.5607 85.6276 37.6205 85.717 37.7159C85.7528 37.7517 85.7797 37.8112 85.7975 37.8948C85.8213 37.9723 85.8364 38.0617 85.8423 38.1632C85.8543 38.2644 85.8602 38.3718 85.8602 38.485C85.8661 38.5983 85.8691 38.7087 85.8691 38.816V41.0786C85.8691 41.2575 85.8663 41.4333 85.8602 41.6062C85.8602 41.7731 85.8571 41.9282 85.8512 42.0714V42.4111C85.8512 42.5065 85.8482 42.6049 85.8423 42.7061C85.8364 42.8015 85.8244 42.894 85.8065 42.9834C85.7945 43.0729 85.7796 43.1532 85.7618 43.2248C85.7439 43.2905 85.7201 43.3411 85.6902 43.3769C85.6066 43.4724 85.4995 43.5468 85.3683 43.6005C85.2431 43.6542 85.1061 43.6928 84.957 43.7166V43.8061H90.4302L90.8772 42.098L90.8768 42.0978Z" fill="#868686"/>
    <mask id="mask8_9866_756" style="mask-type:luminance" maskUnits="userSpaceOnUse" x="0" y="0" width="114" height="45">
      <path d="M113.208 0.0251694H0V44.0395H113.208V0.0251694Z" fill="white"/>
    </mask>
    <g mask="url(#mask8_9866_756)">
      <path d="M90.8768 42.0978L90.7784 42.071C90.6294 42.3273 90.4832 42.5479 90.3403 42.7328C90.2033 42.9117 90.0601 43.0636 89.9111 43.1888C89.762 43.314 89.6071 43.4124 89.4461 43.484C89.2851 43.5495 89.1092 43.5942 88.9185 43.6182C88.7457 43.642 88.5787 43.657 88.4177 43.6629C88.2628 43.6688 88.1345 43.6719 88.0332 43.6719C87.7947 43.6719 87.5741 43.654 87.3714 43.6182C87.1687 43.5824 87.0406 43.5228 86.987 43.4393C86.9333 43.3559 86.8975 43.2305 86.8796 43.0636C86.8676 42.8907 86.8589 42.7088 86.8528 42.518C86.8528 42.4585 86.8497 42.3869 86.8438 42.3033V40.9529C86.8438 40.7921 86.8497 40.6697 86.8617 40.5863H87.273C87.3326 40.5863 87.3922 40.5892 87.4519 40.5953C87.5115 40.5953 87.5861 40.5983 87.6756 40.6042C87.8545 40.6162 88.0094 40.6489 88.1406 40.7026C88.2778 40.7563 88.3939 40.8248 88.4895 40.9082C88.5968 41.0096 88.6981 41.1615 88.7934 41.3642C88.8949 41.5669 88.9693 41.7637 89.0171 41.9545H89.1244V39.1375H89.0171C88.9813 39.3044 88.9396 39.4565 88.8918 39.5935C88.8502 39.7247 88.7906 39.841 88.7129 39.9422C88.6414 40.0437 88.546 40.1301 88.4267 40.2016C88.3075 40.2732 88.1585 40.3297 87.9796 40.3716C87.9021 40.3895 87.8037 40.4044 87.6845 40.4163C87.5713 40.4222 87.455 40.4283 87.3356 40.4342C87.2224 40.4401 87.1209 40.4432 87.0317 40.4432H86.8528V40.3448C86.8528 40.2911 86.8497 40.2167 86.8438 40.1211V39.1643C86.8438 38.7709 86.8469 38.425 86.8528 38.127C86.8648 37.8289 86.8766 37.6321 86.8886 37.5368C86.9481 37.5248 87.0435 37.5158 87.1746 37.5099C87.3119 37.4979 87.4428 37.492 87.5682 37.492C87.9617 37.492 88.2955 37.5099 88.5698 37.5457C88.8441 37.5815 89.0319 37.6232 89.1332 37.6709C89.5565 37.8795 90.0097 38.285 90.4926 38.8872L90.582 38.8425L89.9739 37.367H85.0373V37.4564C85.1984 37.4802 85.3295 37.5071 85.431 37.537C85.5322 37.5607 85.6276 37.6205 85.717 37.7159C85.7528 37.7517 85.7797 37.8112 85.7975 37.8948C85.8213 37.9723 85.8364 38.0617 85.8423 38.1632C85.8543 38.2644 85.8602 38.3718 85.8602 38.485C85.8661 38.5983 85.8691 38.7087 85.8691 38.816V41.0786C85.8691 41.2575 85.8663 41.4333 85.8602 41.6062C85.8602 41.7731 85.8571 41.9282 85.8512 42.0714V42.4113C85.8512 42.5067 85.8482 42.6051 85.8423 42.7063C85.8364 42.8017 85.8244 42.8942 85.8065 42.9837C85.7945 43.0731 85.7796 43.1534 85.7618 43.2252C85.7439 43.2909 85.7201 43.3415 85.6902 43.3773C85.6066 43.4728 85.4995 43.5472 85.3683 43.6009C85.2431 43.6546 85.1061 43.6932 84.957 43.7172V43.8067H90.4302L90.8772 42.0986L90.8768 42.0978Z" stroke="#868686" stroke-width="0.304977"/>
    </g>
    <path d="M102.286 37.4564V37.367H100.068V37.4564C100.355 37.4981 100.572 37.5727 100.721 37.6801C100.876 37.7813 100.984 37.9155 101.043 38.0825C101.091 38.2077 101.118 38.3805 101.124 38.6011C101.13 38.8158 101.133 39.0423 101.133 39.2808V42.3214L96.8937 37.367H95.0782V37.4564C95.1736 37.4684 95.272 37.4892 95.3735 37.5191C95.4808 37.5431 95.5792 37.5878 95.6685 37.6533C95.7579 37.7128 95.8354 37.7994 95.9009 37.9127C95.9665 38.02 96.0082 38.1601 96.0261 38.3329C96.032 38.5058 96.0351 38.652 96.0351 38.7711V39.8621C96.0351 40.2616 96.032 40.6372 96.0261 40.9889C96.0202 41.3347 96.0113 41.6359 95.9993 41.8922C95.9873 42.232 95.9696 42.5242 95.9456 42.7687C95.9218 43.0131 95.8681 43.1979 95.7846 43.3232C95.7012 43.4543 95.5878 43.5497 95.4448 43.6093C95.3017 43.6629 95.1586 43.6987 95.0156 43.7166V43.8061H97.2155V43.7166C96.9711 43.6869 96.7774 43.6391 96.6342 43.5737C96.497 43.5021 96.3957 43.3978 96.3301 43.2608C96.2705 43.1414 96.2317 42.9597 96.2138 42.7153C96.2018 42.4709 96.1959 42.1966 96.1959 41.8924V38.1184C96.6013 38.5716 96.9858 39.0098 97.3495 39.4331C97.7133 39.8564 98.0829 40.2917 98.4584 40.7388C98.84 41.18 99.2394 41.645 99.6568 42.134C100.074 42.6228 100.536 43.1595 101.043 43.7437C101.103 43.8032 101.156 43.8331 101.204 43.8331C101.234 43.8331 101.255 43.8242 101.267 43.8063C101.285 43.7943 101.293 43.7764 101.293 43.7526V43.1713C101.293 42.9566 101.29 42.7421 101.285 42.5274V41.3112C101.285 40.9116 101.288 40.5389 101.293 40.1931C101.305 39.8414 101.317 39.5374 101.329 39.281C101.341 39.0067 101.353 38.7504 101.365 38.5119C101.377 38.2675 101.404 38.1006 101.446 38.0111C101.517 37.8383 101.618 37.71 101.75 37.6266C101.887 37.5431 102.066 37.4865 102.286 37.4566V37.4564Z" fill="#868686"/>
    <mask id="mask9_9866_756" style="mask-type:luminance" maskUnits="userSpaceOnUse" x="0" y="0" width="114" height="45">
      <path d="M113.208 0.0251694H0V44.0395H113.208V0.0251694Z" fill="white"/>
    </mask>
    <g mask="url(#mask9_9866_756)">
      <path d="M102.286 37.4564V37.367H100.068V37.4564C100.355 37.4981 100.572 37.5727 100.721 37.6801C100.876 37.7813 100.984 37.9155 101.043 38.0825C101.091 38.2077 101.118 38.3805 101.124 38.6011C101.13 38.8158 101.133 39.0423 101.133 39.2808V42.3214L96.8937 37.367H95.0782V37.4564C95.1736 37.4682 95.272 37.4892 95.3735 37.5191C95.4808 37.5431 95.5792 37.5878 95.6685 37.6533C95.7579 37.7128 95.8354 37.7994 95.9009 37.9127C95.9665 38.02 96.0082 38.1601 96.0261 38.3329C96.032 38.5058 96.0351 38.652 96.0351 38.7711V39.8621C96.0351 40.2616 96.032 40.6372 96.0261 40.9889C96.0202 41.3347 96.0113 41.6359 95.9993 41.8922C95.9873 42.232 95.9696 42.5242 95.9456 42.7687C95.9218 43.0131 95.8681 43.1979 95.7846 43.3232C95.7012 43.4543 95.5878 43.5497 95.4448 43.6093C95.3017 43.6629 95.1586 43.6987 95.0156 43.7166V43.8061H97.2155V43.7166C96.9711 43.6867 96.7774 43.6391 96.6342 43.5735C96.497 43.5019 96.3957 43.3976 96.3301 43.2604C96.2705 43.141 96.2317 42.9592 96.2138 42.7149C96.2018 42.4705 96.1959 42.1962 96.1959 41.8922V38.1182C96.6013 38.5714 96.9858 39.0096 97.3495 39.4329C97.7133 39.8562 98.0829 40.2915 98.4584 40.7386C98.84 41.1798 99.2394 41.6448 99.6568 42.1338C100.074 42.6226 100.536 43.1593 101.043 43.7434C101.103 43.803 101.156 43.8329 101.204 43.8329C101.234 43.8329 101.255 43.824 101.267 43.8061C101.285 43.7941 101.293 43.7764 101.293 43.7524V43.1711C101.293 42.9564 101.29 42.7419 101.285 42.5272V41.3109C101.285 40.9114 101.288 40.5387 101.293 40.1931C101.305 39.8414 101.317 39.5374 101.329 39.281C101.341 39.0067 101.353 38.7504 101.365 38.5119C101.377 38.2675 101.404 38.1006 101.446 38.0111C101.517 37.8383 101.618 37.71 101.75 37.6266C101.887 37.5431 102.066 37.4865 102.286 37.4566V37.4564Z" stroke="#868686" stroke-width="0.304977"/>
    </g>
    <path d="M113.023 39.0216L112.737 37.2777C112.599 37.3194 112.465 37.3552 112.334 37.3851C112.209 37.4091 112.048 37.4239 111.851 37.4298C111.625 37.4298 111.422 37.4329 111.243 37.4388C111.064 37.4388 110.891 37.4418 110.725 37.4477H107.988C107.809 37.4418 107.606 37.4357 107.38 37.4298C107.159 37.4239 106.989 37.4119 106.87 37.394C106.757 37.3761 106.632 37.3523 106.495 37.3225L106.227 39.0216L106.307 39.0484C106.343 38.9411 106.39 38.8309 106.45 38.7176C106.516 38.6044 106.581 38.5001 106.647 38.4047C106.719 38.3035 106.784 38.211 106.844 38.1274C106.909 38.044 106.966 37.9814 107.014 37.9397C107.139 37.8204 107.273 37.737 107.416 37.6892C107.565 37.6415 107.753 37.6148 107.98 37.6087H108.275C108.364 37.6028 108.447 37.5998 108.525 37.5998H109.115V41.0696C109.115 41.2485 109.112 41.4214 109.106 41.5883C109.106 41.7552 109.103 41.9073 109.097 42.0443V42.3751C109.097 42.4705 109.095 42.5689 109.088 42.6703C109.088 42.7716 109.082 42.8671 109.071 42.9564C109.065 43.0398 109.053 43.1174 109.035 43.189C109.023 43.2547 109.002 43.3022 108.972 43.3319C108.835 43.4869 108.695 43.5855 108.552 43.6272C108.409 43.6688 108.26 43.6987 108.105 43.7166V43.8061H111.011V43.7166C110.88 43.6928 110.731 43.657 110.564 43.6093C110.403 43.5617 110.278 43.4722 110.188 43.3409C110.141 43.2752 110.111 43.165 110.099 43.0101C110.093 42.8491 110.09 42.6821 110.09 42.5093V38.2077C110.096 37.9513 110.099 37.7486 110.099 37.5996H110.689C110.773 37.5996 110.856 37.6024 110.94 37.6085H111.235C111.462 37.6146 111.646 37.6384 111.789 37.6801C111.938 37.7159 112.075 37.7933 112.201 37.9127C112.248 37.9544 112.305 38.02 112.371 38.1095C112.436 38.1931 112.502 38.2854 112.567 38.3868C112.639 38.4881 112.708 38.5985 112.773 38.7176C112.839 38.8309 112.895 38.9413 112.943 39.0484L113.023 39.0216H113.023Z" fill="#868686"/>
    <path d="M113.023 39.0216L112.737 37.2777C112.599 37.3194 112.465 37.3552 112.334 37.3851C112.209 37.4091 112.048 37.4239 111.851 37.4298C111.625 37.4298 111.422 37.4329 111.243 37.4388C111.064 37.4388 110.891 37.4418 110.725 37.4477H107.988C107.809 37.4418 107.606 37.4357 107.38 37.4298C107.159 37.4239 106.989 37.4119 106.87 37.394C106.757 37.3761 106.632 37.3523 106.495 37.3225L106.227 39.0216L106.307 39.0484C106.343 38.9411 106.39 38.8309 106.45 38.7176C106.516 38.6044 106.581 38.5001 106.647 38.4047C106.719 38.3035 106.784 38.211 106.844 38.1274C106.909 38.0438 106.966 37.9814 107.014 37.9395C107.139 37.8202 107.273 37.7368 107.416 37.689C107.565 37.6413 107.753 37.6146 107.98 37.6085H108.275C108.364 37.6026 108.447 37.5996 108.525 37.5996H109.115V41.0694C109.115 41.2483 109.112 41.4211 109.106 41.5881C109.106 41.755 109.103 41.9071 109.097 42.0441V42.3749C109.097 42.4703 109.095 42.5687 109.088 42.6701C109.088 42.7714 109.082 42.8669 109.071 42.9562C109.065 43.0398 109.053 43.1172 109.035 43.1888C109.023 43.2545 109.002 43.302 108.972 43.3317C108.835 43.4867 108.695 43.5853 108.552 43.6269C108.409 43.6686 108.26 43.6985 108.105 43.7164V43.8059H111.011V43.7164C110.88 43.6926 110.731 43.6568 110.564 43.6091C110.403 43.5615 110.278 43.472 110.188 43.3407C110.141 43.275 110.111 43.1648 110.099 43.0099C110.093 42.8488 110.09 42.6819 110.09 42.5091V38.2075C110.096 37.9511 110.099 37.7484 110.099 37.5994H110.689C110.773 37.5994 110.856 37.6022 110.94 37.6083H111.235C111.462 37.6144 111.646 37.6382 111.789 37.6799C111.938 37.7157 112.075 37.7931 112.201 37.9125C112.248 37.9542 112.305 38.0198 112.371 38.1093C112.436 38.1929 112.502 38.2852 112.567 38.3866C112.639 38.4879 112.708 38.5983 112.773 38.7174C112.839 38.8307 112.895 38.9411 112.943 39.0482L113.023 39.0214L113.023 39.0216Z" stroke="#868686" stroke-width="0.304977"/>
  </g>
  <defs>
    <clipPath id="clip0_9866_756">
      <rect width="113.208" height="44.0143" fill="white" transform="translate(0 0.0251694)"/>
    </clipPath>
  </defs>
</svg>