<?xml version="1.0" encoding="UTF-8"?>
<svg id="Capa_1" xmlns="http://www.w3.org/2000/svg" version="1.1" viewBox="0 0 512 512">
  <!-- Generator: Adobe Illustrator 29.5.1, SVG Export Plug-In . SVG Version: 2.1.0 Build 141)  -->
  <defs>
    <style>
      .st0 {
        fill: #e89e01;
      }
    </style>
  </defs>
  <path class="st0" d="M256,0C114.6,0,0,114.6,0,256s114.6,256,256,256,256-114.6,256-256C512,114.6,397.4,0,256,0ZM378.8,310.6c-6.7,6.7-17.5,6.7-24.1,0l-98.7-98.7-98.7,98.7c-6.7,6.7-17.5,6.7-24.1,0-6.7-6.6-6.7-17.5,0-24.1l110.7-110.7c3.3-3.3,7.7-5,12.1-5s8.8,1.6,12.1,5l110.7,110.7c6.7,6.7,6.7,17.4,0,24.1Z"/>
</svg>